<?xml version="1.0" standalone="no"?>
<!DOCTYPE svg PUBLIC "-//W3C//DTD SVG 1.1//EN" "http://www.w3.org/Graphics/SVG/1.1/DTD/svg11.dtd" >
<svg xmlns="http://www.w3.org/2000/svg" xmlns:xlink="http://www.w3.org/1999/xlink" version="1.1">
<metadata>
Created by FontForge 20170731 at Mon Sep 16 01:12:50 2019
 By Aleksey,,,
Copyright (c) 2018 by Alexander Slobzheninov. All rights reserved.
</metadata>
<defs>
<font id="Agrandir-Thin" horiz-adv-x="531" >
  <font-face 
    font-family="Agrandir Thin"
    font-weight="100"
    font-stretch="normal"
    units-per-em="1000"
    panose-1="0 0 2 0 0 0 0 0 0 0"
    ascent="750"
    descent="-250"
    x-height="501"
    cap-height="701"
    bbox="-113 -241 1427 962"
    underline-thickness="32"
    underline-position="-184"
    unicode-range="U+000D-F6C3"
  />
<missing-glyph horiz-adv-x="0" 
 />
    <glyph glyph-name=".notdef" horiz-adv-x="0" 
 />
    <glyph glyph-name=".null" horiz-adv-x="0" 
 />
    <glyph glyph-name="nonmarkingreturn" unicode="&#xd;" horiz-adv-x="55" 
 />
    <glyph glyph-name="NULL" horiz-adv-x="738" 
d="M111 701h517v-701h-517v701zM590 37v627h-441v-627h441z" />
    <glyph glyph-name="NULL" horiz-adv-x="738" 
d="M111 701h517v-701h-517v701zM590 37v627h-441v-627h441z" />
    <glyph glyph-name="space" unicode=" " horiz-adv-x="278" 
 />
    <glyph glyph-name="exclam" unicode="!" horiz-adv-x="171" 
d="M65 503v198h41v-198l-3 -339h-34zM60 -1q-10 10 -10 26q0 15 10 25t26 10t25.5 -10t9.5 -25t-10 -25.5t-25 -10.5q-16 0 -26 10z" />
    <glyph glyph-name="quotedbl" unicode="&#x22;" horiz-adv-x="240" 
d="M49 701h31v-272h-32zM160 701h32v-272h-32v272z" />
    <glyph glyph-name="numbersign" unicode="#" horiz-adv-x="903" 
d="M204 -2l66 246h-240v32h248l56 206h-254v32h262l60 222l31 -7l-58 -215h209l59 222l31 -8l-57 -214h255l1 -32h-264l-55 -206h269l-1 -32h-277l-67 -254l-31 7l66 247h-210l-68 -254zM521 276l55 206h-210l-55 -206h210z" />
    <glyph glyph-name="dollar" unicode="$" horiz-adv-x="587" 
d="M567 184q0 -63 -31 -110t-89 -73t-135 -26h-5v-105h-32v107q-104 10 -173 74t-82 164l40 9q10 -86 68 -141.5t147 -66.5v334l-42 10q-174 41 -174 164q0 90 58.5 145t157.5 57v94h32v-95q83 -8 139.5 -61t71.5 -139l-39 -9q-12 72 -58 117t-114 53v-301l64 -15
q196 -44 196 -186zM275 393v294q-80 -2 -127.5 -44.5t-47.5 -112.5q0 -50 34.5 -81t110.5 -49zM468 59.5q58 45.5 58 120.5q0 58 -39.5 94t-127.5 57l-52 12v-329h5q98 0 156 45.5z" />
    <glyph glyph-name="percent" unicode="%" horiz-adv-x="967" 
d="M221 7l502 734l27 -17l-503 -734zM127.5 365q-45.5 26 -71.5 71.5t-26 102.5t26 102.5t71.5 71.5t102.5 26q56 0 101.5 -26t71 -71.5t25.5 -102.5t-25.5 -102.5t-70.5 -71.5t-102 -26t-102.5 26zM312.5 399q36.5 21 57.5 58t21 83t-21 82.5t-57.5 57.5t-81.5 21
q-47 0 -84 -21t-58 -57.5t-21 -82.5t21 -83t58 -58t84 -21q45 0 81.5 21zM635.5 15q-45.5 26 -71.5 71.5t-26 102.5t26 102.5t71.5 71.5t102.5 26q56 0 101.5 -26t71.5 -71.5t26 -102.5t-25.5 -102.5t-71 -71.5t-102.5 -26t-102.5 26zM820.5 49q36.5 21 57 58t20.5 83
t-20.5 82.5t-57 57.5t-81.5 21q-47 0 -84.5 -21t-58.5 -57.5t-21 -82.5t21 -83t58.5 -58t84.5 -21q45 0 81.5 21z" />
    <glyph glyph-name="ampersand" unicode="&#x26;" horiz-adv-x="663" 
d="M663 0h-60l-104 94q-47 -58 -103.5 -88.5t-128.5 -30.5q-68 0 -122 25t-84.5 70t-30.5 101q0 69 38.5 117.5t122.5 85.5q-40 41 -64.5 82.5t-24.5 89.5q0 49 23.5 87.5t67 60.5t100.5 22q49 0 90 -19.5t65.5 -56.5t24.5 -87q0 -60 -49 -106t-157 -89l227 -206
q46 70 84 188l32 -27q-42 -119 -88 -186zM167.5 466q24.5 -39 69.5 -81q103 40 149.5 79.5t46.5 86.5q0 57 -40.5 91.5t-100.5 34.5q-68 0 -109 -36t-41 -94q1 -42 25.5 -81zM469 121l-248 225q-79 -33 -114.5 -74.5t-35.5 -100.5q0 -45 25 -81t69 -56t100 -20
q124 0 204 107z" />
    <glyph glyph-name="quotesingle" unicode="'" horiz-adv-x="129" 
d="M49 701h31v-272h-32z" />
    <glyph glyph-name="parenleft" unicode="(" horiz-adv-x="218" 
d="M80 11.5q-45 129.5 -45 264.5t45 264.5t116 202.5l22 -20q-69 -78 -110 -199.5t-41 -249.5q0 -127 41 -246.5t110 -196.5l-22 -21q-71 72 -116 201.5z" />
    <glyph glyph-name="parenright" unicode=")" horiz-adv-x="218" 
d="M1 -169q70 78 110.5 197t40.5 246q0 128 -41 249t-111 200l24 20q72 -73 115.5 -200.5t43.5 -262.5q0 -137 -43.5 -266.5t-115.5 -203.5z" />
    <glyph glyph-name="asterisk" unicode="*" horiz-adv-x="465" 
d="M217 420q0 10 -4 15.5t-11 5.5t-14 -4l-137 -79l-16 27l137 79q13 7 13 17t-13 17l-137 79l16 27l137 -79q7 -4 14 -4t11 5.5t4 15.5v158h32v-158q0 -10 4 -15.5t11 -5.5q6 0 13 4l138 79l15 -27l-137 -79q-12 -7 -12 -17q0 -9 12 -17l137 -79l-15 -27l-138 79
q-7 4 -13 4q-7 0 -11 -5.5t-4 -15.5v-158h-32v158z" />
    <glyph glyph-name="plus" unicode="+" horiz-adv-x="570" 
d="M265 349h-215v38h215v193h40v-193h215v-38h-216v-209h-39v209z" />
    <glyph glyph-name="comma" unicode="," horiz-adv-x="180" 
d="M46 -78q12 -2 16 -2q22 0 35.5 16t13.5 43q0 8 -1 13q-4 -1 -11 -1q-16 0 -25.5 9.5t-9.5 25.5q0 15 10 24.5t25 9.5q20 0 30.5 -17.5t10.5 -51.5q0 -46 -20 -71.5t-56 -25.5q-11 0 -24 3z" />
    <glyph glyph-name="hyphen" unicode="-" horiz-adv-x="470" 
d="M50 284h370v-38h-370v38z" />
    <glyph glyph-name="period" unicode="." horiz-adv-x="151" 
d="M50 -1q-10 10 -10 26q0 15 10 25t26 10t25.5 -10t9.5 -25t-10 -25.5t-25 -10.5q-16 0 -26 10z" />
    <glyph glyph-name="slash" unicode="/" horiz-adv-x="335" 
d="M0 -231l304 943l31 -10l-305 -942z" />
    <glyph glyph-name="zero" unicode="0" horiz-adv-x="668" 
d="M187.5 23.5q-64.5 48.5 -101 134t-36.5 193.5t36.5 193.5t101 133.5t146.5 48t146.5 -48t101 -133.5t36.5 -193.5t-36.5 -193.5t-101 -134t-146.5 -48.5t-146.5 48.5zM459.5 57.5q55.5 43.5 86.5 120.5t31 173t-31 172.5t-86.5 120t-125.5 43.5t-125.5 -43.5t-86.5 -120
t-31 -172.5t31 -173t86.5 -120.5t125.5 -43.5t125.5 43.5z" />
    <glyph glyph-name="one" unicode="1" horiz-adv-x="431" 
d="M28 39h200v608h-1q-44 -69 -167 -99l-8 41q121 25 178 112h40v-662h151v-39h-393v39z" />
    <glyph glyph-name="two" unicode="2" horiz-adv-x="538" 
d="M50 28q0 94 37.5 156t130.5 121l81 53q71 46 100.5 88t29.5 95q0 66 -38.5 106t-102.5 40q-75 0 -125 -51.5t-60 -140.5l-40 11q14 100 74.5 160t150.5 60q82 0 132 -51t50 -136q0 -63 -33.5 -112t-115.5 -102l-83 -54q-81 -53 -113.5 -105t-32.5 -127h406v-39h-448v28z
" />
    <glyph glyph-name="three" unicode="3" horiz-adv-x="561" 
d="M168 6.5q-56 31.5 -90 87.5t-38 126l39 10q3 -63 31.5 -112t76 -76.5t104.5 -27.5q56 0 98.5 21.5t66 59.5t23.5 87q0 72 -50 117t-129 47l-59 1v36l36 1q71 2 116.5 40t45.5 102q0 41 -19.5 75.5t-54 55t-77.5 20.5q-72 0 -120.5 -51t-53.5 -131l-41 5q4 62 32.5 111.5
t76 77.5t106.5 28q54 0 98 -25.5t69 -68.5t25 -95q0 -57 -31 -98.5t-88 -58.5v-2q78 -17 119 -68t41 -121q0 -59 -29 -105.5t-81.5 -73t-119.5 -26.5t-123 31.5z" />
    <glyph glyph-name="four" unicode="4" 
d="M370 184h-350v27l335 490h56v-478h90v-39h-90v-184h-41v184zM370 223v433h-1l-293 -433h294z" />
    <glyph glyph-name="five" unicode="5" horiz-adv-x="547" 
d="M144.5 5.5q-54.5 30.5 -85 86t-31.5 128.5l41 3q0 -62 26 -109.5t71.5 -73.5t104.5 -26q58 0 103 24.5t69.5 69t24.5 101.5q0 59 -24 104t-68 69.5t-101 24.5q-48 0 -91 -19t-65 -51l-33 11l27 353h341v-39h-304l-23 -274q24 26 66.5 42t85.5 16q68 0 120.5 -29.5
t81 -83.5t28.5 -124q0 -69 -30 -122t-84 -82.5t-125 -29.5t-125.5 30.5z" />
    <glyph glyph-name="six" unicode="6" horiz-adv-x="564" 
d="M424.5 668q49.5 -58 70.5 -165l-41 -8q-16 94 -54.5 143t-115.5 49q-93 0 -145.5 -96.5t-55.5 -270.5q34 52 87 79t121 27q66 0 119 -28.5t83 -79t30 -114.5q0 -66 -31 -118t-84.5 -81t-120.5 -29q-110 0 -177 65t-67 186l-1 50q0 228 63 338.5t179 110.5q91 0 140.5 -58
zM182.5 362.5q-46.5 -24.5 -72.5 -67t-26 -94.5q0 -53 26 -95.5t72.5 -66.5t104.5 -24q55 0 99 24.5t69 67.5t25 97q0 52 -24.5 94t-68.5 65.5t-100 23.5q-58 0 -104.5 -24.5z" />
    <glyph glyph-name="seven" unicode="7" horiz-adv-x="511" 
d="M447 662h-427v39h471v-38q-231 -276 -284 -663h-44q51 383 284 662z" />
    <glyph glyph-name="eight" unicode="8" horiz-adv-x="580" 
d="M160 1.5q-57 26.5 -89.5 74t-32.5 107.5q0 74 47 126.5t125 66.5q-63 14 -101.5 60t-38.5 107q0 53 28 94.5t78.5 65t113.5 23.5t113 -23.5t78.5 -65t28.5 -93.5q0 -62 -39 -108t-102 -60q78 -14 125.5 -66.5t47.5 -126.5q0 -60 -32.5 -107.5t-89.5 -74t-130 -26.5
t-130 26.5zM382 412.5q41 19.5 64 53.5t23 76q0 41 -23 74.5t-64 52t-92 18.5t-91.5 -18.5t-63.5 -51.5t-23 -75q0 -43 23 -76.5t63.5 -53t91.5 -19.5t92 19.5zM399 36q48 21 75 59.5t27 87.5t-27.5 88.5t-75.5 62t-108 22.5t-108 -22.5t-75 -62t-27 -88.5t27 -87.5
t75 -59.5t108 -21q61 0 109 21z" />
    <glyph glyph-name="nine" unicode="9" horiz-adv-x="585" 
d="M120.5 37.5q-61.5 61.5 -82.5 161.5l41 9q16 -86 66.5 -139.5t134.5 -53.5q103 0 161 97t61 270q-34 -52 -87.5 -78.5t-121.5 -26.5q-66 0 -118.5 28.5t-82.5 79t-30 114.5q0 65 30.5 117t84 81t121.5 29q111 0 177.5 -65t66.5 -187l1 -41q0 -231 -69 -344t-194 -113
q-98 0 -159.5 61.5zM401.5 339.5q46.5 24.5 73 67t26.5 94.5q0 53 -26.5 95.5t-72.5 66.5t-104 24q-55 0 -99.5 -24t-69.5 -67t-25 -97q0 -53 25 -95t69 -65.5t99 -23.5q58 0 104.5 24.5z" />
    <glyph glyph-name="colon" unicode=":" horiz-adv-x="151" 
d="M50 416.5q-10 9.5 -10 25.5t10 26t26 10t25.5 -10t9.5 -26q0 -15 -9.5 -25t-25.5 -10t-26 9.5zM50 -1q-10 10 -10 26q0 15 10 25t26 10t25.5 -10t9.5 -25t-10 -25.5t-25 -10.5q-16 0 -26 10z" />
    <glyph glyph-name="semicolon" unicode=";" horiz-adv-x="180" 
d="M46 -78q12 -2 16 -2q22 0 35.5 16t13.5 43q0 8 -1 13q-4 -1 -11 -1q-16 0 -25.5 9.5t-9.5 25.5q0 15 10 24.5t25 9.5q20 0 30.5 -17.5t10.5 -51.5q0 -46 -20 -71.5t-56 -25.5q-11 0 -24 3zM74 416q-10 10 -10 26q0 15 10 25t26 10t25.5 -10t9.5 -25t-10 -25.5t-25 -10.5
q-16 0 -26 10z" />
    <glyph glyph-name="less" unicode="&#x3c;" horiz-adv-x="472" 
d="M50 314v53l354 214l18 -35l-338 -205l338 -206l-18 -35z" />
    <glyph glyph-name="equal" unicode="=" horiz-adv-x="570" 
d="M50 448h470v-38h-470v38zM50 274h470v-39h-470v39z" />
    <glyph glyph-name="greater" unicode="&#x3e;" horiz-adv-x="472" 
d="M422 367v-53l-353 -214l-19 35l338 205l-338 206l19 35z" />
    <glyph glyph-name="question" unicode="?" horiz-adv-x="483" 
d="M211.5 245q10.5 32 32 55t59.5 49l34 23q38 27 61 61.5t23 84.5q0 49 -23.5 87.5t-63 60t-88.5 21.5q-84 0 -135 -53t-61 -141l-40 9q12 101 75 162.5t163 61.5q60 0 108.5 -26.5t76.5 -73.5t28 -107q0 -59 -26 -100.5t-74 -73.5l-34 -23q-49 -34 -67.5 -65.5
t-18.5 -92.5h-40q0 49 10.5 81zM195 -1q-10 10 -10 26q0 15 10 25t26 10t25.5 -10t9.5 -25t-10 -25.5t-25 -10.5q-16 0 -26 10z" />
    <glyph glyph-name="at" unicode="@" horiz-adv-x="928" 
d="M238 -130.5q-97 52.5 -150 148.5t-53 225q0 126 56.5 224t159 152.5t233.5 54.5q116 0 208.5 -50.5t146.5 -148.5t54 -233q0 -129 -38.5 -195.5t-108.5 -66.5q-46 0 -72.5 25t-28.5 72v43h-1q-25 -65 -84.5 -102.5t-139.5 -37.5q-84 0 -134.5 37t-50.5 100t56.5 105
t196.5 62l131 18q26 3 26 27q0 79 -46.5 117.5t-123.5 38.5q-51 0 -93.5 -21t-67 -56t-24.5 -75l-38 15q3 47 33.5 87.5t80.5 64.5t109 24q95 0 152.5 -50.5t57.5 -146.5v-247q0 -32 17 -49t47 -17q53 0 83 58.5t30 168.5q0 127 -50 218t-135.5 137.5t-191.5 46.5
q-124 0 -219 -50.5t-147 -141.5t-52 -208q0 -119 49.5 -208.5t140 -138t210.5 -48.5q70 0 135 19.5t106 51.5l14 -27q-44 -35 -113.5 -55t-144.5 -20q-129 0 -226 52.5zM537.5 45q50.5 27 79 76t28.5 114v33l-154 -22q-123 -17 -169.5 -49t-46.5 -80q0 -45 40.5 -72
t108.5 -27q63 0 113.5 27z" />
    <glyph glyph-name="A" unicode="A" horiz-adv-x="627" 
d="M287 701h53l277 -701h-44l-71 183h-377l-71 -183h-44zM488 221l-173 440h-2l-174 -440h349z" />
    <glyph glyph-name="B" unicode="B" horiz-adv-x="628" 
d="M60 701h305q95 0 149.5 -48t54.5 -130q0 -61 -34.5 -103t-93.5 -53v-1q73 -11 115 -57.5t42 -116.5q0 -89 -62.5 -140.5t-170.5 -51.5h-305v701zM363 384q77 0 121 37.5t44 101.5t-44 101.5t-121 37.5h-262v-278h262zM363 39q89 0 141 41t52 112t-52 112t-141 41h-262
v-306h262z" />
    <glyph glyph-name="C" unicode="C" horiz-adv-x="752" 
d="M208 21q-83 46 -128 131t-45 199t41.5 198.5t119 130.5t182.5 46q74 0 135.5 -31t102 -88t53.5 -134l-40 -8q-18 101 -86.5 161.5t-164.5 60.5q-92 0 -160.5 -41.5t-105 -117.5t-36.5 -177q0 -102 40 -178.5t113.5 -117.5t172.5 -41q118 0 196 69t94 186l40 -9
q-12 -86 -56.5 -150.5t-115 -99.5t-158.5 -35q-111 0 -194 46z" />
    <glyph glyph-name="D" unicode="D" horiz-adv-x="685" 
d="M60 701h220q178 0 274 -90.5t96 -259.5t-95.5 -260t-274.5 -91h-220v701zM280 39q158 0 243.5 80.5t85.5 231.5q0 150 -85.5 230.5t-243.5 80.5h-179v-623h179z" />
    <glyph glyph-name="E" unicode="E" horiz-adv-x="568" 
d="M60 701h473v-39h-432v-278h392v-39h-392v-306h442v-39h-483v701z" />
    <glyph glyph-name="F" unicode="F" horiz-adv-x="505" 
d="M60 701h425v-39h-384v-288h325v-39h-325v-335h-41v701z" />
    <glyph glyph-name="G" unicode="G" horiz-adv-x="798" 
d="M212 23.5q-83 48.5 -130 134t-47 193.5q0 107 45 192.5t125 134t181 48.5q70 0 132.5 -28.5t107.5 -79t64 -114.5l-39 -11q-29 88 -101 141t-164 53q-89 0 -159.5 -43t-110.5 -119.5t-40 -173.5q0 -96 41.5 -173t115.5 -120.5t168 -43.5q90 0 162 42.5t113 117.5t41 169
h-453v39h494v-382h-39l-1 184h-1q-41 -97 -124.5 -153t-193.5 -56q-104 0 -187 48.5z" />
    <glyph glyph-name="H" unicode="H" horiz-adv-x="640" 
d="M60 701h41v-316h438v316h41v-701h-41v346h-438v-346h-41v701z" />
    <glyph glyph-name="I" unicode="I" horiz-adv-x="161" 
d="M60 701h41v-701h-41v701z" />
    <glyph glyph-name="J" unicode="J" horiz-adv-x="451" 
d="M83.5 20q-52.5 44 -63.5 117l38 14q8 -61 49.5 -98.5t104.5 -37.5q69 0 108 45t39 125v516h42v-518q0 -97 -50 -152t-137 -55q-78 0 -130.5 44z" />
    <glyph glyph-name="K" unicode="K" horiz-adv-x="506" 
d="M60 701h41v-347h1l330 347h55l-264 -277l273 -424h-49l-253 394l-93 -97v-297h-41v701z" />
    <glyph glyph-name="L" unicode="L" horiz-adv-x="503" 
d="M60 701h41v-662h392v-39h-433v701z" />
    <glyph glyph-name="M" unicode="M" horiz-adv-x="840" 
d="M60 701h65l295 -656h1l294 656h65v-701h-41v652h-2l-291 -652h-51l-292 652h-2v-652h-41v701z" />
    <glyph glyph-name="N" unicode="N" horiz-adv-x="640" 
d="M60 701h64l413 -657h2v657h41v-701h-63l-414 657h-2v-657h-41v701z" />
    <glyph glyph-name="O" unicode="O" horiz-adv-x="814" 
d="M211.5 21.5q-84.5 46.5 -130.5 132t-46 197.5t46 197t130.5 131.5t195.5 46.5t195.5 -46.5t130.5 -131.5t46 -197t-46 -197.5t-130.5 -132t-195.5 -46.5t-195.5 46.5zM581 56q75 42 116 118t41 177q0 100 -41 176t-116 118t-174 42t-174 -42t-116 -118t-41 -176
t41 -176.5t116 -118.5t174 -42t174 42z" />
    <glyph glyph-name="P" unicode="P" horiz-adv-x="605" 
d="M60 701h282q73 0 128 -25t85 -71t30 -107t-30 -107t-85 -71t-128 -25h-241v-295h-41v701zM342 335q92 0 147 44.5t55 118.5q0 75 -55 119.5t-147 44.5h-241v-327h241z" />
    <glyph glyph-name="Q" unicode="Q" horiz-adv-x="814" 
d="M621.5 -155.5q36.5 35.5 44.5 90.5l37 -18q-11 -64 -58 -105.5t-110 -41.5q-74 0 -115.5 42t-41.5 118v46q-103 6 -180.5 54t-120 131t-42.5 190q0 112 46 197t130.5 131.5t195.5 46.5t195.5 -46.5t130.5 -131.5t46 -197q0 -110 -44.5 -194.5t-126 -132t-189.5 -49.5v-42
q0 -59 30.5 -91.5t86.5 -32.5q49 0 85.5 35.5zM117 174.5q41 -76.5 116 -118.5t174 -42t174 42t116 118t41 177q0 100 -41 176t-116 118t-174 42t-174 -42t-116 -118t-41 -176t41 -176.5z" />
    <glyph glyph-name="R" unicode="R" horiz-adv-x="655" 
d="M515.5 0.5q-18.5 20.5 -29.5 59.5l-40 152q-28 103 -118 103h-227v-315h-41v701h311q104 0 165.5 -52t61.5 -140q0 -73 -49 -124.5t-132 -61.5v-1q50 -30 71 -109l39 -146q6 -25 15.5 -36.5t27.5 -11.5q35 0 58 38l27 -26q-34 -51 -88 -51q-33 0 -51.5 20.5zM371 355
q85 0 135.5 41.5t50.5 111.5t-50.5 112t-135.5 42h-270v-307h270z" />
    <glyph glyph-name="S" unicode="S" horiz-adv-x="587" 
d="M171.5 4.5q-62.5 29.5 -102 84t-49.5 126.5l40 9q11 -95 80 -152.5t172 -57.5q98 0 156 45.5t58 120.5q0 58 -39.5 94t-127.5 57l-126 29q-174 41 -174 164q0 92 60.5 147t162.5 55q92 0 156 -54.5t80 -146.5l-39 -9q-13 78 -66 124.5t-130 46.5q-84 0 -133.5 -43
t-49.5 -114q0 -50 34.5 -81t110.5 -49l126 -30q196 -44 196 -186q0 -63 -31 -110t-89 -73t-135 -26q-78 0 -140.5 29.5z" />
    <glyph glyph-name="T" unicode="T" horiz-adv-x="555" 
d="M257 662h-247v39h535v-39h-247v-662h-41v662z" />
    <glyph glyph-name="U" unicode="U" horiz-adv-x="639" 
d="M121.5 46.5q-71.5 71.5 -71.5 198.5v456h41v-456q0 -109 60 -170t169 -61t168.5 60.5t59.5 170.5v456h41v-456q0 -127 -71 -198.5t-198 -71.5t-198.5 71.5z" />
    <glyph glyph-name="V" unicode="V" horiz-adv-x="625" 
d="M10 701h44l259 -658h1l257 658h44l-278 -701h-49z" />
    <glyph glyph-name="W" unicode="W" horiz-adv-x="949" 
d="M10 701h43l195 -660h1l193 660h65l194 -660h1l194 660h43l-206 -701h-63l-195 663h-1l-196 -663h-62z" />
    <glyph glyph-name="X" unicode="X" horiz-adv-x="568" 
d="M256 361l-237 340h51l213 -311l216 311h50l-239 -341l248 -360h-50l-225 330l-224 -330h-49z" />
    <glyph glyph-name="Y" unicode="Y" horiz-adv-x="550" 
d="M255 284l-245 417h47l218 -374h1l217 374h47l-244 -417v-284h-41v284z" />
    <glyph glyph-name="Z" unicode="Z" horiz-adv-x="563" 
d="M10 47l489 616h-479v38h523v-46l-488 -617h498v-38h-543v47z" />
    <glyph glyph-name="bracketleft" unicode="[" horiz-adv-x="221" 
d="M60 741h161v-32h-128v-867h128v-32h-161v931z" />
    <glyph glyph-name="backslash" unicode="\" horiz-adv-x="335" 
d="M0 702l31 10l304 -943l-30 -9z" />
    <glyph glyph-name="bracketright" unicode="]" horiz-adv-x="221" 
d="M0 -190v32h128v867h-128v32h161v-931h-161z" />
    <glyph glyph-name="asciicircum" unicode="^" horiz-adv-x="519" 
d="M30 420l206 281h48l205 -281l-32 -20l-197 266l-198 -266z" />
    <glyph glyph-name="underscore" unicode="_" horiz-adv-x="500" 
d="M0 0h500v-32h-500v32z" />
    <glyph glyph-name="grave" unicode="`" horiz-adv-x="181" 
d="M20 738l25 20l116 -142l-23 -20z" />
    <glyph glyph-name="a" unicode="a" horiz-adv-x="590" 
d="M70.5 17q-50.5 37 -50.5 100t56.5 105t196.5 62l131 18q27 3 27 27q0 79 -46.5 117.5t-123.5 38.5q-52 0 -94 -21t-66.5 -56t-24.5 -75l-39 15q3 47 33.5 87.5t80.5 64.5t109 24q95 0 152.5 -50.5t57.5 -146.5v-262q0 -21 11 -33.5t29 -12.5q14 0 29 9t25 25l26 -26
q-14 -21 -37 -34t-47 -13q-34 0 -54.5 22t-21.5 58v60h-1q-25 -65 -84.5 -102.5t-138.5 -37.5q-85 0 -135.5 37zM322.5 45q50.5 27 79 76t28.5 114v33l-153 -22q-124 -17 -170.5 -49t-46.5 -80q0 -45 40.5 -72t108.5 -27q63 0 113.5 27z" />
    <glyph glyph-name="b" unicode="b" horiz-adv-x="602" 
d="M178 18q-59 38 -88 104h-1l-1 -122h-38v731h40v-350h1q29 65 87.5 102.5t134.5 37.5q74 0 133 -34.5t92.5 -96.5t33.5 -139q0 -78 -33.5 -139.5t-92.5 -96.5t-133 -35q-76 0 -135 38zM424.5 48q50.5 30 79 83t28.5 120q0 66 -28.5 119t-79 83t-113.5 30t-113.5 -30
t-79.5 -83t-29 -119t29 -119.5t79.5 -83.5t113.5 -30t113.5 30z" />
    <glyph glyph-name="c" unicode="c" horiz-adv-x="566" 
d="M154 13.5q-59 33.5 -91.5 95t-32.5 142.5t31 142t87.5 94.5t131.5 33.5q84 0 145 -49.5t80 -132.5l-39 -8q-16 70 -67 111t-119 41q-63 0 -110.5 -28.5t-73.5 -81t-26 -122.5t27.5 -123t78 -81.5t116.5 -28.5q83 0 141.5 47t73.5 127l39 -10q-18 -92 -87.5 -147
t-166.5 -55q-79 0 -138 33.5z" />
    <glyph glyph-name="d" unicode="d" horiz-adv-x="602" 
d="M156 15q-59 35 -92.5 96.5t-33.5 139.5q0 77 33.5 139t92.5 96.5t133 34.5q76 0 134.5 -37.5t87.5 -102.5h1v350h40v-731h-38l-1 122h-1q-29 -66 -88 -104t-135 -38q-74 0 -133 35zM404.5 48q50.5 30 79.5 83.5t29 119.5t-29 119t-79.5 83t-113.5 30t-113.5 -30t-79 -83
t-28.5 -119q0 -67 28.5 -120t79 -83t113.5 -30t113.5 30z" />
    <glyph glyph-name="e" unicode="e" horiz-adv-x="565" 
d="M164 15q-63 35 -98.5 97t-35.5 140q0 77 32.5 138.5t90 96t129.5 34.5q69 0 123 -34.5t84.5 -95.5t33.5 -139v-15h-453q3 -63 34 -113t84 -78t119 -28q64 0 119.5 32t82.5 83l35 -17q-30 -60 -95.5 -98t-142.5 -38q-79 0 -142 35zM482 275q-4 61 -30.5 108.5t-70.5 73.5
t-99 26q-58 0 -104 -26.5t-74.5 -74t-32.5 -107.5h411z" />
    <glyph glyph-name="f" unicode="f" horiz-adv-x="394" 
d="M110 464h-109l-1 37h110v82q0 71 38 111t102 40q53 0 93.5 -32t50.5 -82l-37 -14q-6 40 -36 65.5t-71 25.5q-46 0 -73 -31t-27 -86v-79h219v-37h-219v-464h-40v464z" />
    <glyph glyph-name="g" unicode="g" horiz-adv-x="604" 
d="M108 -190.5q-77 39.5 -118 105.5l34 25q35 -60 103 -96t148 -36q111 0 175.5 60.5t64.5 171.5v85h-1q-25 -67 -88.5 -104.5t-132.5 -37.5q-75 0 -134 34.5t-92 95.5t-33 138q0 78 33 139.5t92 96t134 34.5q67 0 128.5 -37.5t91.5 -96.5h1l2 114h38v-461q0 -128 -75 -199
t-204 -71q-90 0 -167 39.5zM408 51q50 30 78.5 82.5t28.5 117.5q0 66 -28.5 119t-78.5 83t-113 30t-113.5 -30t-79 -82.5t-28.5 -119.5q0 -66 28.5 -118.5t79 -82t113.5 -29.5t113 30z" />
    <glyph glyph-name="h" unicode="h" 
d="M50 731h40v-325h1q26 54 80 84.5t126 30.5q89 0 139 -51t50 -141v-329h-40v328q0 73 -41 114t-114 41q-92 0 -146.5 -53t-54.5 -141v-289h-40v731z" />
    <glyph glyph-name="i" unicode="i" horiz-adv-x="151" 
d="M50 619q-10 10 -10 25t10 25t26 10q15 0 25 -10t10 -25t-10 -25t-25 -10q-16 0 -26 10zM55 501h40v-501h-40v501z" />
    <glyph glyph-name="j" unicode="j" horiz-adv-x="147" 
d="M46 618.5q-10 9.5 -10 25.5t9.5 25.5t25.5 9.5q15 0 25.5 -10t10.5 -25t-10.5 -25t-25.5 -10t-25 9.5zM-104 -217l5 36q30 -11 59 -11q41 0 66 24.5t25 65.5v603h40v-604q0 -58 -35 -92.5t-94 -34.5q-34 0 -66 13z" />
    <glyph glyph-name="k" unicode="k" horiz-adv-x="415" 
d="M50 731h40v-470h1l256 240h57l-204 -190l215 -311h-49l-195 284l-81 -75v-209h-40v731z" />
    <glyph glyph-name="l" unicode="l" horiz-adv-x="140" 
d="M50 731h40v-731h-40v731z" />
    <glyph glyph-name="m" unicode="m" horiz-adv-x="851" 
d="M50 501h38l1 -94h1q19 52 70 83t118 31q63 0 105 -32t57 -90h1q22 57 75.5 89.5t119.5 32.5q80 0 125 -50.5t45 -139.5v-331h-40v330q0 72 -36 112.5t-100 40.5q-85 0 -133.5 -54t-48.5 -149v-280h-40v330q0 72 -36 112.5t-100 40.5q-85 0 -133.5 -54t-48.5 -149v-280
h-40v501z" />
    <glyph glyph-name="n" unicode="n" 
d="M436 470q50 -51 50 -141v-329h-40v328q0 73 -41 114t-114 41q-92 0 -146.5 -53t-54.5 -141v-289h-40v501h38l2 -95h1q26 54 80 84.5t126 30.5q89 0 139 -51z" />
    <glyph glyph-name="o" unicode="o" horiz-adv-x="584" 
d="M154.5 13.5q-59.5 33.5 -92 95t-32.5 142.5t32.5 142t92 94.5t137.5 33.5t137.5 -33.5t92 -94.5t32.5 -142t-32.5 -142.5t-92 -95t-137.5 -33.5t-137.5 33.5zM408.5 47q50.5 29 78 81.5t27.5 122.5q0 69 -27.5 121.5t-78 81.5t-116.5 29t-116.5 -29t-78 -81.5
t-27.5 -121.5q0 -70 27.5 -122.5t78 -81.5t116.5 -29t116.5 29z" />
    <glyph glyph-name="p" unicode="p" horiz-adv-x="602" 
d="M50 501h38l1 -122h1q29 66 88 104t135 38q74 0 133 -34.5t92.5 -96.5t33.5 -139q0 -78 -33.5 -139.5t-92.5 -96.5t-133 -35q-76 0 -134.5 37.5t-87.5 102.5h-1v-330h-40v711zM424.5 49q50.5 30 79 83t28.5 119t-28.5 119t-79 83t-113.5 30t-113.5 -30t-79.5 -83t-29 -119
t29 -119t79.5 -83t113.5 -30t113.5 30z" />
    <glyph glyph-name="q" unicode="q" horiz-adv-x="602" 
d="M512 120h-1q-29 -65 -87.5 -102.5t-134.5 -37.5q-74 0 -133 35t-92.5 96.5t-33.5 139.5q0 77 33.5 139t92.5 96.5t133 34.5q76 0 135 -38t88 -104h1l1 122h38v-711h-40v330zM404.5 49q50.5 30 79.5 83t29 119t-29 119t-79.5 83t-113.5 30t-113.5 -30t-79 -83t-28.5 -119
t28.5 -119t79 -83t113.5 -30t113.5 30z" />
    <glyph glyph-name="r" unicode="r" horiz-adv-x="402" 
d="M334 482q39 -39 48 -118l-37 -12q-7 66 -36.5 98.5t-77.5 32.5q-63 0 -102 -50t-39 -130v-303h-40v501h37v-81h1q21 47 59.5 74t86.5 27q61 0 100 -39z" />
    <glyph glyph-name="s" unicode="s" horiz-adv-x="452" 
d="M135 0.5q-47 20.5 -77.5 58t-37.5 84.5l39 11q6 -59 56.5 -97.5t121.5 -38.5q43 0 79 15t56.5 41.5t20.5 58.5q0 36 -31 59.5t-98 39.5l-74 18q-74 18 -107.5 48t-33.5 78q0 41 22 74t60 52t86 19q67 0 115.5 -36.5t60.5 -95.5l-38 -12q-7 47 -45.5 76.5t-92.5 29.5
q-55 0 -92 -30.5t-37 -74.5q0 -34 27 -56t86 -36l75 -18q82 -20 119 -51t37 -81q0 -45 -25.5 -80.5t-70 -55.5t-98.5 -20q-56 0 -103 20.5z" />
    <glyph glyph-name="t" unicode="t" horiz-adv-x="410" 
d="M147.5 19q-37.5 39 -37.5 104v341h-110v37h110v153l40 11v-164h221v-37h-221v-339q0 -49 27 -78t73 -29q41 0 71.5 26t35.5 66l36 -13q-8 -51 -49.5 -84t-95.5 -33q-63 0 -100.5 39z" />
    <glyph glyph-name="u" unicode="u" 
d="M95.5 31q-50.5 51 -50.5 141v329h40v-327q0 -73 41 -114.5t114 -41.5q92 0 146.5 53t54.5 141v289h40v-501h-38l-2 95h-1q-26 -54 -79.5 -84.5t-125.5 -30.5q-89 0 -139.5 51z" />
    <glyph glyph-name="v" unicode="v" horiz-adv-x="500" 
d="M11 501h42l197 -461h1l197 461h42l-216 -501h-48z" />
    <glyph glyph-name="w" unicode="w" horiz-adv-x="792" 
d="M10 501h42l159 -461h1l157 461h53l160 -462h1l157 462h42l-173 -501h-54l-159 461h-1l-156 -461h-54z" />
    <glyph glyph-name="x" unicode="x" horiz-adv-x="428" 
d="M189 261l-169 240h47l147 -213l148 213h46l-169 -240l179 -261h-46l-158 232l-157 -232h-47z" />
    <glyph glyph-name="y" unicode="y" horiz-adv-x="523" 
d="M76 -193q-69 37 -96 93l32 26q24 -50 84 -84t137 -34q91 0 145.5 54t54.5 148v75h-1q-24 -57 -77 -91t-116 -34q-59 0 -105 29.5t-71.5 81.5t-25.5 118v312h40v-312q0 -85 45 -138t119 -53q51 0 95 26t70.5 72.5t26.5 104.5v300h40v-491q0 -74 -29.5 -128t-84 -83
t-126.5 -29q-88 0 -157 37z" />
    <glyph glyph-name="z" unicode="z" horiz-adv-x="483" 
d="M20 51l394 412h-384v38h423v-51l-393 -412h403v-38h-443v51z" />
    <glyph glyph-name="braceleft" unicode="{" horiz-adv-x="273" 
d="M132 -165q-22 25 -22 67v272q0 35 -16.5 55t-46.5 22l-12 1v47l12 1q30 2 46.5 22.5t16.5 55.5v271q0 42 22 67t59 25h82v-32h-82q-23 0 -36.5 -16t-13.5 -44v-273q0 -42 -19 -69t-52 -30v-2q33 -3 52 -29.5t19 -69.5v-274q0 -28 13.5 -44t36.5 -16h82v-32h-82
q-37 0 -59 25z" />
    <glyph glyph-name="bar" unicode="|" horiz-adv-x="152" 
d="M60 731h32v-961h-32v961z" />
    <glyph glyph-name="braceright" unicode="}" horiz-adv-x="273" 
d="M0 -190v32h82q23 0 36.5 16t13.5 44v274q0 43 19.5 69.5t51.5 29.5v2q-32 3 -51.5 30t-19.5 69v273q0 28 -13.5 44t-36.5 16h-82v32h82q37 0 59 -25t22 -67v-271q0 -35 17 -55.5t46 -22.5l12 -1v-47l-12 -1q-29 -2 -46 -22t-17 -55v-272q0 -42 -22 -67t-59 -25h-82z" />
    <glyph glyph-name="asciitilde" unicode="~" horiz-adv-x="552" 
d="M522 283q-22 -22 -50.5 -34.5t-56.5 -12.5q-32 0 -63 15t-73 43q-45 31 -72.5 46t-56.5 15q-25 0 -51 -12.5t-47 -33.5l-22 28q25 26 57.5 41t63.5 15q36 0 68.5 -17t85.5 -54q36 -24 61.5 -36t50.5 -12q45 0 84 37z" />
    <glyph glyph-name="exclamdown" unicode="&#xa1;" horiz-adv-x="171" 
d="M111.5 512q9.5 -10 9.5 -26q0 -15 -9.5 -25t-25.5 -10t-26 10t-10 25t10 25.5t26 10.5t25.5 -10zM106 8v-198h-41v198l4 339h34z" />
    <glyph glyph-name="cent" unicode="&#xa2;" horiz-adv-x="566" 
d="M546 174q-11 -55 -47.5 -99t-88.5 -69.5t-109 -25.5h-3v-110h-32v112q-69 7 -122.5 43.5t-83.5 95t-30 130.5q0 75 30 135.5t84 96t122 38.5v119h32v-120q75 -5 132.5 -53t74.5 -120l-39 -8q-15 59 -61.5 98.5t-106.5 44.5v-464h3q48 0 92 21.5t74.5 59.5t39.5 85z
M94.5 140.5q24.5 -49.5 69 -81t102.5 -39.5v463q-56 -4 -101 -35t-70 -82t-25 -115q0 -61 24.5 -110.5z" />
    <glyph glyph-name="sterling" unicode="&#xa3;" horiz-adv-x="529" 
d="M30 48q53 16 81 80t29 210h-100v32h100v158q0 57 21.5 102t60.5 70.5t89 25.5t90.5 -27t65.5 -75t29 -109l-39 -6q-5 78 -45.5 128.5t-100.5 50.5q-57 0 -94 -45t-36 -115l-1 -158h270v-32h-270q-1 -136 -27.5 -206.5t-73.5 -92.5v-1h420v-38h-469v48z" />
    <glyph glyph-name="currency" unicode="&#xa4;" horiz-adv-x="685" 
d="M30 -29l110 111q-57 70 -57 168t57 168l-109 110l22 22l108 -108q35 33 81.5 50.5t100.5 17.5t100.5 -17.5t81.5 -50.5l108 108l22 -22l-108 -110q56 -70 56 -168t-56 -168l108 -110l-22 -22l-108 108q-35 -33 -81.5 -50.5t-100.5 -17.5t-100.5 17.5t-81.5 50.5
l-108 -108zM456 58.5q50 28.5 78.5 78.5t28.5 113t-28.5 113t-78.5 78.5t-113 28.5t-113 -28.5t-78.5 -78.5t-28.5 -113t28.5 -113t78.5 -78.5t113 -28.5t113 28.5z" />
    <glyph glyph-name="yen" unicode="&#xa5;" horiz-adv-x="602" 
d="M281 157h-256v32h256v58h-256v31h243l-258 423h49l243 -401l242 401h48l-258 -423h244v-31h-256v-58h256v-32h-256v-157h-41v157z" />
    <glyph glyph-name="section" unicode="&#xa7;" horiz-adv-x="492" 
d="M151.5 1q-48.5 21 -79 58t-37.5 84l39 11q6 -59 58 -97.5t126 -38.5q44 0 80.5 15t57.5 41t21 58q0 64 -83 84l-153 36q-66 16 -96.5 45t-30.5 78q0 36 18.5 66.5t49.5 48.5q-40 30 -40 86q0 41 21 74t58.5 52t84.5 19q64 0 111 -36.5t59 -95.5l-38 -12q-8 47 -44 76.5
t-87 29.5q-54 0 -89.5 -31t-35.5 -77q0 -57 73 -77l124 -32q70 -18 103 -49.5t34 -86.5q0 -31 -12 -58.5t-37 -45.5q49 -34 49 -93q0 -45 -26 -79.5t-71 -54t-101 -19.5q-58 0 -106.5 21zM404.5 281q11.5 22 11.5 47q0 74 -105 101l-154 40q-29 -14 -46.5 -39t-17.5 -53
q0 -35 23.5 -57t72.5 -33l181 -42q23 14 34.5 36z" />
    <glyph glyph-name="dieresis" unicode="&#xa8;" horiz-adv-x="317" 
d="M30 618.5q-10 9.5 -10 25.5t10 25.5t26 9.5t25.5 -9.5t9.5 -25.5t-9.5 -25.5t-25.5 -9.5t-26 9.5zM235.5 618.5q-9.5 9.5 -9.5 25.5t9.5 25.5t25.5 9.5t26 -9.5t10 -25.5t-10 -25.5t-26 -9.5t-25.5 9.5z" />
    <glyph glyph-name="copyright" unicode="&#xa9;" horiz-adv-x="815" 
d="M216 27.5q-85 48.5 -133 134.5t-48 194q0 106 48 192t133.5 135.5t191.5 49.5t191 -48.5t133 -134.5t48 -194t-48 -194t-133 -134.5t-191 -48.5q-107 0 -192 48.5zM582.5 55.5q77.5 44.5 121.5 123t44 177.5q0 96 -44 175t-121.5 124.5t-174.5 45.5t-175 -45.5t-122 -124
t-44 -175.5q0 -99 44 -177.5t121.5 -123t175.5 -44.5q97 0 174.5 44.5zM277 116.5q-59 33.5 -91.5 95t-32.5 142.5t31 142t87.5 94.5t131.5 33.5q84 0 145 -49.5t80 -132.5l-39 -8q-16 70 -67 111t-119 41q-63 0 -110.5 -28.5t-73.5 -81t-26 -122.5t27.5 -123t78 -81.5
t116.5 -28.5q83 0 141.5 47t73.5 127l39 -10q-18 -92 -87.5 -147t-166.5 -55q-79 0 -138 33.5z" />
    <glyph glyph-name="guillemotleft" unicode="&#xab;" horiz-adv-x="492" 
d="M30 251l211 260l24 -20l-195 -240l194 -241l-23 -20zM227 251l210 260l25 -20l-195 -240l194 -241l-24 -20z" />
    <glyph glyph-name="logicalnot" unicode="&#xac;" horiz-adv-x="618" 
d="M530 404h-480v37h518v-271h-38v234z" />
    <glyph glyph-name="registered" unicode="&#xae;" horiz-adv-x="815" 
d="M216 27q-85 48 -133 133t-48 192q0 104 48 189t133 134t192 49q106 0 191 -48t133 -133t48 -191q0 -107 -48 -192t-133 -133t-191 -48q-107 0 -192 48zM582.5 55q77.5 44 121.5 121.5t44 174.5q0 96 -44 174t-121.5 123t-174.5 45q-98 0 -175.5 -45t-121.5 -123t-44 -174
q0 -97 44 -174.5t121.5 -121.5t175.5 -44q97 0 174.5 44zM237 604h198q73 0 115.5 -37.5t42.5 -100.5q0 -59 -38.5 -96t-103.5 -40l139 -228h-45l-138 226h-130v-226h-40v502zM435 366q53 0 85.5 27.5t32.5 72.5q0 46 -32.5 73.5t-85.5 27.5h-158v-201h158z" />
    <glyph glyph-name="macron" unicode="&#xaf;" horiz-adv-x="351" 
d="M35 623h281v-31h-281v31z" />
    <glyph glyph-name="degree" unicode="&#xb0;" horiz-adv-x="460" 
d="M127.5 361.5q-45.5 25.5 -71.5 70.5t-26 101q0 58 26 104.5t71.5 72.5t102.5 26t102.5 -26t71.5 -71.5t26 -103.5q0 -57 -26 -102.5t-71.5 -71t-102.5 -25.5t-102.5 25.5zM317 389.5q38 21.5 59.5 59.5t21.5 86q0 49 -21.5 87.5t-59.5 60t-86 21.5t-86.5 -21.5t-60.5 -60
t-22 -87.5q0 -48 22 -86t60.5 -59.5t86.5 -21.5t86 21.5z" />
    <glyph glyph-name="plusminus" unicode="&#xb1;" horiz-adv-x="553" 
d="M257 419h-207v39h207v131h40v-131h206v-39h-206v-145h-40v145zM50 182h453v-32h-453v32z" />
    <glyph glyph-name="acute" unicode="&#xb4;" horiz-adv-x="181" 
d="M20 616l117 142l24 -20l-117 -142z" />
    <glyph glyph-name="paragraph" unicode="&#xb6;" horiz-adv-x="584" 
d="M251 337q-66 0 -116 22.5t-77.5 64t-27.5 95.5t27.5 95.5t78 64t115.5 22.5h303v-36h-91v-894h-38v894h-136v-894h-38v566z" />
    <glyph glyph-name="periodcentered" unicode="&#xb7;" horiz-adv-x="151" 
d="M50 263q-10 10 -10 26q0 15 10 25t26 10t25.5 -10t9.5 -25t-10 -25.5t-25 -10.5q-16 0 -26 10z" />
    <glyph glyph-name="cedilla" unicode="&#xb8;" horiz-adv-x="227" 
d="M58 -192.5q-27 16.5 -38 41.5l27 17q7 -19 26 -31.5t41 -12.5q28 0 44 12.5t16 36.5t-18 36t-47 12h-35l10 83h32l-7 -52q44 0 71 -21.5t27 -59.5q0 -35 -26 -56.5t-65 -21.5q-31 0 -58 16.5z" />
    <glyph glyph-name="guillemotright" unicode="&#xbb;" horiz-adv-x="492" 
d="M31 10l194 241l-195 240l24 20l211 -260l-211 -261zM228 10l194 241l-195 240l24 20l211 -260l-211 -261z" />
    <glyph glyph-name="questiondown" unicode="&#xbf;" horiz-adv-x="483" 
d="M276.5 512q9.5 -10 9.5 -26q0 -15 -9.5 -25t-25.5 -10t-26 10t-10 25t10 25.5t26 10.5t25.5 -10zM259.5 266q-10.5 -32 -31.5 -55.5t-59 -48.5l-35 -23q-38 -27 -60.5 -61.5t-22.5 -84.5q0 -49 23 -87.5t62.5 -60t88.5 -21.5q85 0 135.5 53t60.5 141l40 -10
q-12 -101 -75 -162t-163 -61q-60 0 -108.5 26t-76.5 73.5t-28 107.5q0 59 26 100.5t74 73.5l34 23q49 34 67.5 65.5t18.5 92.5h40q0 -49 -10.5 -81z" />
    <glyph glyph-name="Agrave" unicode="&#xc0;" horiz-adv-x="627" 
d="M287 701h53l277 -701h-44l-71 183h-377l-71 -183h-44zM488 221l-173 440h-2l-174 -440h349zM212 897l24 20l99 -121l-24 -20z" />
    <glyph glyph-name="Aacute" unicode="&#xc1;" horiz-adv-x="627" 
d="M287 701h53l277 -701h-44l-71 183h-377l-71 -183h-44zM488 221l-173 440h-2l-174 -440h349zM296 796l98 121l25 -20l-99 -121z" />
    <glyph glyph-name="Acircumflex" unicode="&#xc2;" horiz-adv-x="627" 
d="M287 701h53l277 -701h-44l-71 183h-377l-71 -183h-44zM488 221l-173 440h-2l-174 -440h349zM169 808l120 104h49l120 -104l-21 -24l-124 107l-123 -107z" />
    <glyph glyph-name="Atilde" unicode="&#xc3;" horiz-adv-x="627" 
d="M287 701h53l277 -701h-44l-71 183h-377l-71 -183h-44zM488 221l-173 440h-2l-174 -440h349zM347.5 795.5q-18.5 15.5 -39.5 45.5q-18 26 -32 39.5t-33 13.5q-27 0 -43.5 -29.5t-16.5 -74.5h-29q0 58 25.5 95.5t66.5 37.5q28 0 45.5 -15.5t40.5 -46.5q18 -26 31 -39
t32 -13q28 0 45.5 30t17.5 75h29q0 -59 -26 -96.5t-67 -37.5q-28 0 -46.5 15.5z" />
    <glyph glyph-name="Adieresis" unicode="&#xc4;" horiz-adv-x="627" 
d="M287 701h53l277 -701h-44l-71 183h-377l-71 -183h-44zM488 221l-173 440h-2l-174 -440h349zM186 823q-10 10 -10 25t10 25t26 10q15 0 25 -10t10 -25t-10 -25t-25 -10q-16 0 -26 10zM392 823q-10 10 -10 25t10 25t25 10q16 0 26 -10t10 -25t-10 -25t-26 -10q-15 0 -25 10
z" />
    <glyph glyph-name="Aring" unicode="&#xc5;" horiz-adv-x="627" 
d="M287 701h53l277 -701h-44l-71 183h-377l-71 -183h-44zM488 221l-173 440h-2l-174 -440h349zM252 812.5q-25 24.5 -25 62.5t25 62.5t63 24.5q37 0 61 -24.5t24 -62.5t-24 -62.5t-61 -24.5q-38 0 -63 24.5zM354.5 834q15.5 16 15.5 41q0 26 -15.5 42t-40.5 16t-41.5 -16.5
t-16.5 -41.5t16.5 -41t41.5 -16t40.5 16z" />
    <glyph glyph-name="AE" unicode="&#xc6;" horiz-adv-x="836" 
d="M399 701h402v-39h-337v-287h297v-39h-297v-297h347v-39h-388v157h-288l-89 -157h-47zM423 195v465h-1l-266 -465h267z" />
    <glyph glyph-name="Ccedilla" unicode="&#xc7;" horiz-adv-x="752" 
d="M677 111.5q-43 -63.5 -111 -99t-154 -37.5l-3 -25q44 0 71 -21.5t27 -59.5q0 -35 -26 -56.5t-65 -21.5q-31 0 -58 16.5t-38 41.5l27 17q7 -19 26 -31.5t41 -12.5q28 0 44 12.5t16 36.5t-18 36t-47 12h-35l7 56q-105 4 -183.5 51.5t-120.5 131t-42 193.5q0 114 41.5 198.5
t119 130.5t182.5 46q74 0 135.5 -31t102 -88t53.5 -134l-40 -8q-18 101 -86.5 161.5t-164.5 60.5q-92 0 -160.5 -41.5t-105 -117.5t-36.5 -177q0 -102 40 -178.5t113.5 -117.5t172.5 -41q118 0 196 69t94 186l40 -9q-12 -85 -55 -148.5z" />
    <glyph glyph-name="Egrave" unicode="&#xc8;" horiz-adv-x="568" 
d="M60 701h473v-39h-432v-278h392v-39h-392v-306h442v-39h-483v701zM204 897l24 20l99 -121l-24 -20z" />
    <glyph glyph-name="Eacute" unicode="&#xc9;" horiz-adv-x="568" 
d="M60 701h473v-39h-432v-278h392v-39h-392v-306h442v-39h-483v701zM289 796l98 121l25 -20l-99 -121z" />
    <glyph glyph-name="Ecircumflex" unicode="&#xca;" horiz-adv-x="568" 
d="M60 701h473v-39h-432v-278h392v-39h-392v-306h442v-39h-483v701zM162 808l120 104h49l120 -104l-21 -24l-124 107l-123 -107z" />
    <glyph glyph-name="Edieresis" unicode="&#xcb;" horiz-adv-x="568" 
d="M60 701h473v-39h-432v-278h392v-39h-392v-306h442v-39h-483v701zM178 823q-10 10 -10 25t10 25t26 10q15 0 25 -10t10 -25t-10 -25t-25 -10q-16 0 -26 10zM384 823q-10 10 -10 25t10 25t25 10q16 0 26 -10t10 -25t-10 -25t-26 -10q-15 0 -25 10z" />
    <glyph glyph-name="Igrave" unicode="&#xcc;" horiz-adv-x="161" 
d="M15 904l27 13l59 -123l-27 -13zM60 701h41v-701h-41v701z" />
    <glyph glyph-name="Iacute" unicode="&#xcd;" horiz-adv-x="161" 
d="M61 794l59 123l27 -13l-60 -123zM60 701h41v-701h-41v701z" />
    <glyph glyph-name="Icircumflex" unicode="&#xce;" horiz-adv-x="161" 
d="M-10 799l66 113h49l67 -111l-27 -17l-64 107l-63 -107zM60 701h41v-701h-41v701z" />
    <glyph glyph-name="Idieresis" unicode="&#xcf;" horiz-adv-x="161" 
d="M1 823q-10 10 -10 25t10 25t25 10q16 0 26 -10t10 -25t-10 -25t-26 -10q-15 0 -25 10zM110 823q-10 10 -10 25t10 25t25 10q16 0 26 -10t10 -25t-10 -25t-26 -10q-15 0 -25 10zM60 701h41v-701h-41v701z" />
    <glyph glyph-name="Ntilde" unicode="&#xd1;" horiz-adv-x="640" 
d="M60 701h64l413 -657h2v657h41v-701h-63l-414 657h-2v-657h-41v701zM362.5 795.5q-18.5 15.5 -39.5 45.5q-18 26 -32 39.5t-33 13.5q-27 0 -43.5 -29.5t-16.5 -74.5h-29q0 58 25.5 95.5t66.5 37.5q28 0 45.5 -15.5t40.5 -46.5q18 -26 31 -39t32 -13q28 0 45.5 30t17.5 75
h29q0 -59 -26 -96.5t-67 -37.5q-28 0 -46.5 15.5z" />
    <glyph glyph-name="Ograve" unicode="&#xd2;" horiz-adv-x="814" 
d="M211.5 21.5q-84.5 46.5 -130.5 132t-46 197.5t46 197t130.5 131.5t195.5 46.5t195.5 -46.5t130.5 -131.5t46 -197t-46 -197.5t-130.5 -132t-195.5 -46.5t-195.5 46.5zM581 56q75 42 116 118t41 177q0 100 -41 176t-116 118t-174 42t-174 -42t-116 -118t-41 -176
t41 -176.5t116 -118.5t174 -42t174 42zM305 897l24 20l99 -121l-24 -20z" />
    <glyph glyph-name="Oacute" unicode="&#xd3;" horiz-adv-x="814" 
d="M211.5 21.5q-84.5 46.5 -130.5 132t-46 197.5t46 197t130.5 131.5t195.5 46.5t195.5 -46.5t130.5 -131.5t46 -197t-46 -197.5t-130.5 -132t-195.5 -46.5t-195.5 46.5zM581 56q75 42 116 118t41 177q0 100 -41 176t-116 118t-174 42t-174 -42t-116 -118t-41 -176
t41 -176.5t116 -118.5t174 -42t174 42zM390 796l98 121l25 -20l-99 -121z" />
    <glyph glyph-name="Ocircumflex" unicode="&#xd4;" horiz-adv-x="814" 
d="M211.5 21.5q-84.5 46.5 -130.5 132t-46 197.5t46 197t130.5 131.5t195.5 46.5t195.5 -46.5t130.5 -131.5t46 -197t-46 -197.5t-130.5 -132t-195.5 -46.5t-195.5 46.5zM581 56q75 42 116 118t41 177q0 100 -41 176t-116 118t-174 42t-174 -42t-116 -118t-41 -176
t41 -176.5t116 -118.5t174 -42t174 42zM263 808l120 104h49l120 -104l-21 -24l-124 107l-123 -107z" />
    <glyph glyph-name="Otilde" unicode="&#xd5;" horiz-adv-x="814" 
d="M211.5 21.5q-84.5 46.5 -130.5 132t-46 197.5t46 197t130.5 131.5t195.5 46.5t195.5 -46.5t130.5 -131.5t46 -197t-46 -197.5t-130.5 -132t-195.5 -46.5t-195.5 46.5zM581 56q75 42 116 118t41 177q0 100 -41 176t-116 118t-174 42t-174 -42t-116 -118t-41 -176
t41 -176.5t116 -118.5t174 -42t174 42zM441.5 795.5q-18.5 15.5 -39.5 45.5q-18 26 -32 39.5t-33 13.5q-27 0 -43.5 -29.5t-16.5 -74.5h-29q0 58 25.5 95.5t66.5 37.5q28 0 45.5 -15.5t40.5 -46.5q18 -26 31 -39t32 -13q28 0 45.5 30t17.5 75h29q0 -59 -26 -96.5t-67 -37.5
q-28 0 -46.5 15.5z" />
    <glyph glyph-name="Odieresis" unicode="&#xd6;" horiz-adv-x="814" 
d="M211.5 21.5q-84.5 46.5 -130.5 132t-46 197.5t46 197t130.5 131.5t195.5 46.5t195.5 -46.5t130.5 -131.5t46 -197t-46 -197.5t-130.5 -132t-195.5 -46.5t-195.5 46.5zM581 56q75 42 116 118t41 177q0 100 -41 176t-116 118t-174 42t-174 -42t-116 -118t-41 -176
t41 -176.5t116 -118.5t174 -42t174 42zM280 823q-10 10 -10 25t10 25t26 10q15 0 25 -10t10 -25t-10 -25t-25 -10q-16 0 -26 10zM486 823q-10 10 -10 25t10 25t25 10q16 0 26 -10t10 -25t-10 -25t-26 -10q-15 0 -25 10z" />
    <glyph glyph-name="multiply" unicode="&#xd7;" horiz-adv-x="369" 
d="M50 252l109 117l-109 118l27 25l107 -115l108 115l27 -25l-109 -118l109 -117l-27 -26l-108 116l-107 -116z" />
    <glyph glyph-name="Oslash" unicode="&#xd8;" horiz-adv-x="814" 
d="M715.5 576.5q63.5 -93.5 63.5 -225.5q0 -112 -46 -197.5t-130.5 -132t-195.5 -46.5q-51 0 -100 11l-38 -118l-30 10l37 116q-113 36 -177 130t-64 227q0 112 46 197t130.5 131.5t195.5 46.5q52 0 102 -11l34 105l31 -10l-34 -104q112 -36 175.5 -129.5zM132.5 148.5
q56.5 -84.5 156.5 -116.5l208 645q-40 10 -90 10q-99 0 -174 -42t-116 -118t-41 -176q0 -118 56.5 -202.5zM581 56q75 42 116 118t41 177q0 118 -56 201.5t-154 115.5l-209 -645q42 -9 88 -9q99 0 174 42z" />
    <glyph glyph-name="Ugrave" unicode="&#xd9;" horiz-adv-x="639" 
d="M121.5 46.5q-71.5 71.5 -71.5 198.5v456h41v-456q0 -109 60 -170t169 -61t168.5 60.5t59.5 170.5v456h41v-456q0 -127 -71 -198.5t-198 -71.5t-198.5 71.5zM218 897l24 20l99 -121l-24 -20z" />
    <glyph glyph-name="Uacute" unicode="&#xda;" horiz-adv-x="639" 
d="M121.5 46.5q-71.5 71.5 -71.5 198.5v456h41v-456q0 -109 60 -170t169 -61t168.5 60.5t59.5 170.5v456h41v-456q0 -127 -71 -198.5t-198 -71.5t-198.5 71.5zM303 796l98 121l25 -20l-99 -121z" />
    <glyph glyph-name="Ucircumflex" unicode="&#xdb;" horiz-adv-x="639" 
d="M121.5 46.5q-71.5 71.5 -71.5 198.5v456h41v-456q0 -109 60 -170t169 -61t168.5 60.5t59.5 170.5v456h41v-456q0 -127 -71 -198.5t-198 -71.5t-198.5 71.5zM175 808l120 104h49l120 -104l-21 -24l-124 107l-123 -107z" />
    <glyph glyph-name="Udieresis" unicode="&#xdc;" horiz-adv-x="639" 
d="M121.5 46.5q-71.5 71.5 -71.5 198.5v456h41v-456q0 -109 60 -170t169 -61t168.5 60.5t59.5 170.5v456h41v-456q0 -127 -71 -198.5t-198 -71.5t-198.5 71.5zM192 823q-10 10 -10 25t10 25t26 10q15 0 25 -10t10 -25t-10 -25t-25 -10q-16 0 -26 10zM398 823q-10 10 -10 25
t10 25t25 10q16 0 26 -10t10 -25t-10 -25t-26 -10q-15 0 -25 10z" />
    <glyph glyph-name="Yacute" unicode="&#xdd;" horiz-adv-x="550" 
d="M255 284l-245 417h47l218 -374h1l217 374h47l-244 -417v-284h-41v284zM253 796l98 121l25 -20l-99 -121z" />
    <glyph glyph-name="germandbls" unicode="&#xdf;" horiz-adv-x="517" 
d="M463 197q24 -33 24 -75q0 -61 -40.5 -97t-107.5 -36q-80 0 -129.5 49.5t-51.5 131.5l42 9q0 -70 38 -111.5t101 -41.5q49 0 78.5 26t29.5 69q0 30 -19 55t-60 49l-76 44q-47 27 -68 53t-21 57q0 50 47.5 82.5t128.5 40.5q13 31 13 70q0 60 -37.5 96t-96.5 36
q-77 0 -122 -50.5t-45 -134.5v-519h-41v520q0 102 56 162.5t153 60.5q76 0 125 -46.5t49 -125.5q0 -29 -6.5 -56.5t-17.5 -45.5q-78 -3 -122 -27t-44 -61q0 -21 17 -39.5t55 -40.5l71 -41q53 -30 77 -63z" />
    <glyph glyph-name="agrave" unicode="&#xe0;" horiz-adv-x="590" 
d="M70.5 17q-50.5 37 -50.5 100t56.5 105t196.5 62l131 18q27 3 27 27q0 79 -46.5 117.5t-123.5 38.5q-52 0 -94 -21t-66.5 -56t-24.5 -75l-39 15q3 47 33.5 87.5t80.5 64.5t109 24q95 0 152.5 -50.5t57.5 -146.5v-262q0 -21 11 -33.5t29 -12.5q14 0 29 9t25 25l26 -26
q-14 -21 -37 -34t-47 -13q-34 0 -54.5 22t-21.5 58v60h-1q-25 -65 -84.5 -102.5t-138.5 -37.5q-85 0 -135.5 37zM322.5 45q50.5 27 79 76t28.5 114v33l-153 -22q-124 -17 -170.5 -49t-46.5 -80q0 -45 40.5 -72t108.5 -27q63 0 113.5 27zM127 738l25 20l116 -142l-23 -20z
" />
    <glyph glyph-name="aacute" unicode="&#xe1;" horiz-adv-x="590" 
d="M70.5 17q-50.5 37 -50.5 100t56.5 105t196.5 62l131 18q27 3 27 27q0 79 -46.5 117.5t-123.5 38.5q-52 0 -94 -21t-66.5 -56t-24.5 -75l-39 15q3 47 33.5 87.5t80.5 64.5t109 24q95 0 152.5 -50.5t57.5 -146.5v-262q0 -21 11 -33.5t29 -12.5q14 0 29 9t25 25l26 -26
q-14 -21 -37 -34t-47 -13q-34 0 -54.5 22t-21.5 58v60h-1q-25 -65 -84.5 -102.5t-138.5 -37.5q-85 0 -135.5 37zM322.5 45q50.5 27 79 76t28.5 114v33l-153 -22q-124 -17 -170.5 -49t-46.5 -80q0 -45 40.5 -72t108.5 -27q63 0 113.5 27zM248 616l117 142l24 -20l-117 -142z
" />
    <glyph glyph-name="acircumflex" unicode="&#xe2;" horiz-adv-x="590" 
d="M70.5 17q-50.5 37 -50.5 100t56.5 105t196.5 62l131 18q27 3 27 27q0 79 -46.5 117.5t-123.5 38.5q-52 0 -94 -21t-66.5 -56t-24.5 -75l-39 15q3 47 33.5 87.5t80.5 64.5t109 24q95 0 152.5 -50.5t57.5 -146.5v-262q0 -21 11 -33.5t29 -12.5q14 0 29 9t25 25l26 -26
q-14 -21 -37 -34t-47 -13q-34 0 -54.5 22t-21.5 58v60h-1q-25 -65 -84.5 -102.5t-138.5 -37.5q-85 0 -135.5 37zM322.5 45q50.5 27 79 76t28.5 114v33l-153 -22q-124 -17 -170.5 -49t-46.5 -80q0 -45 40.5 -72t108.5 -27q63 0 113.5 27zM90 618l146 124h49l146 -124l-21 -24
l-150 127l-149 -127z" />
    <glyph glyph-name="atilde" unicode="&#xe3;" horiz-adv-x="590" 
d="M70.5 17q-50.5 37 -50.5 100t56.5 105t196.5 62l131 18q27 3 27 27q0 79 -46.5 117.5t-123.5 38.5q-52 0 -94 -21t-66.5 -56t-24.5 -75l-39 15q3 47 33.5 87.5t80.5 64.5t109 24q95 0 152.5 -50.5t57.5 -146.5v-262q0 -21 11 -33.5t29 -12.5q14 0 29 9t25 25l26 -26
q-14 -21 -37 -34t-47 -13q-34 0 -54.5 22t-21.5 58v60h-1q-25 -65 -84.5 -102.5t-138.5 -37.5q-85 0 -135.5 37zM322.5 45q50.5 27 79 76t28.5 114v33l-153 -22q-124 -17 -170.5 -49t-46.5 -80q0 -45 40.5 -72t108.5 -27q63 0 113.5 27zM291 605q-18 15 -39 44
q-19 28 -33 41.5t-34 13.5q-27 0 -43.5 -29.5t-16.5 -74.5h-29q0 58 25.5 95.5t66.5 37.5q29 0 47 -16.5t40 -48.5q20 -27 32 -38t30 -11q28 0 45.5 30t17.5 75h29q0 -59 -26 -96.5t-67 -37.5q-27 0 -45 15z" />
    <glyph glyph-name="adieresis" unicode="&#xe4;" horiz-adv-x="590" 
d="M70.5 17q-50.5 37 -50.5 100t56.5 105t196.5 62l131 18q27 3 27 27q0 79 -46.5 117.5t-123.5 38.5q-52 0 -94 -21t-66.5 -56t-24.5 -75l-39 15q3 47 33.5 87.5t80.5 64.5t109 24q95 0 152.5 -50.5t57.5 -146.5v-262q0 -21 11 -33.5t29 -12.5q14 0 29 9t25 25l26 -26
q-14 -21 -37 -34t-47 -13q-34 0 -54.5 22t-21.5 58v60h-1q-25 -65 -84.5 -102.5t-138.5 -37.5q-85 0 -135.5 37zM322.5 45q50.5 27 79 76t28.5 114v33l-153 -22q-124 -17 -170.5 -49t-46.5 -80q0 -45 40.5 -72t108.5 -27q63 0 113.5 27zM131 618.5q-10 9.5 -10 25.5t10 25.5
t26 9.5t25.5 -9.5t9.5 -25.5t-9.5 -25.5t-25.5 -9.5t-26 9.5zM336.5 618.5q-9.5 9.5 -9.5 25.5t9.5 25.5t25.5 9.5t26 -9.5t10 -25.5t-10 -25.5t-26 -9.5t-25.5 9.5z" />
    <glyph glyph-name="aring" unicode="&#xe5;" horiz-adv-x="590" 
d="M70.5 17q-50.5 37 -50.5 100t56.5 105t196.5 62l131 18q27 3 27 27q0 79 -46.5 117.5t-123.5 38.5q-52 0 -94 -21t-66.5 -56t-24.5 -75l-39 15q3 47 33.5 87.5t80.5 64.5t109 24q95 0 152.5 -50.5t57.5 -146.5v-262q0 -21 11 -33.5t29 -12.5q14 0 29 9t25 25l26 -26
q-14 -21 -37 -34t-47 -13q-34 0 -54.5 22t-21.5 58v60h-1q-25 -65 -84.5 -102.5t-138.5 -37.5q-85 0 -135.5 37zM322.5 45q50.5 27 79 76t28.5 114v33l-153 -22q-124 -17 -170.5 -49t-46.5 -80q0 -45 40.5 -72t108.5 -27q63 0 113.5 27zM198 622.5q-25 24.5 -25 62.5
t25 62.5t63 24.5q37 0 61 -24.5t24 -62.5t-24 -62.5t-61 -24.5q-38 0 -63 24.5zM300.5 644q15.5 16 15.5 41q0 26 -15.5 42t-40.5 16t-41.5 -16.5t-16.5 -41.5t16.5 -41t41.5 -16t40.5 16z" />
    <glyph glyph-name="ae" unicode="&#xe6;" horiz-adv-x="913" 
d="M118.5 -1.5q-46.5 18.5 -72.5 51t-26 73.5q0 57 49 99t128 52l203 24q14 2 22 9t8 18q0 81 -45 119.5t-119 38.5q-76 0 -123.5 -36t-48.5 -91l-38 14q3 43 30.5 77.5t73.5 54t104 19.5q75 0 127.5 -35t69.5 -103q26 63 76.5 100.5t111.5 37.5q63 0 112.5 -33.5t77.5 -93
t28 -134.5q0 -20 -1 -31h-392q9 -95 63 -153t136 -58q58 0 107.5 32t76.5 83l35 -17q-31 -61 -90 -98.5t-129 -37.5q-79 0 -137.5 46.5t-80.5 126.5q-8 -49 -40.5 -88.5t-82.5 -62t-108 -22.5q-59 0 -105.5 18.5zM826 267q0 61 -24 110.5t-65 77.5t-91 28q-49 0 -88 -28.5
t-62 -78t-24 -109.5h354zM330 43q47 25 73.5 68.5t26.5 98.5v54l-232 -27q-60 -8 -99 -39.5t-39 -73.5q0 -46 46 -76t118 -30q59 0 106 25z" />
    <glyph glyph-name="ccedilla" unicode="&#xe7;" horiz-adv-x="566" 
d="M463 39q-66 -55 -159 -59l-4 -30q44 0 71 -21.5t27 -59.5q0 -35 -26 -56.5t-65 -21.5q-31 0 -58 16.5t-38 41.5l27 17q7 -19 26 -31.5t41 -12.5q28 0 44 12.5t16 36.5t-18 36t-47 12h-35l7 62q-73 4 -127.5 38.5t-84.5 94t-30 137.5q0 81 31 142t87.5 94.5t131.5 33.5
q84 0 145 -49.5t80 -132.5l-39 -8q-16 70 -67 111t-119 41q-63 0 -110.5 -28.5t-73.5 -81t-26 -122.5t27.5 -123t78 -81.5t116.5 -28.5q83 0 141.5 47t73.5 127l39 -10q-17 -88 -83 -143z" />
    <glyph glyph-name="egrave" unicode="&#xe8;" horiz-adv-x="565" 
d="M164 15q-63 35 -98.5 97t-35.5 140q0 77 32.5 138.5t90 96t129.5 34.5q69 0 123 -34.5t84.5 -95.5t33.5 -139v-15h-453q3 -63 34 -113t84 -78t119 -28q64 0 119.5 32t82.5 83l35 -17q-30 -60 -95.5 -98t-142.5 -38q-79 0 -142 35zM482 275q-4 61 -30.5 108.5t-70.5 73.5
t-99 26q-58 0 -104 -26.5t-74.5 -74t-32.5 -107.5h411zM148 738l25 20l116 -142l-23 -20z" />
    <glyph glyph-name="eacute" unicode="&#xe9;" horiz-adv-x="565" 
d="M164 15q-63 35 -98.5 97t-35.5 140q0 77 32.5 138.5t90 96t129.5 34.5q69 0 123 -34.5t84.5 -95.5t33.5 -139v-15h-453q3 -63 34 -113t84 -78t119 -28q64 0 119.5 32t82.5 83l35 -17q-30 -60 -95.5 -98t-142.5 -38q-79 0 -142 35zM482 275q-4 61 -30.5 108.5t-70.5 73.5
t-99 26q-58 0 -104 -26.5t-74.5 -74t-32.5 -107.5h411zM269 616l117 142l24 -20l-117 -142z" />
    <glyph glyph-name="ecircumflex" unicode="&#xea;" horiz-adv-x="565" 
d="M164 15q-63 35 -98.5 97t-35.5 140q0 77 32.5 138.5t90 96t129.5 34.5q69 0 123 -34.5t84.5 -95.5t33.5 -139v-15h-453q3 -63 34 -113t84 -78t119 -28q64 0 119.5 32t82.5 83l35 -17q-30 -60 -95.5 -98t-142.5 -38q-79 0 -142 35zM482 275q-4 61 -30.5 108.5t-70.5 73.5
t-99 26q-58 0 -104 -26.5t-74.5 -74t-32.5 -107.5h411zM111 618l146 124h49l146 -124l-21 -24l-150 127l-149 -127z" />
    <glyph glyph-name="edieresis" unicode="&#xeb;" horiz-adv-x="565" 
d="M164 15q-63 35 -98.5 97t-35.5 140q0 77 32.5 138.5t90 96t129.5 34.5q69 0 123 -34.5t84.5 -95.5t33.5 -139v-15h-453q3 -63 34 -113t84 -78t119 -28q64 0 119.5 32t82.5 83l35 -17q-30 -60 -95.5 -98t-142.5 -38q-79 0 -142 35zM482 275q-4 61 -30.5 108.5t-70.5 73.5
t-99 26q-58 0 -104 -26.5t-74.5 -74t-32.5 -107.5h411zM152 618.5q-10 9.5 -10 25.5t10 25.5t26 9.5t25.5 -9.5t9.5 -25.5t-9.5 -25.5t-25.5 -9.5t-26 9.5zM357.5 618.5q-9.5 9.5 -9.5 25.5t9.5 25.5t25.5 9.5t26 -9.5t10 -25.5t-10 -25.5t-26 -9.5t-25.5 9.5z" />
    <glyph glyph-name="igrave" unicode="&#xec;" horiz-adv-x="140" 
d="M-9 743l28 15l71 -144l-28 -14zM50 501h40v-501h-40v501z" />
    <glyph glyph-name="iacute" unicode="&#xed;" horiz-adv-x="140" 
d="M50 614l71 144l28 -15l-71 -143zM50 501h40v-501h-40v501z" />
    <glyph glyph-name="icircumflex" unicode="&#xee;" horiz-adv-x="140" 
d="M-32 609l77 133h49l78 -131l-27 -17l-75 127l-74 -127zM50 501h40v-501h-40v501z" />
    <glyph glyph-name="idieresis" unicode="&#xef;" horiz-adv-x="140" 
d="M-10 618.5q-10 9.5 -10 25.5t10 25.5t26 9.5t25.5 -9.5t9.5 -25.5t-9.5 -25.5t-25.5 -9.5t-26 9.5zM98.5 618.5q-9.5 9.5 -9.5 25.5t9.5 25.5t25.5 9.5t26 -9.5t10 -25.5t-10 -25.5t-26 -9.5t-25.5 9.5zM50 501h40v-501h-40v501z" />
    <glyph glyph-name="ntilde" unicode="&#xf1;" 
d="M436 470q50 -51 50 -141v-329h-40v328q0 73 -41 114t-114 41q-92 0 -146.5 -53t-54.5 -141v-289h-40v501h38l2 -95h1q26 54 80 84.5t126 30.5q89 0 139 -51zM309 605q-18 15 -39 44q-19 28 -33 41.5t-34 13.5q-27 0 -43.5 -29.5t-16.5 -74.5h-29q0 58 25.5 95.5
t66.5 37.5q29 0 47 -16.5t40 -48.5q20 -27 32 -38t30 -11q28 0 45.5 30t17.5 75h29q0 -59 -26 -96.5t-67 -37.5q-27 0 -45 15z" />
    <glyph glyph-name="ograve" unicode="&#xf2;" horiz-adv-x="584" 
d="M154.5 13.5q-59.5 33.5 -92 95t-32.5 142.5t32.5 142t92 94.5t137.5 33.5t137.5 -33.5t92 -94.5t32.5 -142t-32.5 -142.5t-92 -95t-137.5 -33.5t-137.5 33.5zM408.5 47q50.5 29 78 81.5t27.5 122.5q0 69 -27.5 121.5t-78 81.5t-116.5 29t-116.5 -29t-78 -81.5
t-27.5 -121.5q0 -70 27.5 -122.5t78 -81.5t116.5 -29t116.5 29zM159 738l25 20l116 -142l-23 -20z" />
    <glyph glyph-name="oacute" unicode="&#xf3;" horiz-adv-x="584" 
d="M154.5 13.5q-59.5 33.5 -92 95t-32.5 142.5t32.5 142t92 94.5t137.5 33.5t137.5 -33.5t92 -94.5t32.5 -142t-32.5 -142.5t-92 -95t-137.5 -33.5t-137.5 33.5zM408.5 47q50.5 29 78 81.5t27.5 122.5q0 69 -27.5 121.5t-78 81.5t-116.5 29t-116.5 -29t-78 -81.5
t-27.5 -121.5q0 -70 27.5 -122.5t78 -81.5t116.5 -29t116.5 29zM281 616l117 142l24 -20l-117 -142z" />
    <glyph glyph-name="ocircumflex" unicode="&#xf4;" horiz-adv-x="584" 
d="M154.5 13.5q-59.5 33.5 -92 95t-32.5 142.5t32.5 142t92 94.5t137.5 33.5t137.5 -33.5t92 -94.5t32.5 -142t-32.5 -142.5t-92 -95t-137.5 -33.5t-137.5 33.5zM408.5 47q50.5 29 78 81.5t27.5 122.5q0 69 -27.5 121.5t-78 81.5t-116.5 29t-116.5 -29t-78 -81.5
t-27.5 -121.5q0 -70 27.5 -122.5t78 -81.5t116.5 -29t116.5 29zM123 618l146 124h49l146 -124l-21 -24l-150 127l-149 -127z" />
    <glyph glyph-name="otilde" unicode="&#xf5;" horiz-adv-x="584" 
d="M154.5 13.5q-59.5 33.5 -92 95t-32.5 142.5t32.5 142t92 94.5t137.5 33.5t137.5 -33.5t92 -94.5t32.5 -142t-32.5 -142.5t-92 -95t-137.5 -33.5t-137.5 33.5zM408.5 47q50.5 29 78 81.5t27.5 122.5q0 69 -27.5 121.5t-78 81.5t-116.5 29t-116.5 -29t-78 -81.5
t-27.5 -121.5q0 -70 27.5 -122.5t78 -81.5t116.5 -29t116.5 29zM324 605q-18 15 -39 44q-19 28 -33 41.5t-34 13.5q-27 0 -43.5 -29.5t-16.5 -74.5h-29q0 58 25.5 95.5t66.5 37.5q29 0 47 -16.5t40 -48.5q20 -27 32 -38t30 -11q28 0 45.5 30t17.5 75h29q0 -59 -26 -96.5
t-67 -37.5q-27 0 -45 15z" />
    <glyph glyph-name="odieresis" unicode="&#xf6;" horiz-adv-x="584" 
d="M154.5 13.5q-59.5 33.5 -92 95t-32.5 142.5t32.5 142t92 94.5t137.5 33.5t137.5 -33.5t92 -94.5t32.5 -142t-32.5 -142.5t-92 -95t-137.5 -33.5t-137.5 33.5zM408.5 47q50.5 29 78 81.5t27.5 122.5q0 69 -27.5 121.5t-78 81.5t-116.5 29t-116.5 -29t-78 -81.5
t-27.5 -121.5q0 -70 27.5 -122.5t78 -81.5t116.5 -29t116.5 29zM164 618.5q-10 9.5 -10 25.5t10 25.5t26 9.5t25.5 -9.5t9.5 -25.5t-9.5 -25.5t-25.5 -9.5t-26 9.5zM369.5 618.5q-9.5 9.5 -9.5 25.5t9.5 25.5t25.5 9.5t26 -9.5t10 -25.5t-10 -25.5t-26 -9.5t-25.5 9.5z" />
    <glyph glyph-name="divide" unicode="&#xf7;" horiz-adv-x="550" 
d="M249.5 509q-9.5 10 -9.5 26t9.5 25.5t25.5 9.5t26 -9.5t10 -25.5t-10 -26t-26 -10t-25.5 10zM50 380h450v-32h-450v32zM249.5 167.5q-9.5 9.5 -9.5 25.5t9.5 26t25.5 10t26 -10t10 -26t-10 -25.5t-26 -9.5t-25.5 9.5z" />
    <glyph glyph-name="oslash" unicode="&#xf8;" horiz-adv-x="584" 
d="M512 409q42 -66 42 -158q0 -81 -32.5 -142.5t-92 -95t-137.5 -33.5q-34 0 -64 6l-73 -226l-30 9l73 225q-79 27 -123.5 94t-44.5 163q0 81 32.5 142t92 94.5t137.5 33.5q36 0 73 -8l64 199l31 -10l-64 -199q74 -28 116 -94zM107 111.5q37 -57.5 103 -80.5l143 445
q-27 7 -61 7q-66 0 -116.5 -29t-78 -81.5t-27.5 -121.5q0 -82 37 -139.5zM408.5 47q50.5 29 78 81.5t27.5 122.5q0 78 -34.5 134.5t-95.5 80.5l-144 -443q28 -5 52 -5q66 0 116.5 29z" />
    <glyph glyph-name="ugrave" unicode="&#xf9;" 
d="M95.5 31q-50.5 51 -50.5 141v329h40v-327q0 -73 41 -114.5t114 -41.5q92 0 146.5 53t54.5 141v289h40v-501h-38l-2 95h-1q-26 -54 -79.5 -84.5t-125.5 -30.5q-89 0 -139.5 51zM129 738l25 20l116 -142l-23 -20z" />
    <glyph glyph-name="uacute" unicode="&#xfa;" 
d="M95.5 31q-50.5 51 -50.5 141v329h40v-327q0 -73 41 -114.5t114 -41.5q92 0 146.5 53t54.5 141v289h40v-501h-38l-2 95h-1q-26 -54 -79.5 -84.5t-125.5 -30.5q-89 0 -139.5 51zM251 616l117 142l24 -20l-117 -142z" />
    <glyph glyph-name="ucircumflex" unicode="&#xfb;" 
d="M95.5 31q-50.5 51 -50.5 141v329h40v-327q0 -73 41 -114.5t114 -41.5q92 0 146.5 53t54.5 141v289h40v-501h-38l-2 95h-1q-26 -54 -79.5 -84.5t-125.5 -30.5q-89 0 -139.5 51zM93 618l146 124h49l146 -124l-21 -24l-150 127l-149 -127z" />
    <glyph glyph-name="udieresis" unicode="&#xfc;" 
d="M95.5 31q-50.5 51 -50.5 141v329h40v-327q0 -73 41 -114.5t114 -41.5q92 0 146.5 53t54.5 141v289h40v-501h-38l-2 95h-1q-26 -54 -79.5 -84.5t-125.5 -30.5q-89 0 -139.5 51zM134 618.5q-10 9.5 -10 25.5t10 25.5t26 9.5t25.5 -9.5t9.5 -25.5t-9.5 -25.5t-25.5 -9.5
t-26 9.5zM339.5 618.5q-9.5 9.5 -9.5 25.5t9.5 25.5t25.5 9.5t26 -9.5t10 -25.5t-10 -25.5t-26 -9.5t-25.5 9.5z" />
    <glyph glyph-name="yacute" unicode="&#xfd;" horiz-adv-x="523" 
d="M76 -193q-69 37 -96 93l32 26q24 -50 84 -84t137 -34q91 0 145.5 54t54.5 148v75h-1q-24 -57 -77 -91t-116 -34q-59 0 -105 29.5t-71.5 81.5t-25.5 118v312h40v-312q0 -85 45 -138t119 -53q51 0 95 26t70.5 72.5t26.5 104.5v300h40v-491q0 -74 -29.5 -128t-84 -83
t-126.5 -29q-88 0 -157 37zM244 616l117 142l24 -20l-117 -142z" />
    <glyph glyph-name="ydieresis" unicode="&#xff;" horiz-adv-x="523" 
d="M76 -193q-69 37 -96 93l32 26q24 -50 84 -84t137 -34q91 0 145.5 54t54.5 148v75h-1q-24 -57 -77 -91t-116 -34q-59 0 -105 29.5t-71.5 81.5t-25.5 118v312h40v-312q0 -85 45 -138t119 -53q51 0 95 26t70.5 72.5t26.5 104.5v300h40v-491q0 -74 -29.5 -128t-84 -83
t-126.5 -29q-88 0 -157 37zM127 618.5q-10 9.5 -10 25.5t10 25.5t26 9.5t25.5 -9.5t9.5 -25.5t-9.5 -25.5t-25.5 -9.5t-26 9.5zM332.5 618.5q-9.5 9.5 -9.5 25.5t9.5 25.5t25.5 9.5t26 -9.5t10 -25.5t-10 -25.5t-26 -9.5t-25.5 9.5z" />
    <glyph glyph-name="Amacron" unicode="&#x100;" horiz-adv-x="627" 
d="M287 701h53l277 -701h-44l-71 183h-377l-71 -183h-44zM488 221l-173 440h-2l-174 -440h349zM173 823h281v-31h-281v31z" />
    <glyph glyph-name="amacron" unicode="&#x101;" horiz-adv-x="590" 
d="M70.5 17q-50.5 37 -50.5 100t56.5 105t196.5 62l131 18q27 3 27 27q0 79 -46.5 117.5t-123.5 38.5q-52 0 -94 -21t-66.5 -56t-24.5 -75l-39 15q3 47 33.5 87.5t80.5 64.5t109 24q95 0 152.5 -50.5t57.5 -146.5v-262q0 -21 11 -33.5t29 -12.5q14 0 29 9t25 25l26 -26
q-14 -21 -37 -34t-47 -13q-34 0 -54.5 22t-21.5 58v60h-1q-25 -65 -84.5 -102.5t-138.5 -37.5q-85 0 -135.5 37zM322.5 45q50.5 27 79 76t28.5 114v33l-153 -22q-124 -17 -170.5 -49t-46.5 -80q0 -45 40.5 -72t108.5 -27q63 0 113.5 27zM119 623h281v-31h-281v31z" />
    <glyph glyph-name="Abreve" unicode="&#x102;" horiz-adv-x="627" 
d="M287 701h53l277 -701h-44l-71 183h-377l-71 -183h-44zM488 221l-173 440h-2l-174 -440h349zM212.5 824.5q-39.5 34.5 -39.5 87.5h32q0 -39 30.5 -64.5t77.5 -25.5t78 25.5t31 64.5h31q0 -53 -39.5 -87.5t-100.5 -34.5t-100.5 34.5z" />
    <glyph glyph-name="abreve" unicode="&#x103;" horiz-adv-x="590" 
d="M70.5 17q-50.5 37 -50.5 100t56.5 105t196.5 62l131 18q27 3 27 27q0 79 -46.5 117.5t-123.5 38.5q-52 0 -94 -21t-66.5 -56t-24.5 -75l-39 15q3 47 33.5 87.5t80.5 64.5t109 24q95 0 152.5 -50.5t57.5 -146.5v-262q0 -21 11 -33.5t29 -12.5q14 0 29 9t25 25l26 -26
q-14 -21 -37 -34t-47 -13q-34 0 -54.5 22t-21.5 58v60h-1q-25 -65 -84.5 -102.5t-138.5 -37.5q-85 0 -135.5 37zM322.5 45q50.5 27 79 76t28.5 114v33l-153 -22q-124 -17 -170.5 -49t-46.5 -80q0 -45 40.5 -72t108.5 -27q63 0 113.5 27zM177.5 616.5q-36.5 18.5 -58 51.5
t-21.5 74h32q1 -49 37.5 -80.5t92.5 -31.5q57 0 94 31.5t36 80.5h31q0 -41 -20.5 -74t-57.5 -51.5t-83 -18.5t-82.5 18.5z" />
    <glyph glyph-name="Aogonek" unicode="&#x104;" horiz-adv-x="627" 
d="M525.5 -53.5q-30.5 -19.5 -49 -40.5t-18.5 -44q0 -18 10.5 -29t29.5 -11q20 0 39.5 14t32.5 37l18 -26q-15 -25 -40 -40.5t-51 -15.5q-33 0 -52.5 19t-19.5 50q0 39 35.5 72.5t109.5 74.5l-68 176h-377l-71 -183h-44l277 701h53l277 -701h-1q-60 -34 -90.5 -53.5z
M488 221l-173 440h-2l-174 -440h349z" />
    <glyph glyph-name="aogonek" unicode="&#x105;" horiz-adv-x="590" 
d="M435 -81q-31 -26 -31 -56q0 -19 10.5 -30t29.5 -11q20 0 39.5 14t32.5 37l18 -26q-15 -25 -40 -40.5t-51 -15.5q-33 0 -52.5 19t-19.5 51q0 34 26.5 63t80.5 61q-22 7 -34.5 27t-13.5 48v60h-1q-25 -65 -84.5 -102.5t-138.5 -37.5q-85 0 -135.5 37t-50.5 100t56.5 105
t196.5 62l131 18q27 3 27 27q0 79 -46.5 117.5t-123.5 38.5q-52 0 -94 -21t-66.5 -56t-24.5 -75l-39 15q3 47 33.5 87.5t80.5 64.5t109 24q95 0 152.5 -50.5t57.5 -146.5v-262q0 -21 11 -33.5t29 -12.5q14 0 29 9t25 25l26 -26q-20 -29 -54 -42q-70 -40 -101 -66zM430 268
l-153 -22q-124 -17 -170.5 -49t-46.5 -80q0 -45 40.5 -72t108.5 -27q63 0 113.5 27t79 76t28.5 114v33z" />
    <glyph glyph-name="Cacute" unicode="&#x106;" horiz-adv-x="752" 
d="M208 21q-83 46 -128 131t-45 199t41.5 198.5t119 130.5t182.5 46q74 0 135.5 -31t102 -88t53.5 -134l-40 -8q-18 101 -86.5 161.5t-164.5 60.5q-92 0 -160.5 -41.5t-105 -117.5t-36.5 -177q0 -102 40 -178.5t113.5 -117.5t172.5 -41q118 0 196 69t94 186l40 -9
q-12 -86 -56.5 -150.5t-115 -99.5t-158.5 -35q-111 0 -194 46zM361 796l98 121l25 -20l-99 -121z" />
    <glyph glyph-name="cacute" unicode="&#x107;" horiz-adv-x="566" 
d="M154 13.5q-59 33.5 -91.5 95t-32.5 142.5t31 142t87.5 94.5t131.5 33.5q84 0 145 -49.5t80 -132.5l-39 -8q-16 70 -67 111t-119 41q-63 0 -110.5 -28.5t-73.5 -81t-26 -122.5t27.5 -123t78 -81.5t116.5 -28.5q83 0 141.5 47t73.5 127l39 -10q-18 -92 -87.5 -147
t-166.5 -55q-79 0 -138 33.5zM268 616l117 142l24 -20l-117 -142z" />
    <glyph glyph-name="Ccircumflex" unicode="&#x108;" horiz-adv-x="752" 
d="M208 21q-83 46 -128 131t-45 199t41.5 198.5t119 130.5t182.5 46q74 0 135.5 -31t102 -88t53.5 -134l-40 -8q-18 101 -86.5 161.5t-164.5 60.5q-92 0 -160.5 -41.5t-105 -117.5t-36.5 -177q0 -102 40 -178.5t113.5 -117.5t172.5 -41q118 0 196 69t94 186l40 -9
q-12 -86 -56.5 -150.5t-115 -99.5t-158.5 -35q-111 0 -194 46zM233 808l120 104h49l120 -104l-21 -24l-124 107l-123 -107z" />
    <glyph glyph-name="ccircumflex" unicode="&#x109;" horiz-adv-x="566" 
d="M154 13.5q-59 33.5 -91.5 95t-32.5 142.5t31 142t87.5 94.5t131.5 33.5q84 0 145 -49.5t80 -132.5l-39 -8q-16 70 -67 111t-119 41q-63 0 -110.5 -28.5t-73.5 -81t-26 -122.5t27.5 -123t78 -81.5t116.5 -28.5q83 0 141.5 47t73.5 127l39 -10q-18 -92 -87.5 -147
t-166.5 -55q-79 0 -138 33.5zM110 618l146 124h49l146 -124l-21 -24l-150 127l-149 -127z" />
    <glyph glyph-name="Cdotaccent" unicode="&#x10a;" horiz-adv-x="752" 
d="M208 21q-83 46 -128 131t-45 199t41.5 198.5t119 130.5t182.5 46q74 0 135.5 -31t102 -88t53.5 -134l-40 -8q-18 101 -86.5 161.5t-164.5 60.5q-92 0 -160.5 -41.5t-105 -117.5t-36.5 -177q0 -102 40 -178.5t113.5 -117.5t172.5 -41q118 0 196 69t94 186l40 -9
q-12 -86 -56.5 -150.5t-115 -99.5t-158.5 -35q-111 0 -194 46zM353 823q-10 10 -10 25q0 16 10 25.5t26 9.5q15 0 25 -9.5t10 -25.5q0 -15 -10 -25t-25 -10q-16 0 -26 10z" />
    <glyph glyph-name="cdotaccent" unicode="&#x10b;" horiz-adv-x="566" 
d="M154 13.5q-59 33.5 -91.5 95t-32.5 142.5t31 142t87.5 94.5t131.5 33.5q84 0 145 -49.5t80 -132.5l-39 -8q-16 70 -67 111t-119 41q-63 0 -110.5 -28.5t-73.5 -81t-26 -122.5t27.5 -123t78 -81.5t116.5 -28.5q83 0 141.5 47t73.5 127l39 -10q-18 -92 -87.5 -147
t-166.5 -55q-79 0 -138 33.5zM255 619q-10 10 -10 25q0 16 10 25.5t26 9.5q15 0 25 -9.5t10 -25.5q0 -15 -10 -25t-25 -10q-16 0 -26 10z" />
    <glyph glyph-name="Ccaron" unicode="&#x10c;" horiz-adv-x="752" 
d="M208 21q-83 46 -128 131t-45 199t41.5 198.5t119 130.5t182.5 46q74 0 135.5 -31t102 -88t53.5 -134l-40 -8q-18 101 -86.5 161.5t-164.5 60.5q-92 0 -160.5 -41.5t-105 -117.5t-36.5 -177q0 -102 40 -178.5t113.5 -117.5t172.5 -41q118 0 196 69t94 186l40 -9
q-12 -86 -56.5 -150.5t-115 -99.5t-158.5 -35q-111 0 -194 46zM233 893l21 25l123 -107l124 107l21 -24l-120 -104h-49z" />
    <glyph glyph-name="ccaron" unicode="&#x10d;" horiz-adv-x="566" 
d="M154 13.5q-59 33.5 -91.5 95t-32.5 142.5t31 142t87.5 94.5t131.5 33.5q84 0 145 -49.5t80 -132.5l-39 -8q-16 70 -67 111t-119 41q-63 0 -110.5 -28.5t-73.5 -81t-26 -122.5t27.5 -123t78 -81.5t116.5 -28.5q83 0 141.5 47t73.5 127l39 -10q-18 -92 -87.5 -147
t-166.5 -55q-79 0 -138 33.5zM110 732l21 24l149 -127l150 127l21 -23l-146 -125h-49z" />
    <glyph glyph-name="Dcaron" unicode="&#x10e;" horiz-adv-x="685" 
d="M60 701h220q178 0 274 -90.5t96 -259.5t-95.5 -260t-274.5 -91h-220v701zM280 39q158 0 243.5 80.5t85.5 231.5q0 150 -85.5 230.5t-243.5 80.5h-179v-623h179zM179 893l21 25l123 -107l124 107l21 -24l-120 -104h-49z" />
    <glyph glyph-name="dcaron" unicode="&#x10f;" horiz-adv-x="602" 
d="M156 15q-59 35 -92.5 96.5t-33.5 139.5q0 77 33.5 139t92.5 96.5t133 34.5q76 0 134.5 -37.5t87.5 -102.5h1v350h40v-731h-38l-1 122h-1q-29 -66 -88 -104t-135 -38q-74 0 -133 35zM404.5 48q50.5 30 79.5 83.5t29 119.5t-29 119t-79.5 83t-113.5 30t-113.5 -30t-79 -83
t-28.5 -119q0 -67 28.5 -120t79 -83t113.5 -30t113.5 30zM604 587q5 -1 14 -1q21 0 33 12.5t12 36.5q0 8 -1 12q-3 -1 -9 -1q-14 0 -24 10t-10 25q0 13 9.5 22.5t23.5 9.5q19 0 29.5 -18t10.5 -49q0 -41 -18.5 -63.5t-50.5 -22.5q-10 0 -24 3z" />
    <glyph glyph-name="Dcroat" unicode="&#x110;" horiz-adv-x="743" 
d="M612 610.5q96 -90.5 96 -259.5t-95.5 -260t-274.5 -91h-220v391h-118v32h118v278h220q178 0 274 -90.5zM582 119.5q85 80.5 85 231.5q0 150 -85 230.5t-244 80.5h-178v-239h240v-32h-240v-352h178q159 0 244 80.5z" />
    <glyph glyph-name="dcroat" unicode="&#x111;" horiz-adv-x="613" 
d="M654 607h-102v-607h-38l-1 122h-1q-29 -66 -88 -104t-135 -38q-74 0 -133 35t-92.5 96.5t-33.5 139.5q0 77 33.5 139t92.5 96.5t133 34.5q76 0 134.5 -37.5t87.5 -102.5h1v226h-240v32h240v92h40v-92h102v-32zM404.5 48q50.5 30 79.5 83.5t29 119.5t-29 119t-79.5 83
t-113.5 30t-113.5 -30t-79 -83t-28.5 -119q0 -67 28.5 -120t79 -83t113.5 -30t113.5 30z" />
    <glyph glyph-name="Emacron" unicode="&#x112;" horiz-adv-x="568" 
d="M60 701h473v-39h-432v-278h392v-39h-392v-306h442v-39h-483v701zM165 823h281v-31h-281v31z" />
    <glyph glyph-name="emacron" unicode="&#x113;" horiz-adv-x="565" 
d="M164 15q-63 35 -98.5 97t-35.5 140q0 77 32.5 138.5t90 96t129.5 34.5q69 0 123 -34.5t84.5 -95.5t33.5 -139v-15h-453q3 -63 34 -113t84 -78t119 -28q64 0 119.5 32t82.5 83l35 -17q-30 -60 -95.5 -98t-142.5 -38q-79 0 -142 35zM482 275q-4 61 -30.5 108.5t-70.5 73.5
t-99 26q-58 0 -104 -26.5t-74.5 -74t-32.5 -107.5h411zM140 623h281v-31h-281v31z" />
    <glyph glyph-name="Ebreve" unicode="&#x114;" horiz-adv-x="568" 
d="M60 701h473v-39h-432v-278h392v-39h-392v-306h442v-39h-483v701zM205.5 824.5q-39.5 34.5 -39.5 87.5h32q0 -39 30.5 -64.5t77.5 -25.5t78 25.5t31 64.5h31q0 -53 -39.5 -87.5t-100.5 -34.5t-100.5 34.5z" />
    <glyph glyph-name="ebreve" unicode="&#x115;" horiz-adv-x="565" 
d="M164 15q-63 35 -98.5 97t-35.5 140q0 77 32.5 138.5t90 96t129.5 34.5q69 0 123 -34.5t84.5 -95.5t33.5 -139v-15h-453q3 -63 34 -113t84 -78t119 -28q64 0 119.5 32t82.5 83l35 -17q-30 -60 -95.5 -98t-142.5 -38q-79 0 -142 35zM482 275q-4 61 -30.5 108.5t-70.5 73.5
t-99 26q-58 0 -104 -26.5t-74.5 -74t-32.5 -107.5h411zM198.5 616.5q-36.5 18.5 -58 51.5t-21.5 74h32q1 -49 37.5 -80.5t92.5 -31.5q57 0 94 31.5t36 80.5h31q0 -41 -20.5 -74t-57.5 -51.5t-83 -18.5t-82.5 18.5z" />
    <glyph glyph-name="Edotaccent" unicode="&#x116;" horiz-adv-x="568" 
d="M60 701h473v-39h-432v-278h392v-39h-392v-306h442v-39h-483v701zM281 823q-10 10 -10 25q0 16 10 25.5t26 9.5q15 0 25 -9.5t10 -25.5q0 -15 -10 -25t-25 -10q-16 0 -26 10z" />
    <glyph glyph-name="edotaccent" unicode="&#x117;" horiz-adv-x="565" 
d="M164 15q-63 35 -98.5 97t-35.5 140q0 77 32.5 138.5t90 96t129.5 34.5q69 0 123 -34.5t84.5 -95.5t33.5 -139v-15h-453q3 -63 34 -113t84 -78t119 -28q64 0 119.5 32t82.5 83l35 -17q-30 -60 -95.5 -98t-142.5 -38q-79 0 -142 35zM482 275q-4 61 -30.5 108.5t-70.5 73.5
t-99 26q-58 0 -104 -26.5t-74.5 -74t-32.5 -107.5h411zM256 619q-10 10 -10 25q0 16 10 25.5t26 9.5q15 0 25 -9.5t10 -25.5q0 -15 -10 -25t-25 -10q-16 0 -26 10z" />
    <glyph glyph-name="Eogonek" unicode="&#x118;" horiz-adv-x="568" 
d="M452.5 -53.5q-30.5 -19.5 -49 -40.5t-18.5 -44q0 -18 10.5 -29t29.5 -11q20 0 39.5 14t32.5 37l18 -26q-15 -25 -40 -40.5t-51 -15.5q-33 0 -52.5 19t-19.5 51q0 37 32.5 68.5t100.5 70.5h-425v701h473v-39h-432v-278h392v-39h-392v-306h442v-39q-60 -34 -90.5 -53.5z
" />
    <glyph glyph-name="eogonek" unicode="&#x119;" horiz-adv-x="565" 
d="M286 -77.5q-35 -27.5 -35 -60.5q0 -18 10.5 -29t29.5 -11q20 0 39.5 14t32.5 37l18 -26q-15 -25 -40 -40.5t-51 -15.5q-33 0 -52.5 19t-19.5 51t25 60.5t74 58.5h-11q-79 0 -142 35t-98.5 97t-35.5 140q0 77 32.5 138.5t90 96t129.5 34.5q69 0 123 -34.5t84.5 -95.5
t33.5 -139v-15h-453q3 -63 34 -113t84 -78t119 -28q64 0 119.5 32t82.5 83l35 -17q-20 -40 -56.5 -71t-83.5 -48q-83 -47 -118 -74.5zM178 456.5q-46 -26.5 -74.5 -74t-32.5 -107.5h411q-4 61 -30.5 108.5t-70.5 73.5t-99 26q-58 0 -104 -26.5z" />
    <glyph glyph-name="Ecaron" unicode="&#x11a;" horiz-adv-x="568" 
d="M60 701h473v-39h-432v-278h392v-39h-392v-306h442v-39h-483v701zM162 893l21 25l123 -107l124 107l21 -24l-120 -104h-49z" />
    <glyph glyph-name="ecaron" unicode="&#x11b;" horiz-adv-x="565" 
d="M164 15q-63 35 -98.5 97t-35.5 140q0 77 32.5 138.5t90 96t129.5 34.5q69 0 123 -34.5t84.5 -95.5t33.5 -139v-15h-453q3 -63 34 -113t84 -78t119 -28q64 0 119.5 32t82.5 83l35 -17q-30 -60 -95.5 -98t-142.5 -38q-79 0 -142 35zM482 275q-4 61 -30.5 108.5t-70.5 73.5
t-99 26q-58 0 -104 -26.5t-74.5 -74t-32.5 -107.5h411zM111 732l21 24l149 -127l150 127l21 -23l-146 -125h-49z" />
    <glyph glyph-name="Gcircumflex" unicode="&#x11c;" horiz-adv-x="798" 
d="M212 23.5q-83 48.5 -130 134t-47 193.5q0 107 45 192.5t125 134t181 48.5q70 0 132.5 -28.5t107.5 -79t64 -114.5l-39 -11q-29 88 -101 141t-164 53q-89 0 -159.5 -43t-110.5 -119.5t-40 -173.5q0 -96 41.5 -173t115.5 -120.5t168 -43.5q90 0 162 42.5t113 117.5t41 169
h-453v39h494v-382h-39l-1 184h-1q-41 -97 -124.5 -153t-193.5 -56q-104 0 -187 48.5zM242 808l120 104h49l120 -104l-21 -24l-124 107l-123 -107z" />
    <glyph glyph-name="gcircumflex" unicode="&#x11d;" horiz-adv-x="604" 
d="M108 -190.5q-77 39.5 -118 105.5l34 25q35 -60 103 -96t148 -36q111 0 175.5 60.5t64.5 171.5v85h-1q-25 -67 -88.5 -104.5t-132.5 -37.5q-75 0 -134 34.5t-92 95.5t-33 138q0 78 33 139.5t92 96t134 34.5q67 0 128.5 -37.5t91.5 -96.5h1l2 114h38v-461q0 -128 -75 -199
t-204 -71q-90 0 -167 39.5zM408 51q50 30 78.5 82.5t28.5 117.5q0 66 -28.5 119t-78.5 83t-113 30t-113.5 -30t-79 -82.5t-28.5 -119.5q0 -66 28.5 -118.5t79 -82t113.5 -29.5t113 30zM125 618l146 124h49l146 -124l-21 -24l-150 127l-149 -127z" />
    <glyph glyph-name="Gbreve" unicode="&#x11e;" horiz-adv-x="798" 
d="M212 23.5q-83 48.5 -130 134t-47 193.5q0 107 45 192.5t125 134t181 48.5q70 0 132.5 -28.5t107.5 -79t64 -114.5l-39 -11q-29 88 -101 141t-164 53q-89 0 -159.5 -43t-110.5 -119.5t-40 -173.5q0 -96 41.5 -173t115.5 -120.5t168 -43.5q90 0 162 42.5t113 117.5t41 169
h-453v39h494v-382h-39l-1 184h-1q-41 -97 -124.5 -153t-193.5 -56q-104 0 -187 48.5zM285.5 824.5q-39.5 34.5 -39.5 87.5h32q0 -39 30.5 -64.5t77.5 -25.5t78 25.5t31 64.5h31q0 -53 -39.5 -87.5t-100.5 -34.5t-100.5 34.5z" />
    <glyph glyph-name="gbreve" unicode="&#x11f;" horiz-adv-x="604" 
d="M108 -190.5q-77 39.5 -118 105.5l34 25q35 -60 103 -96t148 -36q111 0 175.5 60.5t64.5 171.5v85h-1q-25 -67 -88.5 -104.5t-132.5 -37.5q-75 0 -134 34.5t-92 95.5t-33 138q0 78 33 139.5t92 96t134 34.5q67 0 128.5 -37.5t91.5 -96.5h1l2 114h38v-461q0 -128 -75 -199
t-204 -71q-90 0 -167 39.5zM408 51q50 30 78.5 82.5t28.5 117.5q0 66 -28.5 119t-78.5 83t-113 30t-113.5 -30t-79 -82.5t-28.5 -119.5q0 -66 28.5 -118.5t79 -82t113.5 -29.5t113 30zM212.5 616.5q-36.5 18.5 -58 51.5t-21.5 74h32q1 -49 37.5 -80.5t92.5 -31.5
q57 0 94 31.5t36 80.5h31q0 -41 -20.5 -74t-57.5 -51.5t-83 -18.5t-82.5 18.5z" />
    <glyph glyph-name="Gdotaccent" unicode="&#x120;" horiz-adv-x="798" 
d="M212 23.5q-83 48.5 -130 134t-47 193.5q0 107 45 192.5t125 134t181 48.5q70 0 132.5 -28.5t107.5 -79t64 -114.5l-39 -11q-29 88 -101 141t-164 53q-89 0 -159.5 -43t-110.5 -119.5t-40 -173.5q0 -96 41.5 -173t115.5 -120.5t168 -43.5q90 0 162 42.5t113 117.5t41 169
h-453v39h494v-382h-39l-1 184h-1q-41 -97 -124.5 -153t-193.5 -56q-104 0 -187 48.5zM361 823q-10 10 -10 25q0 16 10 25.5t26 9.5q15 0 25 -9.5t10 -25.5q0 -15 -10 -25t-25 -10q-16 0 -26 10z" />
    <glyph glyph-name="gdotaccent" unicode="&#x121;" horiz-adv-x="604" 
d="M108 -190.5q-77 39.5 -118 105.5l34 25q35 -60 103 -96t148 -36q111 0 175.5 60.5t64.5 171.5v85h-1q-25 -67 -88.5 -104.5t-132.5 -37.5q-75 0 -134 34.5t-92 95.5t-33 138q0 78 33 139.5t92 96t134 34.5q67 0 128.5 -37.5t91.5 -96.5h1l2 114h38v-461q0 -128 -75 -199
t-204 -71q-90 0 -167 39.5zM408 51q50 30 78.5 82.5t28.5 117.5q0 66 -28.5 119t-78.5 83t-113 30t-113.5 -30t-79 -82.5t-28.5 -119.5q0 -66 28.5 -118.5t79 -82t113.5 -29.5t113 30zM270 619q-10 10 -10 25q0 16 10 25.5t26 9.5q15 0 25 -9.5t10 -25.5q0 -15 -10 -25
t-25 -10q-16 0 -26 10z" />
    <glyph glyph-name="uni0122" unicode="&#x122;" horiz-adv-x="798" 
d="M212 23.5q-83 48.5 -130 134t-47 193.5q0 107 45 192.5t125 134t181 48.5q70 0 132.5 -28.5t107.5 -79t64 -114.5l-39 -11q-29 88 -101 141t-164 53q-89 0 -159.5 -43t-110.5 -119.5t-40 -173.5q0 -96 41.5 -173t115.5 -120.5t168 -43.5q90 0 162 42.5t113 117.5t41 169
h-453v39h494v-382h-39l-1 184h-1q-41 -97 -124.5 -153t-193.5 -56q-104 0 -187 48.5zM351 -214q5 -1 14 -1q21 0 33 12.5t12 36.5q0 8 -1 12q-3 -1 -9 -1q-14 0 -24 10t-10 25q0 13 9.5 22.5t23.5 9.5q19 0 29.5 -18t10.5 -49q0 -41 -18.5 -63.5t-50.5 -22.5q-10 0 -24 3z
" />
    <glyph glyph-name="uni0123" unicode="&#x123;" horiz-adv-x="604" 
d="M343 715q-5 1 -14 1q-21 0 -33 -12.5t-12 -36.5q0 -8 1 -12q3 1 9 1q14 0 24 -10t10 -25q0 -13 -9.5 -22.5t-23.5 -9.5q-19 0 -29.5 18t-10.5 49q0 41 18.5 63.5t50.5 22.5q11 0 24 -3zM108 -190.5q-77 39.5 -118 105.5l34 25q35 -60 103 -96t148 -36q111 0 175.5 60.5
t64.5 171.5v85h-1q-25 -67 -88.5 -104.5t-132.5 -37.5q-75 0 -134 34.5t-92 95.5t-33 138q0 78 33 139.5t92 96t134 34.5q67 0 128.5 -37.5t91.5 -96.5h1l2 114h38v-461q0 -128 -75 -199t-204 -71q-90 0 -167 39.5zM408 51q50 30 78.5 82.5t28.5 117.5q0 66 -28.5 119
t-78.5 83t-113 30t-113.5 -30t-79 -82.5t-28.5 -119.5q0 -66 28.5 -118.5t79 -82t113.5 -29.5t113 30z" />
    <glyph glyph-name="Itilde" unicode="&#x128;" horiz-adv-x="161" 
d="M93 796.5q-13 16.5 -25 47.5q-10 25 -17 37t-18 12q-15 0 -24 -29t-9 -74h-29q0 61 15 97t47 36q23 0 36 -17t25 -48q9 -24 16 -36t18 -12q16 0 25 29t9 75h29q0 -62 -15 -98t-47 -36q-23 0 -36 16.5zM60 701h41v-701h-41v701z" />
    <glyph glyph-name="itilde" unicode="&#x129;" horiz-adv-x="140" 
d="M83.5 605.5q-12.5 15.5 -24.5 43.5q-2 5 -8.5 21.5t-13 24.5t-14.5 8q-16 0 -25 -28.5t-9 -74.5h-29q0 61 15.5 97t47.5 36q21 0 34 -16t25 -44q8 -26 16 -39.5t19 -13.5q17 0 25.5 29t8.5 75h29q0 -62 -15 -98t-47 -36q-22 0 -34.5 15.5zM50 501h40v-501h-40v501z" />
    <glyph glyph-name="Imacron" unicode="&#x12a;" horiz-adv-x="161" 
d="M9 815h143v-30h-143v30zM60 701h41v-701h-41v701z" />
    <glyph glyph-name="imacron" unicode="&#x12b;" horiz-adv-x="140" 
d="M7 623h126v-30h-126v30zM50 501h40v-501h-40v501z" />
    <glyph glyph-name="Iogonek" unicode="&#x12e;" horiz-adv-x="161" 
d="M9 -54q-31 -20 -49 -41t-17 -45q0 -17 11 -27.5t28 -10.5q20 0 40 14t33 37l18 -26q-15 -25 -40 -40.5t-51 -15.5q-33 0 -52.5 19t-19.5 50q0 40 36.5 73.5t113.5 75.5v692h41v-701q-61 -34 -92 -54z" />
    <glyph glyph-name="iogonek" unicode="&#x12f;" horiz-adv-x="140" 
d="M101 669q10 -10 10 -25t-10 -25t-25 -10q-16 0 -26 10t-10 25t10 25t26 10q15 0 25 -10zM55 501h40v-501q-60 -34 -90.5 -53.5t-49 -40.5t-18.5 -44q0 -18 10.5 -29t29.5 -11q20 0 39.5 14t32.5 37l18 -26q-15 -25 -40 -40.5t-51 -15.5q-33 0 -52.5 19t-19.5 50
q0 40 37 74t114 76v491z" />
    <glyph glyph-name="Idotaccent" unicode="&#x130;" horiz-adv-x="161" 
d="M60 701h41v-701h-41v701zM56 823q-10 10 -10 25q0 16 10 25.5t26 9.5q15 0 25 -9.5t10 -25.5q0 -15 -10 -25t-25 -10q-16 0 -26 10z" />
    <glyph glyph-name="dotlessi" unicode="&#x131;" horiz-adv-x="140" 
d="M50 501h40v-501h-40v501z" />
    <glyph glyph-name="IJ" unicode="&#x132;" horiz-adv-x="612" 
d="M60 701h41v-701h-41v701zM244.5 20q-52.5 44 -63.5 117l38 14q8 -61 49.5 -98.5t104.5 -37.5q69 0 108 45t39 125v516h42v-518q0 -97 -50 -152t-137 -55q-78 0 -130.5 44z" />
    <glyph glyph-name="ij" unicode="&#x133;" horiz-adv-x="298" 
d="M50 619q-10 10 -10 25t10 25t26 10q15 0 25 -10t10 -25t-10 -25t-25 -10q-16 0 -26 10zM55 501h40v-501h-40v501zM197 618.5q-10 9.5 -10 25.5t9.5 25.5t25.5 9.5q15 0 25.5 -10t10.5 -25t-10.5 -25t-25.5 -10t-25 9.5zM47 -217l5 36q30 -11 59 -11q41 0 66 24.5t25 65.5
v603h40v-604q0 -58 -35 -92.5t-94 -34.5q-34 0 -66 13z" />
    <glyph glyph-name="uni0136" unicode="&#x136;" horiz-adv-x="506" 
d="M60 701h41v-347h1l330 347h55l-264 -277l273 -424h-49l-253 394l-93 -97v-297h-41v701zM227 -214q5 -1 14 -1q21 0 33 12.5t12 36.5q0 8 -1 12q-3 -1 -9 -1q-14 0 -24 10t-10 25q0 13 9.5 22.5t23.5 9.5q19 0 29.5 -18t10.5 -49q0 -41 -18.5 -63.5t-50.5 -22.5
q-10 0 -24 3z" />
    <glyph glyph-name="uni0137" unicode="&#x137;" horiz-adv-x="415" 
d="M50 731h40v-470h1l256 240h57l-204 -190l215 -311h-49l-195 284l-81 -75v-209h-40v731zM171 -214q5 -1 14 -1q21 0 33 12.5t12 36.5q0 8 -1 12q-3 -1 -9 -1q-14 0 -24 10t-10 25q0 13 9.5 22.5t23.5 9.5q19 0 29.5 -18t10.5 -49q0 -41 -18.5 -63.5t-50.5 -22.5
q-10 0 -24 3z" />
    <glyph glyph-name="Lacute" unicode="&#x139;" horiz-adv-x="503" 
d="M60 701h41v-662h392v-39h-433v701zM64 796l98 121l25 -20l-99 -121z" />
    <glyph glyph-name="lacute" unicode="&#x13a;" horiz-adv-x="140" 
d="M50 731h40v-731h-40v731zM53 796l98 121l25 -20l-99 -121z" />
    <glyph glyph-name="uni013B" unicode="&#x13b;" horiz-adv-x="503" 
d="M60 701h41v-662h392v-39h-433v701zM233 -214q5 -1 14 -1q21 0 33 12.5t12 36.5q0 8 -1 12q-3 -1 -9 -1q-14 0 -24 10t-10 25q0 13 9.5 22.5t23.5 9.5q19 0 29.5 -18t10.5 -49q0 -41 -18.5 -63.5t-50.5 -22.5q-10 0 -24 3z" />
    <glyph glyph-name="uni013C" unicode="&#x13c;" horiz-adv-x="140" 
d="M50 731h40v-731h-40v731zM22 -214q5 -1 14 -1q21 0 33 12.5t12 36.5q0 8 -1 12q-3 -1 -9 -1q-14 0 -24 10t-10 25q0 13 9.5 22.5t23.5 9.5q19 0 29.5 -18t10.5 -49q0 -41 -18.5 -63.5t-50.5 -22.5q-10 0 -24 3z" />
    <glyph glyph-name="Lcaron" unicode="&#x13d;" horiz-adv-x="503" 
d="M60 701h41v-662h392v-39h-433v701zM214 587q5 -1 14 -1q21 0 33 12.5t12 36.5q0 8 -1 12q-3 -1 -9 -1q-14 0 -24 10t-10 25q0 13 9.5 22.5t23.5 9.5q19 0 29.5 -18t10.5 -49q0 -41 -18.5 -63.5t-50.5 -22.5q-10 0 -24 3z" />
    <glyph glyph-name="lcaron" unicode="&#x13e;" horiz-adv-x="140" 
d="M50 731h40v-731h-40v731zM142 587q5 -1 14 -1q21 0 33 12.5t12 36.5q0 8 -1 12q-3 -1 -9 -1q-14 0 -24 10t-10 25q0 13 9.5 22.5t23.5 9.5q19 0 29.5 -18t10.5 -49q0 -41 -18.5 -63.5t-50.5 -22.5q-10 0 -24 3z" />
    <glyph glyph-name="Lslash" unicode="&#x141;" horiz-adv-x="570" 
d="M560 39v-39h-433v315l-111 -64l-16 27l127 73v350h41v-326l250 144l16 -27l-266 -153v-300h392z" />
    <glyph glyph-name="lslash" unicode="&#x142;" horiz-adv-x="373" 
d="M202 392v-392h-39v367l-146 -95l-17 26l163 106v327h39v-302l155 101l16 -27z" />
    <glyph glyph-name="Nacute" unicode="&#x143;" horiz-adv-x="640" 
d="M60 701h64l413 -657h2v657h41v-701h-63l-414 657h-2v-657h-41v701zM312 796l98 121l25 -20l-99 -121z" />
    <glyph glyph-name="nacute" unicode="&#x144;" 
d="M436 470q50 -51 50 -141v-329h-40v328q0 73 -41 114t-114 41q-92 0 -146.5 -53t-54.5 -141v-289h-40v501h38l2 -95h1q26 54 80 84.5t126 30.5q89 0 139 -51zM266 616l117 142l24 -20l-117 -142z" />
    <glyph glyph-name="uni0145" unicode="&#x145;" horiz-adv-x="640" 
d="M60 701h64l413 -657h2v657h41v-701h-63l-414 657h-2v-657h-41v701zM273 -214q5 -1 14 -1q21 0 33 12.5t12 36.5q0 8 -1 12q-3 -1 -9 -1q-14 0 -24 10t-10 25q0 13 9.5 22.5t23.5 9.5q19 0 29.5 -18t10.5 -49q0 -41 -18.5 -63.5t-50.5 -22.5q-10 0 -24 3z" />
    <glyph glyph-name="uni0146" unicode="&#x146;" 
d="M436 470q50 -51 50 -141v-329h-40v328q0 73 -41 114t-114 41q-92 0 -146.5 -53t-54.5 -141v-289h-40v501h38l2 -95h1q26 54 80 84.5t126 30.5q89 0 139 -51zM227 -214q5 -1 14 -1q21 0 33 12.5t12 36.5q0 8 -1 12q-3 -1 -9 -1q-14 0 -24 10t-10 25q0 13 9.5 22.5
t23.5 9.5q19 0 29.5 -18t10.5 -49q0 -41 -18.5 -63.5t-50.5 -22.5q-10 0 -24 3z" />
    <glyph glyph-name="Ncaron" unicode="&#x147;" horiz-adv-x="640" 
d="M60 701h64l413 -657h2v657h41v-701h-63l-414 657h-2v-657h-41v701zM184 893l21 25l123 -107l124 107l21 -24l-120 -104h-49z" />
    <glyph glyph-name="ncaron" unicode="&#x148;" 
d="M436 470q50 -51 50 -141v-329h-40v328q0 73 -41 114t-114 41q-92 0 -146.5 -53t-54.5 -141v-289h-40v501h38l2 -95h1q26 54 80 84.5t126 30.5q89 0 139 -51zM107 732l21 24l149 -127l150 127l21 -23l-146 -125h-49z" />
    <glyph glyph-name="Omacron" unicode="&#x14c;" horiz-adv-x="814" 
d="M211.5 21.5q-84.5 46.5 -130.5 132t-46 197.5t46 197t130.5 131.5t195.5 46.5t195.5 -46.5t130.5 -131.5t46 -197t-46 -197.5t-130.5 -132t-195.5 -46.5t-195.5 46.5zM581 56q75 42 116 118t41 177q0 100 -41 176t-116 118t-174 42t-174 -42t-116 -118t-41 -176
t41 -176.5t116 -118.5t174 -42t174 42zM267 823h281v-31h-281v31z" />
    <glyph glyph-name="omacron" unicode="&#x14d;" horiz-adv-x="584" 
d="M154.5 13.5q-59.5 33.5 -92 95t-32.5 142.5t32.5 142t92 94.5t137.5 33.5t137.5 -33.5t92 -94.5t32.5 -142t-32.5 -142.5t-92 -95t-137.5 -33.5t-137.5 33.5zM408.5 47q50.5 29 78 81.5t27.5 122.5q0 69 -27.5 121.5t-78 81.5t-116.5 29t-116.5 -29t-78 -81.5
t-27.5 -121.5q0 -70 27.5 -122.5t78 -81.5t116.5 -29t116.5 29zM152 623h281v-31h-281v31z" />
    <glyph glyph-name="Obreve" unicode="&#x14e;" horiz-adv-x="814" 
d="M211.5 21.5q-84.5 46.5 -130.5 132t-46 197.5t46 197t130.5 131.5t195.5 46.5t195.5 -46.5t130.5 -131.5t46 -197t-46 -197.5t-130.5 -132t-195.5 -46.5t-195.5 46.5zM581 56q75 42 116 118t41 177q0 100 -41 176t-116 118t-174 42t-174 -42t-116 -118t-41 -176
t41 -176.5t116 -118.5t174 -42t174 42zM306.5 824.5q-39.5 34.5 -39.5 87.5h32q0 -39 30.5 -64.5t77.5 -25.5t78 25.5t31 64.5h31q0 -53 -39.5 -87.5t-100.5 -34.5t-100.5 34.5z" />
    <glyph glyph-name="obreve" unicode="&#x14f;" horiz-adv-x="584" 
d="M154.5 13.5q-59.5 33.5 -92 95t-32.5 142.5t32.5 142t92 94.5t137.5 33.5t137.5 -33.5t92 -94.5t32.5 -142t-32.5 -142.5t-92 -95t-137.5 -33.5t-137.5 33.5zM408.5 47q50.5 29 78 81.5t27.5 122.5q0 69 -27.5 121.5t-78 81.5t-116.5 29t-116.5 -29t-78 -81.5
t-27.5 -121.5q0 -70 27.5 -122.5t78 -81.5t116.5 -29t116.5 29zM209.5 616.5q-36.5 18.5 -58 51.5t-21.5 74h32q1 -49 37.5 -80.5t92.5 -31.5q57 0 94 31.5t36 80.5h31q0 -41 -20.5 -74t-57.5 -51.5t-83 -18.5t-82.5 18.5z" />
    <glyph glyph-name="Ohungarumlaut" unicode="&#x150;" horiz-adv-x="814" 
d="M211.5 21.5q-84.5 46.5 -130.5 132t-46 197.5t46 197t130.5 131.5t195.5 46.5t195.5 -46.5t130.5 -131.5t46 -197t-46 -197.5t-130.5 -132t-195.5 -46.5t-195.5 46.5zM581 56q75 42 116 118t41 177q0 100 -41 176t-116 118t-174 42t-174 -42t-116 -118t-41 -176
t41 -176.5t116 -118.5t174 -42t174 42zM312 777l98 121l25 -20l-99 -121zM473 777l98 121l25 -20l-99 -121z" />
    <glyph glyph-name="ohungarumlaut" unicode="&#x151;" horiz-adv-x="584" 
d="M154.5 13.5q-59.5 33.5 -92 95t-32.5 142.5t32.5 142t92 94.5t137.5 33.5t137.5 -33.5t92 -94.5t32.5 -142t-32.5 -142.5t-92 -95t-137.5 -33.5t-137.5 33.5zM408.5 47q50.5 29 78 81.5t27.5 122.5q0 69 -27.5 121.5t-78 81.5t-116.5 29t-116.5 -29t-78 -81.5
t-27.5 -121.5q0 -70 27.5 -122.5t78 -81.5t116.5 -29t116.5 29zM202 616l117 142l24 -20l-117 -142zM363 616l117 142l24 -20l-117 -142z" />
    <glyph glyph-name="OE" unicode="&#x152;" horiz-adv-x="1002" 
d="M211 23.5q-84 46.5 -130 131t-46 196.5q0 111 46 195.5t130 131t194 46.5q29 0 63.5 -6.5t62.5 -16.5h436v-39h-401v-287h361v-39h-361v-297h411v-39h-446q-29 -10 -63.5 -16.5t-62.5 -6.5q-110 0 -194 46.5zM466.5 22.5q32.5 6.5 58.5 16.5v623q-26 10 -58 16.5t-61 6.5
q-98 0 -173 -41.5t-116 -117t-41 -175.5t41 -176t115 -117.5t172 -41.5q30 0 62.5 6.5z" />
    <glyph glyph-name="oe" unicode="&#x153;" horiz-adv-x="1050" 
d="M1029 116q-31 -61 -96.5 -98.5t-141.5 -37.5q-90 0 -158 44t-98 119q-28 -75 -93 -119t-150 -44q-76 0 -135.5 34.5t-93 96.5t-33.5 140t33.5 139.5t93 96t135.5 34.5q85 0 149 -43t93 -117q28 74 90 117t143 43q70 0 124.5 -34.5t85.5 -95.5t31 -139v-15h-453
q3 -63 34 -113t84 -78t119 -28q64 0 120 32t82 83zM406.5 48q50.5 30 79 83t28.5 120t-28.5 119.5t-79 82.5t-114.5 30t-114.5 -30t-79 -82.5t-28.5 -119.5t28.5 -120t79 -83t114.5 -30t114.5 30zM662.5 456.5q-46.5 -26.5 -74.5 -74t-32 -107.5h411q-4 60 -31 107.5t-71 74
t-98 26.5q-58 0 -104.5 -26.5z" />
    <glyph glyph-name="Racute" unicode="&#x154;" horiz-adv-x="655" 
d="M515.5 0.5q-18.5 20.5 -29.5 59.5l-40 152q-28 103 -118 103h-227v-315h-41v701h311q104 0 165.5 -52t61.5 -140q0 -73 -49 -124.5t-132 -61.5v-1q50 -30 71 -109l39 -146q6 -25 15.5 -36.5t27.5 -11.5q35 0 58 38l27 -26q-34 -51 -88 -51q-33 0 -51.5 20.5zM371 355
q85 0 135.5 41.5t50.5 111.5t-50.5 112t-135.5 42h-270v-307h270zM286 796l98 121l25 -20l-99 -121z" />
    <glyph glyph-name="racute" unicode="&#x155;" horiz-adv-x="402" 
d="M334 482q39 -39 48 -118l-37 -12q-7 66 -36.5 98.5t-77.5 32.5q-63 0 -102 -50t-39 -130v-303h-40v501h37v-81h1q21 47 59.5 74t86.5 27q61 0 100 -39zM199 616l117 142l24 -20l-117 -142z" />
    <glyph glyph-name="uni0156" unicode="&#x156;" horiz-adv-x="655" 
d="M515.5 0.5q-18.5 20.5 -29.5 59.5l-40 152q-28 103 -118 103h-227v-315h-41v701h311q104 0 165.5 -52t61.5 -140q0 -73 -49 -124.5t-132 -61.5v-1q50 -30 71 -109l39 -146q6 -25 15.5 -36.5t27.5 -11.5q35 0 58 38l27 -26q-34 -51 -88 -51q-33 0 -51.5 20.5zM371 355
q85 0 135.5 41.5t50.5 111.5t-50.5 112t-135.5 42h-270v-307h270zM265 -214q5 -1 14 -1q21 0 33 12.5t12 36.5q0 8 -1 12q-3 -1 -9 -1q-14 0 -24 10t-10 25q0 13 9.5 22.5t23.5 9.5q19 0 29.5 -18t10.5 -49q0 -41 -18.5 -63.5t-50.5 -22.5q-10 0 -24 3z" />
    <glyph glyph-name="uni0157" unicode="&#x157;" horiz-adv-x="402" 
d="M334 482q39 -39 48 -118l-37 -12q-7 66 -36.5 98.5t-77.5 32.5q-63 0 -102 -50t-39 -130v-303h-40v501h37v-81h1q21 47 59.5 74t86.5 27q61 0 100 -39zM22 -214q5 -1 14 -1q21 0 33 12.5t12 36.5q0 8 -1 12q-3 -1 -9 -1q-14 0 -24 10t-10 25q0 13 9.5 22.5t23.5 9.5
q19 0 29.5 -18t10.5 -49q0 -41 -18.5 -63.5t-50.5 -22.5q-10 0 -24 3z" />
    <glyph glyph-name="Rcaron" unicode="&#x158;" horiz-adv-x="655" 
d="M515.5 0.5q-18.5 20.5 -29.5 59.5l-40 152q-28 103 -118 103h-227v-315h-41v701h311q104 0 165.5 -52t61.5 -140q0 -73 -49 -124.5t-132 -61.5v-1q50 -30 71 -109l39 -146q6 -25 15.5 -36.5t27.5 -11.5q35 0 58 38l27 -26q-34 -51 -88 -51q-33 0 -51.5 20.5zM371 355
q85 0 135.5 41.5t50.5 111.5t-50.5 112t-135.5 42h-270v-307h270zM159 893l21 25l123 -107l124 107l21 -24l-120 -104h-49z" />
    <glyph glyph-name="rcaron" unicode="&#x159;" horiz-adv-x="402" 
d="M334 482q39 -39 48 -118l-37 -12q-7 66 -36.5 98.5t-77.5 32.5q-63 0 -102 -50t-39 -130v-303h-40v501h37v-81h1q21 47 59.5 74t86.5 27q61 0 100 -39zM41 732l21 24l149 -127l150 127l21 -23l-146 -125h-49z" />
    <glyph glyph-name="Sacute" unicode="&#x15a;" horiz-adv-x="587" 
d="M171.5 4.5q-62.5 29.5 -102 84t-49.5 126.5l40 9q11 -95 80 -152.5t172 -57.5q98 0 156 45.5t58 120.5q0 58 -39.5 94t-127.5 57l-126 29q-174 41 -174 164q0 92 60.5 147t162.5 55q92 0 156 -54.5t80 -146.5l-39 -9q-13 78 -66 124.5t-130 46.5q-84 0 -133.5 -43
t-49.5 -114q0 -50 34.5 -81t110.5 -49l126 -30q196 -44 196 -186q0 -63 -31 -110t-89 -73t-135 -26q-78 0 -140.5 29.5zM265 796l98 121l25 -20l-99 -121z" />
    <glyph glyph-name="sacute" unicode="&#x15b;" horiz-adv-x="452" 
d="M135 0.5q-47 20.5 -77.5 58t-37.5 84.5l39 11q6 -59 56.5 -97.5t121.5 -38.5q43 0 79 15t56.5 41.5t20.5 58.5q0 36 -31 59.5t-98 39.5l-74 18q-74 18 -107.5 48t-33.5 78q0 41 22 74t60 52t86 19q67 0 115.5 -36.5t60.5 -95.5l-38 -12q-7 47 -45.5 76.5t-92.5 29.5
q-55 0 -92 -30.5t-37 -74.5q0 -34 27 -56t86 -36l75 -18q82 -20 119 -51t37 -81q0 -45 -25.5 -80.5t-70 -55.5t-98.5 -20q-56 0 -103 20.5zM207 616l117 142l24 -20l-117 -142z" />
    <glyph glyph-name="Scircumflex" unicode="&#x15c;" horiz-adv-x="587" 
d="M171.5 4.5q-62.5 29.5 -102 84t-49.5 126.5l40 9q11 -95 80 -152.5t172 -57.5q98 0 156 45.5t58 120.5q0 58 -39.5 94t-127.5 57l-126 29q-174 41 -174 164q0 92 60.5 147t162.5 55q92 0 156 -54.5t80 -146.5l-39 -9q-13 78 -66 124.5t-130 46.5q-84 0 -133.5 -43
t-49.5 -114q0 -50 34.5 -81t110.5 -49l126 -30q196 -44 196 -186q0 -63 -31 -110t-89 -73t-135 -26q-78 0 -140.5 29.5zM138 808l120 104h49l120 -104l-21 -24l-124 107l-123 -107z" />
    <glyph glyph-name="scircumflex" unicode="&#x15d;" horiz-adv-x="452" 
d="M135 0.5q-47 20.5 -77.5 58t-37.5 84.5l39 11q6 -59 56.5 -97.5t121.5 -38.5q43 0 79 15t56.5 41.5t20.5 58.5q0 36 -31 59.5t-98 39.5l-74 18q-74 18 -107.5 48t-33.5 78q0 41 22 74t60 52t86 19q67 0 115.5 -36.5t60.5 -95.5l-38 -12q-7 47 -45.5 76.5t-92.5 29.5
q-55 0 -92 -30.5t-37 -74.5q0 -34 27 -56t86 -36l75 -18q82 -20 119 -51t37 -81q0 -45 -25.5 -80.5t-70 -55.5t-98.5 -20q-56 0 -103 20.5zM49 618l146 124h49l146 -124l-21 -24l-150 127l-149 -127z" />
    <glyph glyph-name="Scedilla" unicode="&#x15e;" horiz-adv-x="587" 
d="M536 74q-31 -47 -89 -73t-135 -26l-3 -25q44 0 71 -21.5t27 -59.5q0 -35 -26 -56.5t-65 -21.5q-31 0 -58 16.5t-38 41.5l27 17q7 -19 26 -31.5t41 -12.5q28 0 44 12.5t16 36.5t-18 36t-47 12h-35l7 57q-106 9 -176.5 73t-84.5 166l40 9q11 -95 80 -152.5t172 -57.5
q98 0 156 45.5t58 120.5q0 58 -39.5 94t-127.5 57l-126 29q-174 41 -174 164q0 92 60.5 147t162.5 55q92 0 156 -54.5t80 -146.5l-39 -9q-13 78 -66 124.5t-130 46.5q-84 0 -133.5 -43t-49.5 -114q0 -50 34.5 -81t110.5 -49l126 -30q196 -44 196 -186q0 -63 -31 -110z" />
    <glyph glyph-name="scedilla" unicode="&#x15f;" horiz-adv-x="452" 
d="M408 58q-24 -35 -66 -55.5t-94 -22.5l-4 -30q44 0 71 -21.5t27 -59.5q0 -35 -26 -56.5t-65 -21.5q-31 0 -58 16.5t-38 41.5l27 17q7 -19 26 -31.5t41 -12.5q28 0 44 12.5t16 36.5t-18 36t-47 12h-35l7 62q-77 6 -131.5 50.5t-64.5 111.5l39 11q6 -59 56.5 -97.5
t121.5 -38.5q43 0 79 15t56.5 41.5t20.5 58.5q0 36 -31 59.5t-98 39.5l-74 18q-74 18 -107.5 48t-33.5 78q0 41 22 74t60 52t86 19q67 0 115.5 -36.5t60.5 -95.5l-38 -12q-7 47 -45.5 76.5t-92.5 29.5q-55 0 -92 -30.5t-37 -74.5q0 -34 27 -56t86 -36l75 -18q82 -20 119 -51
t37 -81q0 -43 -24 -78z" />
    <glyph glyph-name="Scaron" unicode="&#x160;" horiz-adv-x="587" 
d="M171.5 4.5q-62.5 29.5 -102 84t-49.5 126.5l40 9q11 -95 80 -152.5t172 -57.5q98 0 156 45.5t58 120.5q0 58 -39.5 94t-127.5 57l-126 29q-174 41 -174 164q0 92 60.5 147t162.5 55q92 0 156 -54.5t80 -146.5l-39 -9q-13 78 -66 124.5t-130 46.5q-84 0 -133.5 -43
t-49.5 -114q0 -50 34.5 -81t110.5 -49l126 -30q196 -44 196 -186q0 -63 -31 -110t-89 -73t-135 -26q-78 0 -140.5 29.5zM138 893l21 25l123 -107l124 107l21 -24l-120 -104h-49z" />
    <glyph glyph-name="scaron" unicode="&#x161;" horiz-adv-x="452" 
d="M135 0.5q-47 20.5 -77.5 58t-37.5 84.5l39 11q6 -59 56.5 -97.5t121.5 -38.5q43 0 79 15t56.5 41.5t20.5 58.5q0 36 -31 59.5t-98 39.5l-74 18q-74 18 -107.5 48t-33.5 78q0 41 22 74t60 52t86 19q67 0 115.5 -36.5t60.5 -95.5l-38 -12q-7 47 -45.5 76.5t-92.5 29.5
q-55 0 -92 -30.5t-37 -74.5q0 -34 27 -56t86 -36l75 -18q82 -20 119 -51t37 -81q0 -45 -25.5 -80.5t-70 -55.5t-98.5 -20q-56 0 -103 20.5zM48 732l21 24l149 -127l150 127l21 -23l-146 -125h-49z" />
    <glyph glyph-name="uni0162" unicode="&#x162;" horiz-adv-x="555" 
d="M294 0l-7 -50q44 0 71 -21.5t27 -59.5q0 -35 -26 -56.5t-65 -21.5q-31 0 -58 16.5t-38 41.5l27 17q7 -19 26 -31.5t41 -12.5q28 0 44 12.5t16 36.5t-18 36t-47 12h-35l10 81h-5v662h-247v39h535v-39h-247v-662h-4z" />
    <glyph glyph-name="uni0163" unicode="&#x163;" horiz-adv-x="410" 
d="M345 13.5q-40 -32.5 -94 -33.5l-4 -30q44 0 71 -21.5t27 -59.5q0 -35 -26 -56.5t-65 -21.5q-31 0 -58 16.5t-38 41.5l27 17q7 -19 26 -31.5t41 -12.5q28 0 44 12.5t16 36.5t-18 36t-47 12h-35l8 63q-51 9 -80.5 46.5t-29.5 94.5v341h-110v37h110v153l40 11v-164h221v-37
h-221v-339q0 -49 27 -78t73 -29q41 0 71.5 26t35.5 66l36 -13q-8 -51 -48 -83.5z" />
    <glyph glyph-name="Tcaron" unicode="&#x164;" horiz-adv-x="555" 
d="M257 662h-247v39h535v-39h-247v-662h-41v662zM134 893l21 25l123 -107l124 107l21 -24l-120 -104h-49z" />
    <glyph glyph-name="tcaron" unicode="&#x165;" horiz-adv-x="410" 
d="M147.5 19q-37.5 39 -37.5 104v341h-110v37h110v153l40 11v-164h221v-37h-221v-339q0 -49 27 -78t73 -29q41 0 71.5 26t35.5 66l36 -13q-8 -51 -49.5 -84t-95.5 -33q-63 0 -100.5 39zM238 607q5 -1 14 -1q21 0 33 12.5t12 36.5q0 8 -1 12q-3 -1 -9 -1q-14 0 -24 10t-10 25
q0 13 9.5 22.5t23.5 9.5q19 0 29.5 -18t10.5 -49q0 -41 -18.5 -63.5t-50.5 -22.5q-10 0 -24 3z" />
    <glyph glyph-name="Utilde" unicode="&#x168;" horiz-adv-x="639" 
d="M121.5 46.5q-71.5 71.5 -71.5 198.5v456h41v-456q0 -109 60 -170t169 -61t168.5 60.5t59.5 170.5v456h41v-456q0 -127 -71 -198.5t-198 -71.5t-198.5 71.5zM353.5 795.5q-18.5 15.5 -39.5 45.5q-18 26 -32 39.5t-33 13.5q-27 0 -43.5 -29.5t-16.5 -74.5h-29
q0 58 25.5 95.5t66.5 37.5q28 0 45.5 -15.5t40.5 -46.5q18 -26 31 -39t32 -13q28 0 45.5 30t17.5 75h29q0 -59 -26 -96.5t-67 -37.5q-28 0 -46.5 15.5z" />
    <glyph glyph-name="utilde" unicode="&#x169;" 
d="M95.5 31q-50.5 51 -50.5 141v329h40v-327q0 -73 41 -114.5t114 -41.5q92 0 146.5 53t54.5 141v289h40v-501h-38l-2 95h-1q-26 -54 -79.5 -84.5t-125.5 -30.5q-89 0 -139.5 51zM294 605q-18 15 -39 44q-19 28 -33 41.5t-34 13.5q-27 0 -43.5 -29.5t-16.5 -74.5h-29
q0 58 25.5 95.5t66.5 37.5q29 0 47 -16.5t40 -48.5q20 -27 32 -38t30 -11q28 0 45.5 30t17.5 75h29q0 -59 -26 -96.5t-67 -37.5q-27 0 -45 15z" />
    <glyph glyph-name="Umacron" unicode="&#x16a;" horiz-adv-x="639" 
d="M121.5 46.5q-71.5 71.5 -71.5 198.5v456h41v-456q0 -109 60 -170t169 -61t168.5 60.5t59.5 170.5v456h41v-456q0 -127 -71 -198.5t-198 -71.5t-198.5 71.5zM179 823h281v-31h-281v31z" />
    <glyph glyph-name="umacron" unicode="&#x16b;" 
d="M95.5 31q-50.5 51 -50.5 141v329h40v-327q0 -73 41 -114.5t114 -41.5q92 0 146.5 53t54.5 141v289h40v-501h-38l-2 95h-1q-26 -54 -79.5 -84.5t-125.5 -30.5q-89 0 -139.5 51zM122 623h281v-31h-281v31z" />
    <glyph glyph-name="Ubreve" unicode="&#x16c;" horiz-adv-x="639" 
d="M121.5 46.5q-71.5 71.5 -71.5 198.5v456h41v-456q0 -109 60 -170t169 -61t168.5 60.5t59.5 170.5v456h41v-456q0 -127 -71 -198.5t-198 -71.5t-198.5 71.5zM218.5 824.5q-39.5 34.5 -39.5 87.5h32q0 -39 30.5 -64.5t77.5 -25.5t78 25.5t31 64.5h31q0 -53 -39.5 -87.5
t-100.5 -34.5t-100.5 34.5z" />
    <glyph glyph-name="ubreve" unicode="&#x16d;" 
d="M95.5 31q-50.5 51 -50.5 141v329h40v-327q0 -73 41 -114.5t114 -41.5q92 0 146.5 53t54.5 141v289h40v-501h-38l-2 95h-1q-26 -54 -79.5 -84.5t-125.5 -30.5q-89 0 -139.5 51zM179.5 616.5q-36.5 18.5 -58 51.5t-21.5 74h32q1 -49 37.5 -80.5t92.5 -31.5q57 0 94 31.5
t36 80.5h31q0 -41 -20.5 -74t-57.5 -51.5t-83 -18.5t-82.5 18.5z" />
    <glyph glyph-name="Uring" unicode="&#x16e;" horiz-adv-x="639" 
d="M121.5 46.5q-71.5 71.5 -71.5 198.5v456h41v-456q0 -109 60 -170t169 -61t168.5 60.5t59.5 170.5v456h41v-456q0 -127 -71 -198.5t-198 -71.5t-198.5 71.5zM258 812.5q-25 24.5 -25 62.5t25 62.5t63 24.5q37 0 61 -24.5t24 -62.5t-24 -62.5t-61 -24.5q-38 0 -63 24.5z
M360.5 834q15.5 16 15.5 41q0 26 -15.5 42t-40.5 16t-41.5 -16.5t-16.5 -41.5t16.5 -41t41.5 -16t40.5 16z" />
    <glyph glyph-name="uring" unicode="&#x16f;" 
d="M95.5 31q-50.5 51 -50.5 141v329h40v-327q0 -73 41 -114.5t114 -41.5q92 0 146.5 53t54.5 141v289h40v-501h-38l-2 95h-1q-26 -54 -79.5 -84.5t-125.5 -30.5q-89 0 -139.5 51zM200 622.5q-25 24.5 -25 62.5t25 62.5t63 24.5q37 0 61 -24.5t24 -62.5t-24 -62.5t-61 -24.5
q-38 0 -63 24.5zM302.5 644q15.5 16 15.5 41q0 26 -15.5 42t-40.5 16t-41.5 -16.5t-16.5 -41.5t16.5 -41t41.5 -16t40.5 16z" />
    <glyph glyph-name="Uhungarumlaut" unicode="&#x170;" horiz-adv-x="639" 
d="M121.5 46.5q-71.5 71.5 -71.5 198.5v456h41v-456q0 -109 60 -170t169 -61t168.5 60.5t59.5 170.5v456h41v-456q0 -127 -71 -198.5t-198 -71.5t-198.5 71.5zM224 777l98 121l25 -20l-99 -121zM385 777l98 121l25 -20l-99 -121z" />
    <glyph glyph-name="uhungarumlaut" unicode="&#x171;" 
d="M95.5 31q-50.5 51 -50.5 141v329h40v-327q0 -73 41 -114.5t114 -41.5q92 0 146.5 53t54.5 141v289h40v-501h-38l-2 95h-1q-26 -54 -79.5 -84.5t-125.5 -30.5q-89 0 -139.5 51zM172 616l117 142l24 -20l-117 -142zM333 616l117 142l24 -20l-117 -142z" />
    <glyph glyph-name="Uogonek" unicode="&#x172;" horiz-adv-x="639" 
d="M589 701v-456q0 -93 -38 -156.5t-109 -91.5q-82 -46 -117 -74t-35 -61q0 -18 10.5 -29t29.5 -11q20 0 39.5 14t32.5 37l18 -26q-15 -25 -40 -40.5t-51 -15.5q-33 0 -52.5 19t-19.5 51q0 31 23.5 59t69.5 56q-10 -1 -30 -1q-127 0 -198.5 71.5t-71.5 198.5v456h41v-456
q0 -109 60 -170t169 -61t168.5 60.5t59.5 170.5v456h41z" />
    <glyph glyph-name="uogonek" unicode="&#x173;" 
d="M390.5 -53.5q-30.5 -19.5 -49 -40.5t-18.5 -44q0 -18 10.5 -29t29.5 -11q20 0 39.5 14t32.5 37l18 -26q-15 -25 -40 -40.5t-51 -15.5q-33 0 -52.5 19t-19.5 50q0 40 37 74t116 77l-2 84h-1q-26 -54 -79.5 -84.5t-125.5 -30.5q-89 0 -139.5 51t-50.5 141v329h40v-327
q0 -73 41 -114.5t114 -41.5q92 0 146.5 53t54.5 141v289h40v-501q-60 -34 -90.5 -53.5z" />
    <glyph glyph-name="Wcircumflex" unicode="&#x174;" horiz-adv-x="949" 
d="M10 701h43l195 -660h1l193 660h65l194 -660h1l194 660h43l-206 -701h-63l-195 663h-1l-196 -663h-62zM329 808l120 104h49l120 -104l-21 -24l-124 107l-123 -107z" />
    <glyph glyph-name="wcircumflex" unicode="&#x175;" horiz-adv-x="792" 
d="M10 501h42l159 -461h1l157 461h53l160 -462h1l157 462h42l-173 -501h-54l-159 461h-1l-156 -461h-54zM226 618l146 124h49l146 -124l-21 -24l-150 127l-149 -127z" />
    <glyph glyph-name="Ycircumflex" unicode="&#x176;" horiz-adv-x="550" 
d="M255 284l-245 417h47l218 -374h1l217 374h47l-244 -417v-284h-41v284zM126 808l120 104h49l120 -104l-21 -24l-124 107l-123 -107z" />
    <glyph glyph-name="ycircumflex" unicode="&#x177;" horiz-adv-x="523" 
d="M76 -193q-69 37 -96 93l32 26q24 -50 84 -84t137 -34q91 0 145.5 54t54.5 148v75h-1q-24 -57 -77 -91t-116 -34q-59 0 -105 29.5t-71.5 81.5t-25.5 118v312h40v-312q0 -85 45 -138t119 -53q51 0 95 26t70.5 72.5t26.5 104.5v300h40v-491q0 -74 -29.5 -128t-84 -83
t-126.5 -29q-88 0 -157 37zM86 618l146 124h49l146 -124l-21 -24l-150 127l-149 -127z" />
    <glyph glyph-name="Ydieresis" unicode="&#x178;" horiz-adv-x="550" 
d="M255 284l-245 417h47l218 -374h1l217 374h47l-244 -417v-284h-41v284zM142 823q-10 10 -10 25t10 25t26 10q15 0 25 -10t10 -25t-10 -25t-25 -10q-16 0 -26 10zM348 823q-10 10 -10 25t10 25t25 10q16 0 26 -10t10 -25t-10 -25t-26 -10q-15 0 -25 10z" />
    <glyph glyph-name="Zacute" unicode="&#x179;" horiz-adv-x="563" 
d="M10 47l489 616h-479v38h523v-46l-488 -617h498v-38h-543v47zM274 796l98 121l25 -20l-99 -121z" />
    <glyph glyph-name="zacute" unicode="&#x17a;" horiz-adv-x="483" 
d="M20 51l394 412h-384v38h423v-51l-393 -412h403v-38h-443v51zM238 616l117 142l24 -20l-117 -142z" />
    <glyph glyph-name="Zdotaccent" unicode="&#x17b;" horiz-adv-x="563" 
d="M10 47l489 616h-479v38h523v-46l-488 -617h498v-38h-543v47zM266 823q-10 10 -10 25q0 16 10 25.5t26 9.5q15 0 25 -9.5t10 -25.5q0 -15 -10 -25t-25 -10q-16 0 -26 10z" />
    <glyph glyph-name="zdotaccent" unicode="&#x17c;" horiz-adv-x="483" 
d="M20 51l394 412h-384v38h423v-51l-393 -412h403v-38h-443v51zM224 619q-10 10 -10 25q0 16 10 25.5t26 9.5q15 0 25 -9.5t10 -25.5q0 -15 -10 -25t-25 -10q-16 0 -26 10z" />
    <glyph glyph-name="Zcaron" unicode="&#x17d;" horiz-adv-x="563" 
d="M10 47l489 616h-479v38h523v-46l-488 -617h498v-38h-543v47zM147 893l21 25l123 -107l124 107l21 -24l-120 -104h-49z" />
    <glyph glyph-name="zcaron" unicode="&#x17e;" horiz-adv-x="483" 
d="M20 51l394 412h-384v38h423v-51l-393 -412h403v-38h-443v51zM79 732l21 24l149 -127l150 127l21 -23l-146 -125h-49z" />
    <glyph glyph-name="AEacute" unicode="&#x1fc;" horiz-adv-x="836" 
d="M399 701h402v-39h-337v-287h297v-39h-297v-297h347v-39h-388v157h-288l-89 -157h-47zM423 195v465h-1l-266 -465h267zM406 796l98 121l25 -20l-99 -121z" />
    <glyph glyph-name="aeacute" unicode="&#x1fd;" horiz-adv-x="913" 
d="M118.5 -1.5q-46.5 18.5 -72.5 51t-26 73.5q0 57 49 99t128 52l203 24q14 2 22 9t8 18q0 81 -45 119.5t-119 38.5q-76 0 -123.5 -36t-48.5 -91l-38 14q3 43 30.5 77.5t73.5 54t104 19.5q75 0 127.5 -35t69.5 -103q26 63 76.5 100.5t111.5 37.5q63 0 112.5 -33.5t77.5 -93
t28 -134.5q0 -20 -1 -31h-392q9 -95 63 -153t136 -58q58 0 107.5 32t76.5 83l35 -17q-31 -61 -90 -98.5t-129 -37.5q-79 0 -137.5 46.5t-80.5 126.5q-8 -49 -40.5 -88.5t-82.5 -62t-108 -22.5q-59 0 -105.5 18.5zM826 267q0 61 -24 110.5t-65 77.5t-91 28q-49 0 -88 -28.5
t-62 -78t-24 -109.5h354zM330 43q47 25 73.5 68.5t26.5 98.5v54l-232 -27q-60 -8 -99 -39.5t-39 -73.5q0 -46 46 -76t118 -30q59 0 106 25zM454 616l117 142l24 -20l-117 -142z" />
    <glyph glyph-name="Oslashacute" unicode="&#x1fe;" horiz-adv-x="814" 
d="M715.5 576.5q63.5 -93.5 63.5 -225.5q0 -112 -46 -197.5t-130.5 -132t-195.5 -46.5q-51 0 -100 11l-38 -118l-30 10l37 116q-113 36 -177 130t-64 227q0 112 46 197t130.5 131.5t195.5 46.5q52 0 102 -11l34 105l31 -10l-34 -104q112 -36 175.5 -129.5zM132.5 148.5
q56.5 -84.5 156.5 -116.5l208 645q-40 10 -90 10q-99 0 -174 -42t-116 -118t-41 -176q0 -118 56.5 -202.5zM581 56q75 42 116 118t41 177q0 118 -56 201.5t-154 115.5l-209 -645q42 -9 88 -9q99 0 174 42zM363 796l98 121l25 -20l-99 -121z" />
    <glyph glyph-name="oslashacute" unicode="&#x1ff;" horiz-adv-x="584" 
d="M512 409q42 -66 42 -158q0 -81 -32.5 -142.5t-92 -95t-137.5 -33.5q-34 0 -64 6l-73 -226l-30 9l73 225q-79 27 -123.5 94t-44.5 163q0 81 32.5 142t92 94.5t137.5 33.5q36 0 73 -8l64 199l31 -10l-64 -199q74 -28 116 -94zM107 111.5q37 -57.5 103 -80.5l143 445
q-27 7 -61 7q-66 0 -116.5 -29t-78 -81.5t-27.5 -121.5q0 -82 37 -139.5zM408.5 47q50.5 29 78 81.5t27.5 122.5q0 78 -34.5 134.5t-95.5 80.5l-144 -443q28 -5 52 -5q66 0 116.5 29zM221 616l117 142l24 -20l-117 -142z" />
    <glyph glyph-name="uni0218" unicode="&#x218;" horiz-adv-x="587" 
d="M171.5 4.5q-62.5 29.5 -102 84t-49.5 126.5l40 9q11 -95 80 -152.5t172 -57.5q98 0 156 45.5t58 120.5q0 58 -39.5 94t-127.5 57l-126 29q-174 41 -174 164q0 92 60.5 147t162.5 55q92 0 156 -54.5t80 -146.5l-39 -9q-13 78 -66 124.5t-130 46.5q-84 0 -133.5 -43
t-49.5 -114q0 -50 34.5 -81t110.5 -49l126 -30q196 -44 196 -186q0 -63 -31 -110t-89 -73t-135 -26q-78 0 -140.5 29.5zM253 -214q5 -1 14 -1q21 0 33 12.5t12 36.5q0 8 -1 12q-3 -1 -9 -1q-14 0 -24 10t-10 25q0 13 9.5 22.5t23.5 9.5q19 0 29.5 -18t10.5 -49
q0 -41 -18.5 -63.5t-50.5 -22.5q-10 0 -24 3z" />
    <glyph glyph-name="uni0219" unicode="&#x219;" horiz-adv-x="452" 
d="M135 0.5q-47 20.5 -77.5 58t-37.5 84.5l39 11q6 -59 56.5 -97.5t121.5 -38.5q43 0 79 15t56.5 41.5t20.5 58.5q0 36 -31 59.5t-98 39.5l-74 18q-74 18 -107.5 48t-33.5 78q0 41 22 74t60 52t86 19q67 0 115.5 -36.5t60.5 -95.5l-38 -12q-7 47 -45.5 76.5t-92.5 29.5
q-55 0 -92 -30.5t-37 -74.5q0 -34 27 -56t86 -36l75 -18q82 -20 119 -51t37 -81q0 -45 -25.5 -80.5t-70 -55.5t-98.5 -20q-56 0 -103 20.5zM188 -214q5 -1 14 -1q21 0 33 12.5t12 36.5q0 8 -1 12q-3 -1 -9 -1q-14 0 -24 10t-10 25q0 13 9.5 22.5t23.5 9.5q19 0 29.5 -18
t10.5 -49q0 -41 -18.5 -63.5t-50.5 -22.5q-10 0 -24 3z" />
    <glyph glyph-name="uni021A" unicode="&#x21a;" horiz-adv-x="555" 
d="M257 662h-247v39h535v-39h-247v-662h-41v662zM230 -214q5 -1 14 -1q21 0 33 12.5t12 36.5q0 8 -1 12q-3 -1 -9 -1q-14 0 -24 10t-10 25q0 13 9.5 22.5t23.5 9.5q19 0 29.5 -18t10.5 -49q0 -41 -18.5 -63.5t-50.5 -22.5q-10 0 -24 3z" />
    <glyph glyph-name="uni021B" unicode="&#x21b;" horiz-adv-x="410" 
d="M147.5 19q-37.5 39 -37.5 104v341h-110v37h110v153l40 11v-164h221v-37h-221v-339q0 -49 27 -78t73 -29q41 0 71.5 26t35.5 66l36 -13q-8 -51 -49.5 -84t-95.5 -33q-63 0 -100.5 39zM190 -214q5 -1 14 -1q21 0 33 12.5t12 36.5q0 8 -1 12q-3 -1 -9 -1q-14 0 -24 10
t-10 25q0 13 9.5 22.5t23.5 9.5q19 0 29.5 -18t10.5 -49q0 -41 -18.5 -63.5t-50.5 -22.5q-10 0 -24 3z" />
    <glyph glyph-name="uni0237" unicode="&#x237;" horiz-adv-x="147" 
d="M-104 -217l5 36q30 -11 59 -11q41 0 66 24.5t25 65.5v603h40v-604q0 -58 -35 -92.5t-94 -34.5q-34 0 -66 13z" />
    <glyph glyph-name="circumflex" unicode="&#x2c6;" horiz-adv-x="381" 
d="M20 618l146 124h49l146 -124l-21 -24l-150 127l-149 -127z" />
    <glyph glyph-name="caron" unicode="&#x2c7;" horiz-adv-x="381" 
d="M20 732l21 24l149 -127l150 127l21 -23l-146 -125h-49z" />
    <glyph glyph-name="breve" unicode="&#x2d8;" horiz-adv-x="363" 
d="M99.5 616.5q-36.5 18.5 -58 51.5t-21.5 74h32q1 -49 37.5 -80.5t92.5 -31.5q57 0 94 31.5t36 80.5h31q0 -41 -20.5 -74t-57.5 -51.5t-83 -18.5t-82.5 18.5z" />
    <glyph glyph-name="dotaccent" unicode="&#x2d9;" horiz-adv-x="111" 
d="M30 619q-10 10 -10 25q0 16 10 25.5t26 9.5q15 0 25 -9.5t10 -25.5q0 -15 -10 -25t-25 -10q-16 0 -26 10z" />
    <glyph glyph-name="ring" unicode="&#x2da;" horiz-adv-x="213" 
d="M45 622.5q-25 24.5 -25 62.5t25 62.5t63 24.5q37 0 61 -24.5t24 -62.5t-24 -62.5t-61 -24.5q-38 0 -63 24.5zM147.5 644q15.5 16 15.5 41q0 26 -15.5 42t-40.5 16t-41.5 -16.5t-16.5 -41.5t16.5 -41t41.5 -16t40.5 16z" />
    <glyph glyph-name="ogonek" unicode="&#x2db;" horiz-adv-x="235" 
d="M44.5 -190q-19.5 19 -19.5 50q0 43 42 79t134 84l15 -23q-60 -34 -90.5 -53.5t-49 -40.5t-18.5 -44q0 -18 10.5 -29t29.5 -11q20 0 39.5 14t32.5 37l18 -26q-15 -25 -40 -40.5t-51 -15.5q-33 0 -52.5 19z" />
    <glyph glyph-name="tilde" unicode="&#x2dc;" horiz-adv-x="373" 
d="M215 605q-18 15 -39 44q-19 28 -33 41.5t-34 13.5q-27 0 -43.5 -29.5t-16.5 -74.5h-29q0 58 25.5 95.5t66.5 37.5q29 0 47 -16.5t40 -48.5q20 -27 32 -38t30 -11q28 0 45.5 30t17.5 75h29q0 -59 -26 -96.5t-67 -37.5q-27 0 -45 15z" />
    <glyph glyph-name="hungarumlaut" unicode="&#x2dd;" horiz-adv-x="342" 
d="M20 616l117 142l24 -20l-117 -142zM181 616l117 142l24 -20l-117 -142z" />
    <glyph glyph-name="Wgrave" unicode="&#x1e80;" horiz-adv-x="949" 
d="M10 701h43l195 -660h1l193 660h65l194 -660h1l194 660h43l-206 -701h-63l-195 663h-1l-196 -663h-62zM372 897l24 20l99 -121l-24 -20z" />
    <glyph glyph-name="wgrave" unicode="&#x1e81;" horiz-adv-x="792" 
d="M10 501h42l159 -461h1l157 461h53l160 -462h1l157 462h42l-173 -501h-54l-159 461h-1l-156 -461h-54zM263 738l25 20l116 -142l-23 -20z" />
    <glyph glyph-name="Wacute" unicode="&#x1e82;" horiz-adv-x="949" 
d="M10 701h43l195 -660h1l193 660h65l194 -660h1l194 660h43l-206 -701h-63l-195 663h-1l-196 -663h-62zM457 796l98 121l25 -20l-99 -121z" />
    <glyph glyph-name="wacute" unicode="&#x1e83;" horiz-adv-x="792" 
d="M10 501h42l159 -461h1l157 461h53l160 -462h1l157 462h42l-173 -501h-54l-159 461h-1l-156 -461h-54zM384 616l117 142l24 -20l-117 -142z" />
    <glyph glyph-name="Wdieresis" unicode="&#x1e84;" horiz-adv-x="949" 
d="M10 701h43l195 -660h1l193 660h65l194 -660h1l194 660h43l-206 -701h-63l-195 663h-1l-196 -663h-62zM346 823q-10 10 -10 25t10 25t26 10q15 0 25 -10t10 -25t-10 -25t-25 -10q-16 0 -26 10zM552 823q-10 10 -10 25t10 25t25 10q16 0 26 -10t10 -25t-10 -25t-26 -10
q-15 0 -25 10z" />
    <glyph glyph-name="wdieresis" unicode="&#x1e85;" horiz-adv-x="792" 
d="M10 501h42l159 -461h1l157 461h53l160 -462h1l157 462h42l-173 -501h-54l-159 461h-1l-156 -461h-54zM268 618.5q-10 9.5 -10 25.5t10 25.5t26 9.5t25.5 -9.5t9.5 -25.5t-9.5 -25.5t-25.5 -9.5t-26 9.5zM473.5 618.5q-9.5 9.5 -9.5 25.5t9.5 25.5t25.5 9.5t26 -9.5
t10 -25.5t-10 -25.5t-26 -9.5t-25.5 9.5z" />
    <glyph glyph-name="uni1E9E" unicode="&#x1e9e;" horiz-adv-x="544" 
d="M485.5 201.5q28.5 -34.5 28.5 -82.5q0 -58 -45.5 -94t-119.5 -36q-84 0 -135.5 49t-53.5 128l40 13q0 -70 41 -111.5t109 -41.5q56 0 90.5 25.5t34.5 66.5q0 36 -23.5 62.5t-77.5 51.5l-61 28q-57 27 -83 55.5t-26 64.5q0 52 57 85.5t146 40.5q12 33 12 68q0 50 -40 81.5
t-102 31.5q-86 0 -136 -47t-50 -126v-514h-41v515q0 96 61.5 153t165.5 57q80 0 131.5 -42t51.5 -110q0 -27 -6.5 -54t-17.5 -45q-81 -2 -136.5 -27t-55.5 -66q0 -24 21 -44.5t68 -42.5l60 -28q64 -30 92.5 -64.5z" />
    <glyph glyph-name="Ygrave" unicode="&#x1ef2;" horiz-adv-x="550" 
d="M255 284l-245 417h47l218 -374h1l217 374h47l-244 -417v-284h-41v284zM168 897l24 20l99 -121l-24 -20z" />
    <glyph glyph-name="ygrave" unicode="&#x1ef3;" horiz-adv-x="523" 
d="M76 -193q-69 37 -96 93l32 26q24 -50 84 -84t137 -34q91 0 145.5 54t54.5 148v75h-1q-24 -57 -77 -91t-116 -34q-59 0 -105 29.5t-71.5 81.5t-25.5 118v312h40v-312q0 -85 45 -138t119 -53q51 0 95 26t70.5 72.5t26.5 104.5v300h40v-491q0 -74 -29.5 -128t-84 -83
t-126.5 -29q-88 0 -157 37zM122 738l25 20l116 -142l-23 -20z" />
    <glyph glyph-name="endash" unicode="&#x2013;" horiz-adv-x="678" 
d="M50 283h578v-32h-578v32z" />
    <glyph glyph-name="emdash" unicode="&#x2014;" horiz-adv-x="987" 
d="M50 283h887v-32h-887v32z" />
    <glyph glyph-name="quoteleft" unicode="&#x2018;" horiz-adv-x="180" 
d="M134 693q-10 2 -16 2q-24 0 -37.5 -19.5t-10.5 -52.5q4 1 11 1q16 0 25.5 -9.5t9.5 -25.5q0 -14 -9.5 -24t-24.5 -10q-20 0 -31 18t-11 51q0 46 20 71.5t56 25.5q10 0 24 -3z" />
    <glyph glyph-name="quoteright" unicode="&#x2019;" horiz-adv-x="180" 
d="M46 583q12 -2 16 -2q22 0 35.5 16t13.5 43q0 8 -1 13q-4 -1 -11 -1q-16 0 -25.5 9.5t-9.5 25.5q0 15 10 24.5t25 9.5q20 0 30.5 -17.5t10.5 -51.5q0 -46 -20 -71.5t-56 -25.5q-11 0 -24 3z" />
    <glyph glyph-name="quotesinglbase" unicode="&#x201a;" horiz-adv-x="180" 
d="M46 -78q12 -2 16 -2q22 0 35.5 16t13.5 43q0 8 -1 13q-4 -1 -11 -1q-16 0 -25.5 9.5t-9.5 25.5q0 15 10 24.5t25 9.5q20 0 30.5 -17.5t10.5 -51.5q0 -46 -20 -71.5t-56 -25.5q-11 0 -24 3z" />
    <glyph glyph-name="quotedblleft" unicode="&#x201c;" horiz-adv-x="300" 
d="M134 693q-10 2 -16 2q-24 0 -37.5 -19.5t-10.5 -52.5q4 1 11 1q16 0 25.5 -9.5t9.5 -25.5q0 -14 -9.5 -24t-24.5 -10q-20 0 -31 18t-11 51q0 46 20 71.5t56 25.5q10 0 24 -3zM254 693q-10 2 -16 2q-24 0 -37.5 -19.5t-10.5 -52.5q4 1 11 1q16 0 25.5 -9.5t9.5 -25.5
q0 -14 -9.5 -24t-24.5 -10q-20 0 -31 18t-11 51q0 46 20 71.5t56 25.5q10 0 24 -3z" />
    <glyph glyph-name="quotedblright" unicode="&#x201d;" horiz-adv-x="300" 
d="M46 583q12 -2 16 -2q22 0 35.5 16t13.5 43q0 8 -1 13q-4 -1 -11 -1q-16 0 -25.5 9.5t-9.5 25.5q0 15 10 24.5t25 9.5q20 0 30.5 -17.5t10.5 -51.5q0 -46 -20 -71.5t-56 -25.5q-10 0 -24 3zM166 583q12 -2 16 -2q22 0 35.5 16t13.5 43q0 8 -1 13q-4 -1 -11 -1
q-16 0 -25.5 9.5t-9.5 25.5q0 15 10 24.5t25 9.5q20 0 30.5 -17.5t10.5 -51.5q0 -46 -20 -71.5t-56 -25.5q-11 0 -24 3z" />
    <glyph glyph-name="quotedblbase" unicode="&#x201e;" horiz-adv-x="300" 
d="M46 -78q12 -2 16 -2q22 0 35.5 16t13.5 43q0 8 -1 13q-4 -1 -11 -1q-16 0 -25.5 9.5t-9.5 25.5q0 15 10 24.5t25 9.5q20 0 30.5 -17.5t10.5 -51.5q0 -46 -20 -71.5t-56 -25.5q-11 0 -24 3zM166 -78q12 -2 16 -2q22 0 35.5 16t13.5 43q0 8 -1 13q-4 -1 -11 -1
q-16 0 -25.5 9.5t-9.5 25.5q0 15 10 24.5t25 9.5q20 0 30.5 -17.5t10.5 -51.5q0 -46 -20 -71.5t-56 -25.5q-10 0 -24 3z" />
    <glyph glyph-name="bullet" unicode="&#x2022;" horiz-adv-x="225" 
d="M60 258.5q-20 20.5 -20 51.5t20 51.5t53 20.5q31 0 51.5 -20.5t20.5 -51.5t-20.5 -51.5t-51.5 -20.5q-33 0 -53 20.5z" />
    <glyph glyph-name="ellipsis" unicode="&#x2026;" horiz-adv-x="446" 
d="M50 -1q-10 10 -10 26q0 15 10 25t26 10t25.5 -10t9.5 -25t-10 -25.5t-25 -10.5q-16 0 -26 10zM198 -1q-10 10 -10 26q0 15 10 25t26 10t25.5 -10t9.5 -25t-10 -25.5t-25 -10.5q-16 0 -26 10zM345 -1q-10 10 -10 26q0 15 10 25t26 10t25.5 -10t9.5 -25t-10 -25.5
t-25 -10.5q-16 0 -26 10z" />
    <glyph glyph-name="perthousand" unicode="&#x2030;" horiz-adv-x="1457" 
d="M221 7l502 734l27 -17l-503 -734zM127.5 365q-45.5 26 -71.5 71.5t-26 102.5t26 102.5t71.5 71.5t102.5 26q56 0 101.5 -26t71 -71.5t25.5 -102.5t-25.5 -102.5t-70.5 -71.5t-102 -26t-102.5 26zM312.5 399q36.5 21 57.5 58t21 83t-21 82.5t-57.5 57.5t-81.5 21
q-47 0 -84 -21t-58 -57.5t-21 -82.5t21 -83t58 -58t84 -21q45 0 81.5 21zM635.5 15q-45.5 26 -71.5 71.5t-26 102.5t26 102.5t71.5 71.5t102.5 26q56 0 101.5 -26t71.5 -71.5t26 -102.5t-25.5 -102.5t-71 -71.5t-102.5 -26t-102.5 26zM1126.5 14.5q-45.5 25.5 -71.5 70.5
t-26 102q0 58 25.5 104t71 72t103.5 26q56 0 101.5 -26t71 -71.5t25.5 -102.5t-25.5 -102.5t-70.5 -71.5t-102 -26t-102.5 25.5zM820.5 49q36.5 21 57 58t20.5 83t-20.5 82.5t-57 57.5t-81.5 21q-47 0 -84.5 -21t-58.5 -57.5t-21 -82.5t21 -83t58.5 -58t84.5 -21
q45 0 81.5 21zM1312.5 49q36.5 21 57 58t20.5 83t-20.5 82.5t-57 57.5t-82.5 21q-47 0 -84.5 -21t-58.5 -57.5t-21 -82.5t21 -83t58.5 -58t84.5 -21q46 0 82.5 21z" />
    <glyph glyph-name="guilsinglleft" unicode="&#x2039;" horiz-adv-x="295" 
d="M30 251l211 260l24 -20l-195 -240l194 -241l-23 -20z" />
    <glyph glyph-name="guilsinglright" unicode="&#x203a;" horiz-adv-x="295" 
d="M31 10l194 241l-195 240l24 20l211 -260l-211 -261z" />
    <glyph glyph-name="lira" unicode="&#x20a4;" horiz-adv-x="532" 
d="M30 46q48 14 79 74.5t31 142.5h-100v32h100v66h-100v32h101l-1 135q0 57 23 102t62.5 70.5t88.5 25.5q50 0 91 -26.5t66.5 -74t30.5 -107.5l-40 -7q-7 78 -47.5 127.5t-100.5 49.5q-58 0 -95.5 -45t-38.5 -115l1 -135h270v-32h-271v-66h271v-32h-271q0 -78 -28.5 -140
t-72.5 -84v-1h420v-38h-469v46z" />
    <glyph glyph-name="Euro" unicode="&#x20ac;" horiz-adv-x="839" 
d="M819 260q-12 -86 -56.5 -150.5t-115 -99.5t-158.5 -35q-101 0 -178.5 38t-125 108.5t-59.5 166.5h-96v32h93q-1 10 -1 31q0 26 1 39h-93v32h96q19 142 108 223t231 81q74 0 135 -31t101.5 -88t54.5 -134l-41 -8q-17 101 -85.5 161.5t-164.5 60.5q-122 0 -200.5 -71
t-96.5 -194h419v-32h-423q-1 -13 -1 -39q0 -21 1 -31h423v-32h-420q18 -127 103.5 -200.5t218.5 -73.5q77 0 139 31t101.5 89t49.5 135z" />
    <glyph glyph-name="trademark" unicode="&#x2122;" horiz-adv-x="977" 
d="M168 665h-158v36h354v-36h-158v-385h-38v385zM405 701h59l197 -381l197 381h59v-421h-38v380l-197 -380h-42l-197 380v-380h-38v421z" />
    <glyph glyph-name="arrowleft" unicode="&#x2190;" horiz-adv-x="581" 
d="M35 261l220 229l23 -22l-184 -191h452v-32h-452l184 -191l-23 -22z" />
    <glyph glyph-name="arrowup" unicode="&#x2191;" horiz-adv-x="528" 
d="M264 511l229 -220l-22 -23l-191 184v-452h-32v452l-191 -184l-22 23z" />
    <glyph glyph-name="arrowright" unicode="&#x2192;" horiz-adv-x="581" 
d="M303 54l184 191h-452v32h452l-184 191l23 22l220 -229l-220 -229z" />
    <glyph glyph-name="arrowdown" unicode="&#x2193;" horiz-adv-x="528" 
d="M57 233l191 -184v452h32v-452l191 184l22 -23l-229 -220l-229 220z" />
    <glyph glyph-name="arrowboth" unicode="&#x2194;" horiz-adv-x="909" 
d="M874 261l-220 -229l-23 22l184 191h-721l184 -191l-23 -22l-220 229l220 229l23 -22l-184 -191h721l-184 191l23 22z" />
    <glyph glyph-name="arrowupdn" unicode="&#x2195;" horiz-adv-x="528" 
d="M471 103l22 -23l-229 -220l-229 220l22 23l191 -184v663l-191 -184l-22 23l229 220l229 -220l-22 -23l-191 184v-663z" />
    <glyph glyph-name="uni2196" unicode="&#x2196;" horiz-adv-x="474" 
d="M384 415l-265 -5l320 -319l-23 -23l-319 320l-5 -265h-32l6 318l318 6v-32z" />
    <glyph glyph-name="uni2197" unicode="&#x2197;" horiz-adv-x="474" 
d="M408 441l6 -318h-32l-5 265l-320 -320l-22 23l320 319l-266 5l1 32z" />
    <glyph glyph-name="uni2198" unicode="&#x2198;" horiz-adv-x="474" 
d="M408 76l-318 -7l-1 32l265 5l-319 320l22 22l320 -319l5 265l32 -1z" />
    <glyph glyph-name="uni2199" unicode="&#x2199;" horiz-adv-x="474" 
d="M92 394l5 -265l320 319l22 -22l-320 -320l266 -5l-1 -32l-318 7l-6 317z" />
    <glyph glyph-name="minus" unicode="&#x2212;" horiz-adv-x="510" 
d="M50 393h410v-38h-410v38z" />
    <glyph glyph-name="notequal" unicode="&#x2260;" horiz-adv-x="570" 
d="M332 410l-49 -136h237v-39h-251l-91 -252l-30 10l87 242h-185v39h199l49 136h-248v38h261l83 230l31 -9l-80 -221h175v-38h-188z" />
    <glyph glyph-name="lessequal" unicode="&#x2264;" horiz-adv-x="443" 
d="M50 374v52l327 167l16 -36l-308 -157l308 -157l-15 -36zM51 127h342v-32h-342v32z" />
    <glyph glyph-name="greaterequal" unicode="&#x2265;" horiz-adv-x="443" 
d="M51 243l307 157l-308 157l16 36l327 -167v-52l-327 -167zM50 95v32h343v-32h-343z" />
    <glyph glyph-name="uniF6C3" unicode="&#xf6c3;" horiz-adv-x="0" 
d="M-108 -214q5 -1 14 -1q21 0 33 12.5t12 36.5q0 8 -1 12q-3 -1 -9 -1q-14 0 -24 10t-10 25q0 13 9.5 22.5t23.5 9.5q19 0 29.5 -18t10.5 -49q0 -41 -18.5 -63.5t-50.5 -22.5q-10 0 -24 3z" />
    <glyph glyph-name="G.alt1" horiz-adv-x="798" 
d="M214 23.5q-84 48.5 -131.5 134t-47.5 193.5t45 193.5t125.5 133.5t181.5 48q70 0 132 -28t107 -78.5t64 -114.5l-39 -10q-29 87 -101 139.5t-165 52.5q-88 0 -158.5 -43.5t-110.5 -120t-40 -172.5t42 -173t116.5 -120.5t169.5 -43.5q90 0 162 42t113 117t41 170h-456v39
h498q1 -12 1 -29q0 -108 -45.5 -194t-127 -135t-186.5 -49q-106 0 -190 48.5z" />
    <glyph glyph-name="K.alt1" horiz-adv-x="496" 
d="M60 701h41v-318h1l328 318h57l-346 -332l355 -369h-56l-338 356h-1v-356h-41v701z" />
    <glyph glyph-name="R.alt1" horiz-adv-x="638" 
d="M60 701h311q103 0 165 -52t62 -138q0 -61 -33.5 -107t-96.5 -66v-1q47 -11 74 -43.5t27 -81.5v-212h-41v210q0 46 -31.5 75.5t-82.5 29.5h-313v-315h-41v701zM371 355q85 0 135.5 41.5t50.5 111.5t-50.5 112t-135.5 42h-270v-307h270z" />
    <glyph glyph-name="R.alt2" horiz-adv-x="628" 
d="M60 701h311q103 0 165 -52t62 -138q0 -83 -57.5 -134.5t-152.5 -54.5l202 -322h-49l-196 315h-244v-315h-41v701zM371 355q85 0 135.5 41.5t50.5 111.5t-50.5 112t-135.5 42h-270v-307h270z" />
    <glyph glyph-name="a.alt1" horiz-adv-x="515" 
d="M70.5 17q-50.5 37 -50.5 100t56.5 105t196.5 62l131 18q27 3 27 27q0 79 -46.5 117.5t-123.5 38.5q-52 0 -94 -21t-66.5 -56t-24.5 -75l-39 15q3 47 33.5 87.5t80.5 64.5t109 24q95 0 152.5 -50.5t57.5 -146.5v-327h-38l-2 120h-1q-25 -65 -84.5 -102.5t-138.5 -37.5
q-85 0 -135.5 37zM322.5 45q50.5 27 79 76t28.5 114v33l-153 -22q-124 -17 -170.5 -49t-46.5 -80q0 -45 40.5 -72t108.5 -27q63 0 113.5 27z" />
    <glyph glyph-name="a.alt2" horiz-adv-x="602" 
d="M156 15q-59 35 -92.5 96.5t-33.5 139.5q0 77 33.5 139t92.5 96.5t133 34.5q76 0 135 -37.5t87 -101.5h1l2 119h38v-501h-38l-1 120h-1q-29 -65 -88 -102.5t-135 -37.5q-74 0 -133 35zM404.5 48q50.5 30 79.5 83.5t29 119.5t-29 119t-79.5 83t-113.5 30t-113.5 -30
t-79 -83t-28.5 -119q0 -67 28.5 -120t79 -83t113.5 -30t113.5 30z" />
    <glyph glyph-name="k.alt1" horiz-adv-x="415" 
d="M50 731h40v-452h1l254 222h59l-275 -237l286 -264h-58l-266 246h-1v-246h-40v731z" />
    <glyph glyph-name="u.alt1" horiz-adv-x="526" 
d="M102 36q-57 56 -57 156v309h40v-309q0 -83 46.5 -128.5t131.5 -45.5t131.5 45.5t46.5 128.5v309h40v-309q0 -100 -57.5 -156t-161.5 -56q-103 0 -160 56z" />
    <glyph glyph-name="y.alt1" horiz-adv-x="504" 
d="M255 41l-245 460h44l219 -412h1l178 412h42l-306 -711h-42z" />
    <glyph glyph-name="agrave.alt1" horiz-adv-x="515" 
d="M70.5 17q-50.5 37 -50.5 100t56.5 105t196.5 62l131 18q27 3 27 27q0 79 -46.5 117.5t-123.5 38.5q-52 0 -94 -21t-66.5 -56t-24.5 -75l-39 15q3 47 33.5 87.5t80.5 64.5t109 24q95 0 152.5 -50.5t57.5 -146.5v-327h-38l-2 120h-1q-25 -65 -84.5 -102.5t-138.5 -37.5
q-85 0 -135.5 37zM322.5 45q50.5 27 79 76t28.5 114v33l-153 -22q-124 -17 -170.5 -49t-46.5 -80q0 -45 40.5 -72t108.5 -27q63 0 113.5 27zM126 738l25 20l116 -142l-23 -20z" />
    <glyph glyph-name="agrave.alt2" horiz-adv-x="602" 
d="M156 15q-59 35 -92.5 96.5t-33.5 139.5q0 77 33.5 139t92.5 96.5t133 34.5q76 0 135 -37.5t87 -101.5h1l2 119h38v-501h-38l-1 120h-1q-29 -65 -88 -102.5t-135 -37.5q-74 0 -133 35zM404.5 48q50.5 30 79.5 83.5t29 119.5t-29 119t-79.5 83t-113.5 30t-113.5 -30
t-79 -83t-28.5 -119q0 -67 28.5 -120t79 -83t113.5 -30t113.5 30zM158 738l25 20l116 -142l-23 -20z" />
    <glyph glyph-name="aacute.alt1" horiz-adv-x="515" 
d="M70.5 17q-50.5 37 -50.5 100t56.5 105t196.5 62l131 18q27 3 27 27q0 79 -46.5 117.5t-123.5 38.5q-52 0 -94 -21t-66.5 -56t-24.5 -75l-39 15q3 47 33.5 87.5t80.5 64.5t109 24q95 0 152.5 -50.5t57.5 -146.5v-327h-38l-2 120h-1q-25 -65 -84.5 -102.5t-138.5 -37.5
q-85 0 -135.5 37zM322.5 45q50.5 27 79 76t28.5 114v33l-153 -22q-124 -17 -170.5 -49t-46.5 -80q0 -45 40.5 -72t108.5 -27q63 0 113.5 27zM248 616l117 142l24 -20l-117 -142z" />
    <glyph glyph-name="aacute.alt2" horiz-adv-x="602" 
d="M156 15q-59 35 -92.5 96.5t-33.5 139.5q0 77 33.5 139t92.5 96.5t133 34.5q76 0 135 -37.5t87 -101.5h1l2 119h38v-501h-38l-1 120h-1q-29 -65 -88 -102.5t-135 -37.5q-74 0 -133 35zM404.5 48q50.5 30 79.5 83.5t29 119.5t-29 119t-79.5 83t-113.5 30t-113.5 -30
t-79 -83t-28.5 -119q0 -67 28.5 -120t79 -83t113.5 -30t113.5 30zM280 616l117 142l24 -20l-117 -142z" />
    <glyph glyph-name="atilde.alt1" horiz-adv-x="515" 
d="M70.5 17q-50.5 37 -50.5 100t56.5 105t196.5 62l131 18q27 3 27 27q0 79 -46.5 117.5t-123.5 38.5q-52 0 -94 -21t-66.5 -56t-24.5 -75l-39 15q3 47 33.5 87.5t80.5 64.5t109 24q95 0 152.5 -50.5t57.5 -146.5v-327h-38l-2 120h-1q-25 -65 -84.5 -102.5t-138.5 -37.5
q-85 0 -135.5 37zM322.5 45q50.5 27 79 76t28.5 114v33l-153 -22q-124 -17 -170.5 -49t-46.5 -80q0 -45 40.5 -72t108.5 -27q63 0 113.5 27zM291 605q-18 15 -39 44q-19 28 -33 41.5t-34 13.5q-27 0 -43.5 -29.5t-16.5 -74.5h-29q0 58 25.5 95.5t66.5 37.5q29 0 47 -16.5
t40 -48.5q20 -27 32 -38t30 -11q28 0 45.5 30t17.5 75h29q0 -59 -26 -96.5t-67 -37.5q-27 0 -45 15z" />
    <glyph glyph-name="atilde.alt2" horiz-adv-x="602" 
d="M156 15q-59 35 -92.5 96.5t-33.5 139.5q0 77 33.5 139t92.5 96.5t133 34.5q76 0 135 -37.5t87 -101.5h1l2 119h38v-501h-38l-1 120h-1q-29 -65 -88 -102.5t-135 -37.5q-74 0 -133 35zM404.5 48q50.5 30 79.5 83.5t29 119.5t-29 119t-79.5 83t-113.5 30t-113.5 -30
t-79 -83t-28.5 -119q0 -67 28.5 -120t79 -83t113.5 -30t113.5 30zM323 605q-18 15 -39 44q-19 28 -33 41.5t-34 13.5q-27 0 -43.5 -29.5t-16.5 -74.5h-29q0 58 25.5 95.5t66.5 37.5q29 0 47 -16.5t40 -48.5q20 -27 32 -38t30 -11q28 0 45.5 30t17.5 75h29q0 -59 -26 -96.5
t-67 -37.5q-27 0 -45 15z" />
    <glyph glyph-name="adieresis.alt1" horiz-adv-x="515" 
d="M70.5 17q-50.5 37 -50.5 100t56.5 105t196.5 62l131 18q27 3 27 27q0 79 -46.5 117.5t-123.5 38.5q-52 0 -94 -21t-66.5 -56t-24.5 -75l-39 15q3 47 33.5 87.5t80.5 64.5t109 24q95 0 152.5 -50.5t57.5 -146.5v-327h-38l-2 120h-1q-25 -65 -84.5 -102.5t-138.5 -37.5
q-85 0 -135.5 37zM322.5 45q50.5 27 79 76t28.5 114v33l-153 -22q-124 -17 -170.5 -49t-46.5 -80q0 -45 40.5 -72t108.5 -27q63 0 113.5 27zM131 618.5q-10 9.5 -10 25.5t10 25.5t26 9.5t25.5 -9.5t9.5 -25.5t-9.5 -25.5t-25.5 -9.5t-26 9.5zM336.5 618.5
q-9.5 9.5 -9.5 25.5t9.5 25.5t25.5 9.5t26 -9.5t10 -25.5t-10 -25.5t-26 -9.5t-25.5 9.5z" />
    <glyph glyph-name="adieresis.alt2" horiz-adv-x="602" 
d="M156 15q-59 35 -92.5 96.5t-33.5 139.5q0 77 33.5 139t92.5 96.5t133 34.5q76 0 135 -37.5t87 -101.5h1l2 119h38v-501h-38l-1 120h-1q-29 -65 -88 -102.5t-135 -37.5q-74 0 -133 35zM404.5 48q50.5 30 79.5 83.5t29 119.5t-29 119t-79.5 83t-113.5 30t-113.5 -30
t-79 -83t-28.5 -119q0 -67 28.5 -120t79 -83t113.5 -30t113.5 30zM163 618.5q-10 9.5 -10 25.5t10 25.5t26 9.5t25.5 -9.5t9.5 -25.5t-9.5 -25.5t-25.5 -9.5t-26 9.5zM368.5 618.5q-9.5 9.5 -9.5 25.5t9.5 25.5t25.5 9.5t26 -9.5t10 -25.5t-10 -25.5t-26 -9.5t-25.5 9.5z
" />
    <glyph glyph-name="aring.alt1" horiz-adv-x="515" 
d="M70.5 17q-50.5 37 -50.5 100t56.5 105t196.5 62l131 18q27 3 27 27q0 79 -46.5 117.5t-123.5 38.5q-52 0 -94 -21t-66.5 -56t-24.5 -75l-39 15q3 47 33.5 87.5t80.5 64.5t109 24q95 0 152.5 -50.5t57.5 -146.5v-327h-38l-2 120h-1q-25 -65 -84.5 -102.5t-138.5 -37.5
q-85 0 -135.5 37zM322.5 45q50.5 27 79 76t28.5 114v33l-153 -22q-124 -17 -170.5 -49t-46.5 -80q0 -45 40.5 -72t108.5 -27q63 0 113.5 27zM198 622.5q-25 24.5 -25 62.5t25 62.5t63 24.5q37 0 61 -24.5t24 -62.5t-24 -62.5t-61 -24.5q-38 0 -63 24.5zM300.5 644
q15.5 16 15.5 41q0 26 -15.5 42t-40.5 16t-41.5 -16.5t-16.5 -41.5t16.5 -41t41.5 -16t40.5 16z" />
    <glyph glyph-name="aring.alt2" horiz-adv-x="602" 
d="M156 15q-59 35 -92.5 96.5t-33.5 139.5q0 77 33.5 139t92.5 96.5t133 34.5q76 0 135 -37.5t87 -101.5h1l2 119h38v-501h-38l-1 120h-1q-29 -65 -88 -102.5t-135 -37.5q-74 0 -133 35zM404.5 48q50.5 30 79.5 83.5t29 119.5t-29 119t-79.5 83t-113.5 30t-113.5 -30
t-79 -83t-28.5 -119q0 -67 28.5 -120t79 -83t113.5 -30t113.5 30zM230 622.5q-25 24.5 -25 62.5t25 62.5t63 24.5q37 0 61 -24.5t24 -62.5t-24 -62.5t-61 -24.5q-38 0 -63 24.5zM332.5 644q15.5 16 15.5 41q0 26 -15.5 42t-40.5 16t-41.5 -16.5t-16.5 -41.5t16.5 -41
t41.5 -16t40.5 16z" />
    <glyph glyph-name="amacron.alt1" horiz-adv-x="515" 
d="M70.5 17q-50.5 37 -50.5 100t56.5 105t196.5 62l131 18q27 3 27 27q0 79 -46.5 117.5t-123.5 38.5q-52 0 -94 -21t-66.5 -56t-24.5 -75l-39 15q3 47 33.5 87.5t80.5 64.5t109 24q95 0 152.5 -50.5t57.5 -146.5v-327h-38l-2 120h-1q-25 -65 -84.5 -102.5t-138.5 -37.5
q-85 0 -135.5 37zM322.5 45q50.5 27 79 76t28.5 114v33l-153 -22q-124 -17 -170.5 -49t-46.5 -80q0 -45 40.5 -72t108.5 -27q63 0 113.5 27zM119 623h281v-31h-281v31z" />
    <glyph glyph-name="amacron.alt2" horiz-adv-x="602" 
d="M156 15q-59 35 -92.5 96.5t-33.5 139.5q0 77 33.5 139t92.5 96.5t133 34.5q76 0 135 -37.5t87 -101.5h1l2 119h38v-501h-38l-1 120h-1q-29 -65 -88 -102.5t-135 -37.5q-74 0 -133 35zM404.5 48q50.5 30 79.5 83.5t29 119.5t-29 119t-79.5 83t-113.5 30t-113.5 -30
t-79 -83t-28.5 -119q0 -67 28.5 -120t79 -83t113.5 -30t113.5 30zM151 623h281v-31h-281v31z" />
    <glyph glyph-name="abreve.alt1" horiz-adv-x="515" 
d="M70.5 17q-50.5 37 -50.5 100t56.5 105t196.5 62l131 18q27 3 27 27q0 79 -46.5 117.5t-123.5 38.5q-52 0 -94 -21t-66.5 -56t-24.5 -75l-39 15q3 47 33.5 87.5t80.5 64.5t109 24q95 0 152.5 -50.5t57.5 -146.5v-327h-38l-2 120h-1q-25 -65 -84.5 -102.5t-138.5 -37.5
q-85 0 -135.5 37zM322.5 45q50.5 27 79 76t28.5 114v33l-153 -22q-124 -17 -170.5 -49t-46.5 -80q0 -45 40.5 -72t108.5 -27q63 0 113.5 27zM177.5 616.5q-36.5 18.5 -58 51.5t-21.5 74h32q1 -49 37.5 -80.5t92.5 -31.5q57 0 94 31.5t36 80.5h31q0 -41 -20.5 -74
t-57.5 -51.5t-83 -18.5t-82.5 18.5z" />
    <glyph glyph-name="abreve.alt2" horiz-adv-x="602" 
d="M156 15q-59 35 -92.5 96.5t-33.5 139.5q0 77 33.5 139t92.5 96.5t133 34.5q76 0 135 -37.5t87 -101.5h1l2 119h38v-501h-38l-1 120h-1q-29 -65 -88 -102.5t-135 -37.5q-74 0 -133 35zM404.5 48q50.5 30 79.5 83.5t29 119.5t-29 119t-79.5 83t-113.5 30t-113.5 -30
t-79 -83t-28.5 -119q0 -67 28.5 -120t79 -83t113.5 -30t113.5 30zM209.5 616.5q-36.5 18.5 -58 51.5t-21.5 74h32q1 -49 37.5 -80.5t92.5 -31.5q57 0 94 31.5t36 80.5h31q0 -41 -20.5 -74t-57.5 -51.5t-83 -18.5t-82.5 18.5z" />
    <glyph glyph-name="aogonek.alt1" horiz-adv-x="515" 
d="M379.5 -53.5q-30.5 -19.5 -49 -40.5t-18.5 -44q0 -18 10.5 -29t29.5 -11q20 0 39.5 14t32.5 37l18 -26q-15 -25 -40 -40.5t-51 -15.5q-33 0 -52.5 19t-19.5 50q0 40 37 74t116 77l-2 109h-1q-25 -65 -84.5 -102.5t-138.5 -37.5q-85 0 -135.5 37t-50.5 100t56.5 105
t196.5 62l131 18q27 3 27 27q0 79 -46.5 117.5t-123.5 38.5q-52 0 -94 -21t-66.5 -56t-24.5 -75l-39 15q3 47 33.5 87.5t80.5 64.5t109 24q95 0 152.5 -50.5t57.5 -146.5v-327q-60 -34 -90.5 -53.5zM430 268l-153 -22q-124 -17 -170.5 -49t-46.5 -80q0 -45 40.5 -72
t108.5 -27q63 0 113.5 27t79 76t28.5 114v33z" />
    <glyph glyph-name="aogonek.alt2" horiz-adv-x="602" 
d="M461.5 -53.5q-30.5 -19.5 -49 -40.5t-18.5 -44q0 -18 10.5 -29t29.5 -11q20 0 39.5 14t32.5 37l18 -26q-15 -25 -40 -40.5t-51 -15.5q-33 0 -52.5 19t-19.5 50q0 40 37 74t116 77l-1 109h-1q-29 -65 -88 -102.5t-135 -37.5q-74 0 -133 35t-92.5 96.5t-33.5 139.5
q0 77 33.5 139t92.5 96.5t133 34.5q76 0 135 -37.5t87 -101.5h1l2 119h38v-501q-60 -34 -90.5 -53.5zM404.5 48q50.5 30 79.5 83.5t29 119.5t-29 119t-79.5 83t-113.5 30t-113.5 -30t-79 -83t-28.5 -119q0 -67 28.5 -120t79 -83t113.5 -30t113.5 30z" />
    <glyph glyph-name="acircumflex.alt1" horiz-adv-x="515" 
d="M70.5 17q-50.5 37 -50.5 100t56.5 105t196.5 62l131 18q27 3 27 27q0 79 -46.5 117.5t-123.5 38.5q-52 0 -94 -21t-66.5 -56t-24.5 -75l-39 15q3 47 33.5 87.5t80.5 64.5t109 24q95 0 152.5 -50.5t57.5 -146.5v-327h-38l-2 120h-1q-25 -65 -84.5 -102.5t-138.5 -37.5
q-85 0 -135.5 37zM322.5 45q50.5 27 79 76t28.5 114v33l-153 -22q-124 -17 -170.5 -49t-46.5 -80q0 -45 40.5 -72t108.5 -27q63 0 113.5 27zM90 618l146 124h49l146 -124l-21 -24l-150 127l-149 -127z" />
    <glyph glyph-name="acircumflex.alt2" horiz-adv-x="602" 
d="M156 15q-59 35 -92.5 96.5t-33.5 139.5q0 77 33.5 139t92.5 96.5t133 34.5q76 0 135 -37.5t87 -101.5h1l2 119h38v-501h-38l-1 120h-1q-29 -65 -88 -102.5t-135 -37.5q-74 0 -133 35zM404.5 48q50.5 30 79.5 83.5t29 119.5t-29 119t-79.5 83t-113.5 30t-113.5 -30
t-79 -83t-28.5 -119q0 -67 28.5 -120t79 -83t113.5 -30t113.5 30zM122 618l146 124h49l146 -124l-21 -24l-150 127l-149 -127z" />
    <glyph glyph-name="Gcircumflex.alt1" horiz-adv-x="798" 
d="M214 23.5q-84 48.5 -131.5 134t-47.5 193.5t45 193.5t125.5 133.5t181.5 48q70 0 132 -28t107 -78.5t64 -114.5l-39 -10q-29 87 -101 139.5t-165 52.5q-88 0 -158.5 -43.5t-110.5 -120t-40 -172.5t42 -173t116.5 -120.5t169.5 -43.5q90 0 162 42t113 117t41 170h-456v39
h498q1 -12 1 -29q0 -108 -45.5 -194t-127 -135t-186.5 -49q-106 0 -190 48.5zM242 808l120 104h49l120 -104l-21 -24l-124 107l-123 -107z" />
    <glyph glyph-name="Gbreve.alt1" horiz-adv-x="798" 
d="M214 23.5q-84 48.5 -131.5 134t-47.5 193.5t45 193.5t125.5 133.5t181.5 48q70 0 132 -28t107 -78.5t64 -114.5l-39 -10q-29 87 -101 139.5t-165 52.5q-88 0 -158.5 -43.5t-110.5 -120t-40 -172.5t42 -173t116.5 -120.5t169.5 -43.5q90 0 162 42t113 117t41 170h-456v39
h498q1 -12 1 -29q0 -108 -45.5 -194t-127 -135t-186.5 -49q-106 0 -190 48.5zM285.5 824.5q-39.5 34.5 -39.5 87.5h32q0 -39 30.5 -64.5t77.5 -25.5t78 25.5t31 64.5h31q0 -53 -39.5 -87.5t-100.5 -34.5t-100.5 34.5z" />
    <glyph glyph-name="Gdotaccent.alt1" horiz-adv-x="798" 
d="M214 23.5q-84 48.5 -131.5 134t-47.5 193.5t45 193.5t125.5 133.5t181.5 48q70 0 132 -28t107 -78.5t64 -114.5l-39 -10q-29 87 -101 139.5t-165 52.5q-88 0 -158.5 -43.5t-110.5 -120t-40 -172.5t42 -173t116.5 -120.5t169.5 -43.5q90 0 162 42t113 117t41 170h-456v39
h498q1 -12 1 -29q0 -108 -45.5 -194t-127 -135t-186.5 -49q-106 0 -190 48.5zM362 823q-10 10 -10 25q0 16 10 25.5t26 9.5q15 0 25 -9.5t10 -25.5q0 -15 -10 -25t-25 -10q-16 0 -26 10z" />
    <glyph glyph-name="uni0122.alt1" horiz-adv-x="798" 
d="M214 23.5q-84 48.5 -131.5 134t-47.5 193.5t45 193.5t125.5 133.5t181.5 48q70 0 132 -28t107 -78.5t64 -114.5l-39 -10q-29 87 -101 139.5t-165 52.5q-88 0 -158.5 -43.5t-110.5 -120t-40 -172.5t42 -173t116.5 -120.5t169.5 -43.5q90 0 162 42t113 117t41 170h-456v39
h498q1 -12 1 -29q0 -108 -45.5 -194t-127 -135t-186.5 -49q-106 0 -190 48.5zM356 -214q5 -1 14 -1q21 0 33 12.5t12 36.5q0 8 -1 12q-3 -1 -9 -1q-14 0 -24 10t-10 25q0 13 9.5 22.5t23.5 9.5q19 0 29.5 -18t10.5 -49q0 -41 -18.5 -63.5t-50.5 -22.5q-10 0 -24 3z" />
    <glyph glyph-name="IJacute" horiz-adv-x="614" 
d="M63 794l59 123l28 -14l-59 -123zM518 794l59 123l28 -14l-60 -123zM62 701h41v-701h-41v701zM246.5 20q-52.5 44 -63.5 117l38 14q8 -62 49 -99t105 -37q69 0 108 45t39 125v516h41v-518q0 -97 -49.5 -152t-136.5 -55q-78 0 -130.5 44z" />
    <glyph glyph-name="ijacute" horiz-adv-x="287" 
d="M54 614l71 144l28 -15l-71 -143zM193 614l71 144l28 -15l-71 -143zM36 -217l5 36q30 -11 59 -11q41 0 66 24.5t25 65.5v603h40v-604q0 -58 -35 -92.5t-94 -34.5q-33 0 -66 13zM50 501h40v-501h-40v501z" />
    <glyph glyph-name="uni0136.alt1" horiz-adv-x="496" 
d="M60 701h41v-318h1l328 318h57l-346 -332l355 -369h-56l-338 356h-1v-356h-41v701zM227 -214q5 -1 14 -1q21 0 33 12.5t12 36.5q0 8 -1 12q-3 -1 -9 -1q-14 0 -24 10t-10 25q0 13 9.5 22.5t23.5 9.5q19 0 29.5 -18t10.5 -49q0 -41 -18.5 -63.5t-50.5 -22.5q-10 0 -24 3z
" />
    <glyph glyph-name="uni0137.alt1" horiz-adv-x="415" 
d="M50 731h40v-452h1l254 222h59l-275 -237l286 -264h-58l-266 246h-1v-246h-40v731zM171 -214q5 -1 14 -1q21 0 33 12.5t12 36.5q0 8 -1 12q-3 -1 -9 -1q-14 0 -24 10t-10 25q0 13 9.5 22.5t23.5 9.5q19 0 29.5 -18t10.5 -49q0 -41 -18.5 -63.5t-50.5 -22.5q-10 0 -24 3z
" />
    <glyph glyph-name="Racute.alt1" horiz-adv-x="638" 
d="M60 701h311q103 0 165 -52t62 -138q0 -61 -33.5 -107t-96.5 -66v-1q47 -11 74 -43.5t27 -81.5v-212h-41v210q0 46 -31.5 75.5t-82.5 29.5h-313v-315h-41v701zM371 355q85 0 135.5 41.5t50.5 111.5t-50.5 112t-135.5 42h-270v-307h270zM286 796l98 121l25 -20l-99 -121z
" />
    <glyph glyph-name="Racute.alt2" horiz-adv-x="628" 
d="M60 701h311q103 0 165 -52t62 -138q0 -83 -57.5 -134.5t-152.5 -54.5l202 -322h-49l-196 315h-244v-315h-41v701zM371 355q85 0 135.5 41.5t50.5 111.5t-50.5 112t-135.5 42h-270v-307h270zM287 796l98 121l25 -20l-99 -121z" />
    <glyph glyph-name="Rcaron.alt1" horiz-adv-x="638" 
d="M60 701h311q103 0 165 -52t62 -138q0 -61 -33.5 -107t-96.5 -66v-1q47 -11 74 -43.5t27 -81.5v-212h-41v210q0 46 -31.5 75.5t-82.5 29.5h-313v-315h-41v701zM371 355q85 0 135.5 41.5t50.5 111.5t-50.5 112t-135.5 42h-270v-307h270zM159 893l21 25l123 -107l124 107
l21 -24l-120 -104h-49z" />
    <glyph glyph-name="Rcaron.alt2" horiz-adv-x="628" 
d="M60 701h311q103 0 165 -52t62 -138q0 -83 -57.5 -134.5t-152.5 -54.5l202 -322h-49l-196 315h-244v-315h-41v701zM371 355q85 0 135.5 41.5t50.5 111.5t-50.5 112t-135.5 42h-270v-307h270zM159 893l21 25l123 -107l124 107l21 -24l-120 -104h-49z" />
    <glyph glyph-name="uni0156.alt1" horiz-adv-x="638" 
d="M60 701h311q103 0 165 -52t62 -138q0 -61 -33.5 -107t-96.5 -66v-1q47 -11 74 -43.5t27 -81.5v-212h-41v210q0 46 -31.5 75.5t-82.5 29.5h-313v-315h-41v701zM371 355q85 0 135.5 41.5t50.5 111.5t-50.5 112t-135.5 42h-270v-307h270zM265 -214q5 -1 14 -1q21 0 33 12.5
t12 36.5q0 8 -1 12q-3 -1 -9 -1q-14 0 -24 10t-10 25q0 13 9.5 22.5t23.5 9.5q19 0 29.5 -18t10.5 -49q0 -41 -18.5 -63.5t-50.5 -22.5q-10 0 -24 3z" />
    <glyph glyph-name="uni0156.alt2" horiz-adv-x="628" 
d="M60 701h311q103 0 165 -52t62 -138q0 -83 -57.5 -134.5t-152.5 -54.5l202 -322h-49l-196 315h-244v-315h-41v701zM371 355q85 0 135.5 41.5t50.5 111.5t-50.5 112t-135.5 42h-270v-307h270zM265 -214q5 -1 14 -1q21 0 33 12.5t12 36.5q0 8 -1 12q-3 -1 -9 -1
q-14 0 -24 10t-10 25q0 13 9.5 22.5t23.5 9.5q19 0 29.5 -18t10.5 -49q0 -41 -18.5 -63.5t-50.5 -22.5q-10 0 -24 3z" />
    <glyph glyph-name="ugrave.alt1" horiz-adv-x="526" 
d="M102 36q-57 56 -57 156v309h40v-309q0 -83 46.5 -128.5t131.5 -45.5t131.5 45.5t46.5 128.5v309h40v-309q0 -100 -57.5 -156t-161.5 -56q-103 0 -160 56zM131 738l25 20l116 -142l-23 -20z" />
    <glyph glyph-name="uacute.alt1" horiz-adv-x="526" 
d="M102 36q-57 56 -57 156v309h40v-309q0 -83 46.5 -128.5t131.5 -45.5t131.5 45.5t46.5 128.5v309h40v-309q0 -100 -57.5 -156t-161.5 -56q-103 0 -160 56zM252 616l117 142l24 -20l-117 -142z" />
    <glyph glyph-name="ucircumflex.alt1" horiz-adv-x="526" 
d="M102 36q-57 56 -57 156v309h40v-309q0 -83 46.5 -128.5t131.5 -45.5t131.5 45.5t46.5 128.5v309h40v-309q0 -100 -57.5 -156t-161.5 -56q-103 0 -160 56zM94 618l146 124h49l146 -124l-21 -24l-150 127l-149 -127z" />
    <glyph glyph-name="utilde.alt1" horiz-adv-x="526" 
d="M102 36q-57 56 -57 156v309h40v-309q0 -83 46.5 -128.5t131.5 -45.5t131.5 45.5t46.5 128.5v309h40v-309q0 -100 -57.5 -156t-161.5 -56q-103 0 -160 56zM295 605q-18 15 -39 44q-19 28 -33 41.5t-34 13.5q-27 0 -43.5 -29.5t-16.5 -74.5h-29q0 58 25.5 95.5t66.5 37.5
q29 0 47 -16.5t40 -48.5q20 -27 32 -38t30 -11q28 0 45.5 30t17.5 75h29q0 -59 -26 -96.5t-67 -37.5q-27 0 -45 15z" />
    <glyph glyph-name="umacron.alt1" horiz-adv-x="526" 
d="M102 36q-57 56 -57 156v309h40v-309q0 -83 46.5 -128.5t131.5 -45.5t131.5 45.5t46.5 128.5v309h40v-309q0 -100 -57.5 -156t-161.5 -56q-103 0 -160 56zM123 623h281v-31h-281v31z" />
    <glyph glyph-name="ubreve.alt1" horiz-adv-x="526" 
d="M102 36q-57 56 -57 156v309h40v-309q0 -83 46.5 -128.5t131.5 -45.5t131.5 45.5t46.5 128.5v309h40v-309q0 -100 -57.5 -156t-161.5 -56q-103 0 -160 56zM181.5 616.5q-36.5 18.5 -58 51.5t-21.5 74h32q1 -49 37.5 -80.5t92.5 -31.5q57 0 94 31.5t36 80.5h31
q0 -41 -20.5 -74t-57.5 -51.5t-83 -18.5t-82.5 18.5z" />
    <glyph glyph-name="uring.alt1" horiz-adv-x="526" 
d="M102 36q-57 56 -57 156v309h40v-309q0 -83 46.5 -128.5t131.5 -45.5t131.5 45.5t46.5 128.5v309h40v-309q0 -100 -57.5 -156t-161.5 -56q-103 0 -160 56zM202 622.5q-25 24.5 -25 62.5t25 62.5t63 24.5q37 0 61 -24.5t24 -62.5t-24 -62.5t-61 -24.5q-38 0 -63 24.5z
M304.5 644q15.5 16 15.5 41q0 26 -15.5 42t-40.5 16t-41.5 -16.5t-16.5 -41.5t16.5 -41t41.5 -16t40.5 16z" />
    <glyph glyph-name="uhungarumlaut.alt1" horiz-adv-x="526" 
d="M102 36q-57 56 -57 156v309h40v-309q0 -83 46.5 -128.5t131.5 -45.5t131.5 45.5t46.5 128.5v309h40v-309q0 -100 -57.5 -156t-161.5 -56q-103 0 -160 56zM173 616l117 142l24 -20l-117 -142zM334 616l117 142l24 -20l-117 -142z" />
    <glyph glyph-name="udieresis.alt1" horiz-adv-x="526" 
d="M102 36q-57 56 -57 156v309h40v-309q0 -83 46.5 -128.5t131.5 -45.5t131.5 45.5t46.5 128.5v309h40v-309q0 -100 -57.5 -156t-161.5 -56q-103 0 -160 56zM135 618.5q-10 9.5 -10 25.5t10 25.5t26 9.5t25.5 -9.5t9.5 -25.5t-9.5 -25.5t-25.5 -9.5t-26 9.5zM340.5 618.5
q-9.5 9.5 -9.5 25.5t9.5 25.5t25.5 9.5t26 -9.5t10 -25.5t-10 -25.5t-26 -9.5t-25.5 9.5z" />
    <glyph glyph-name="uogonek.alt1" horiz-adv-x="526" 
d="M481 501v-309q0 -73 -31 -123t-89 -72q-83 -47 -117.5 -74.5t-34.5 -60.5q0 -18 10.5 -29t29.5 -11q20 0 39.5 14t32.5 37l18 -26q-15 -25 -40 -40.5t-51 -15.5q-33 0 -52.5 19t-19.5 51t25 60.5t74 58.5h-13q-103 0 -160 56t-57 156v309h40v-309q0 -83 46.5 -128.5
t131.5 -45.5t131.5 45.5t46.5 128.5v309h40z" />
    <glyph glyph-name="ygrave.alt1" horiz-adv-x="504" 
d="M255 41l-245 460h44l219 -412h1l178 412h42l-306 -711h-42zM130 738l25 20l116 -142l-23 -20z" />
    <glyph glyph-name="yacute.alt1" horiz-adv-x="504" 
d="M255 41l-245 460h44l219 -412h1l178 412h42l-306 -711h-42zM252 616l117 142l24 -20l-117 -142z" />
    <glyph glyph-name="ydieresis.alt1" horiz-adv-x="504" 
d="M255 41l-245 460h44l219 -412h1l178 412h42l-306 -711h-42zM135 618.5q-10 9.5 -10 25.5t10 25.5t26 9.5t25.5 -9.5t9.5 -25.5t-9.5 -25.5t-25.5 -9.5t-26 9.5zM340.5 618.5q-9.5 9.5 -9.5 25.5t9.5 25.5t25.5 9.5t26 -9.5t10 -25.5t-10 -25.5t-26 -9.5t-25.5 9.5z" />
    <glyph glyph-name="ycircumflex.alt1" horiz-adv-x="504" 
d="M255 41l-245 460h44l219 -412h1l178 412h42l-306 -711h-42zM94 618l146 124h49l146 -124l-21 -24l-150 127l-149 -127z" />
    <glyph glyph-name="three.alt1" horiz-adv-x="561" 
d="M162.5 6.5q-53.5 31.5 -86 87t-36.5 126.5l39 10q3 -63 29.5 -112t72 -76.5t102.5 -27.5q56 0 101 24t70 67t25 96q0 82 -53 132.5t-141 50.5q-23 0 -45.5 -5t-34.5 -12l-16 29l231 266h-335v39h376v-49l-201 -234q13 2 39 2q65 0 115.5 -29t78.5 -79.5t28 -112.5
q0 -64 -30.5 -115t-85 -80t-122.5 -29q-67 0 -120.5 31.5z" />
    <glyph glyph-name="colon.case" horiz-adv-x="151" 
d="M50 513.5q-10 9.5 -10 25.5t10 26t26 10t25.5 -10t9.5 -26q0 -15 -9.5 -25t-25.5 -10t-26 9.5zM50 96q-10 10 -10 26q0 15 10 25t26 10t25.5 -10t9.5 -25t-10 -25.5t-25 -10.5q-16 0 -26 10z" />
    <glyph glyph-name="semicolon.case" horiz-adv-x="180" 
d="M46 19q12 -2 16 -2q22 0 35.5 16t13.5 43q0 8 -1 13q-4 -1 -11 -1q-16 0 -25.5 9.5t-9.5 25.5q0 15 10 24.5t25 9.5q20 0 30.5 -17.5t10.5 -51.5q0 -46 -20 -71.5t-56 -25.5q-11 0 -24 3zM74 513q-10 10 -10 26q0 15 10 25t26 10t25.5 -10t9.5 -25t-10 -25.5t-25 -10.5
q-16 0 -26 10z" />
    <glyph glyph-name="exclamdown.case" horiz-adv-x="171" 
d="M111.5 702q9.5 -10 9.5 -26q0 -15 -9.5 -25t-25.5 -10t-26 10t-10 25t10 25.5t26 10.5t25.5 -10zM106 198v-198h-41v198l4 339h34z" />
    <glyph glyph-name="questiondown.case" horiz-adv-x="483" 
d="M276.5 702q9.5 -10 9.5 -26q0 -15 -9.5 -25t-25.5 -10t-26 10t-10 25t10 25.5t26 10.5t25.5 -10zM259.5 456q-10.5 -32 -31.5 -55t-59 -49l-35 -23q-38 -27 -60.5 -61.5t-22.5 -84.5q0 -49 23 -87.5t62.5 -60t88.5 -21.5q85 0 135.5 53t60.5 141l40 -9
q-12 -101 -75 -162.5t-163 -61.5q-60 0 -108.5 26.5t-76.5 73.5t-28 107q0 59 26 100.5t74 73.5l34 23q49 34 67.5 65.5t18.5 92.5h40q0 -49 -10.5 -81z" />
    <glyph glyph-name="slash.case" horiz-adv-x="335" 
d="M0 -48l305 803l30 -13l-306 -803z" />
    <glyph glyph-name="backslash.case" horiz-adv-x="335" 
d="M0 742l30 13l305 -803l-29 -13z" />
    <glyph glyph-name="parenleft.case" horiz-adv-x="218" 
d="M80 81.5q-45 129.5 -45 264.5t45 264.5t116 202.5l22 -20q-69 -78 -110 -199.5t-41 -249.5q0 -127 41 -246.5t110 -196.5l-22 -21q-71 72 -116 201.5z" />
    <glyph glyph-name="parenright.case" horiz-adv-x="218" 
d="M1 -99q69 77 110 196.5t41 246.5q0 128 -41.5 249.5t-110.5 199.5l23 20q71 -72 115.5 -200.5t44.5 -262.5q0 -136 -44.5 -266.5t-115.5 -203.5z" />
    <glyph glyph-name="braceleft.case" horiz-adv-x="273" 
d="M132 -95q-22 25 -22 67v272q0 35 -16.5 55t-46.5 22l-12 1v47l12 1q30 2 46.5 22.5t16.5 55.5v271q0 42 22 67t59 25h82v-32h-82q-23 0 -36.5 -16t-13.5 -44v-273q0 -42 -19 -69t-52 -30v-2q33 -3 52 -29.5t19 -69.5v-274q0 -28 13.5 -44t36.5 -16h82v-32h-82
q-37 0 -59 25z" />
    <glyph glyph-name="braceright.case" horiz-adv-x="273" 
d="M0 -120v32h82q23 0 36.5 16t13.5 44v274q0 43 19.5 69.5t51.5 29.5v2q-32 3 -51.5 30t-19.5 69v273q0 28 -13.5 44t-36.5 16h-82v32h82q37 0 59 -25t22 -67v-271q0 -35 17 -55.5t46 -22.5l12 -1v-47l-12 -1q-29 -2 -46 -22t-17 -55v-272q0 -42 -22 -67t-59 -25h-82z" />
    <glyph glyph-name="bracketleft.case" horiz-adv-x="221" 
d="M60 811h161v-32h-128v-867h128v-32h-161v931z" />
    <glyph glyph-name="bracketright.case" horiz-adv-x="221" 
d="M0 -120v32h128v867h-128v32h161v-931h-161z" />
    <glyph glyph-name="hyphen.case" horiz-adv-x="470" 
d="M50 386h370v-38h-370v38z" />
    <glyph glyph-name="endash.case" horiz-adv-x="678" 
d="M50 382h578v-32h-578v32z" />
    <glyph glyph-name="emdash.case" horiz-adv-x="987" 
d="M50 382h887v-32h-887v32z" />
    <glyph glyph-name="guillemotleft.case" horiz-adv-x="492" 
d="M30 351l211 260l24 -20l-195 -240l194 -241l-23 -20zM227 351l210 260l25 -20l-195 -240l194 -241l-24 -20z" />
    <glyph glyph-name="guillemotright.case" horiz-adv-x="492" 
d="M266 351l-211 -261l-25 20l195 241l-194 240l24 20zM462 351l-211 -261l-24 20l195 241l-194 240l23 20z" />
    <glyph glyph-name="guilsinglleft.case" horiz-adv-x="295" 
d="M30 351l211 260l24 -20l-195 -240l194 -241l-23 -20z" />
    <glyph glyph-name="guilsinglright.case" horiz-adv-x="295" 
d="M265 351l-211 -261l-24 20l195 241l-194 240l23 20z" />
    <glyph glyph-name="at.case" horiz-adv-x="928" 
d="M238 -27.5q-97 52.5 -150 148.5t-53 225q0 126 56.5 224t159 152.5t233.5 54.5q116 0 208.5 -50.5t146.5 -148.5t54 -233q0 -129 -38.5 -195.5t-108.5 -66.5q-46 0 -72.5 25t-28.5 72v43h-1q-25 -65 -84.5 -102.5t-139.5 -37.5q-84 0 -134.5 37t-50.5 100t56.5 105
t196.5 62l131 18q26 3 26 27q0 79 -46.5 117.5t-123.5 38.5q-51 0 -93.5 -21t-67 -56t-24.5 -75l-38 15q3 47 33.5 87.5t80.5 64.5t109 24q95 0 152.5 -50.5t57.5 -146.5v-247q0 -32 17 -49t47 -17q53 0 83 58.5t30 168.5q0 127 -50 218t-135.5 137.5t-191.5 46.5
q-124 0 -219 -50.5t-147 -141.5t-52 -208q0 -119 49.5 -208.5t140 -138t210.5 -48.5q70 0 135 19.5t106 51.5l14 -27q-44 -35 -113.5 -55t-144.5 -20q-129 0 -226 52.5zM537.5 148q50.5 27 79 76t28.5 114v33l-154 -22q-123 -17 -169.5 -49t-46.5 -80q0 -45 40.5 -72
t108.5 -27q63 0 113.5 27z" />
    <glyph glyph-name="acute.case" horiz-adv-x="163" 
d="M20 796l98 121l25 -20l-99 -121z" />
    <glyph glyph-name="breve.case" horiz-adv-x="320" 
d="M59.5 824.5q-39.5 34.5 -39.5 87.5h32q0 -39 30.5 -64.5t77.5 -25.5t78 25.5t31 64.5h31q0 -53 -39.5 -87.5t-100.5 -34.5t-100.5 34.5z" />
    <glyph glyph-name="caron.case" horiz-adv-x="329" 
d="M20 893l21 25l123 -107l124 107l21 -24l-120 -104h-49z" />
    <glyph glyph-name="caron.alt1" horiz-adv-x="134" 
d="M26 587q5 -1 14 -1q21 0 33 12.5t12 36.5q0 8 -1 12q-3 -1 -9 -1q-14 0 -24 10t-10 25q0 13 9.5 22.5t23.5 9.5q19 0 29.5 -18t10.5 -49q0 -41 -18.5 -63.5t-50.5 -22.5q-10 0 -24 3z" />
    <glyph glyph-name="circumflex.case" horiz-adv-x="329" 
d="M20 808l120 104h49l120 -104l-21 -24l-124 107l-123 -107z" />
    <glyph glyph-name="dieresis.case" horiz-adv-x="317" 
d="M30 823q-10 10 -10 25t10 25t26 10q15 0 25 -10t10 -25t-10 -25t-25 -10q-16 0 -26 10zM236 823q-10 10 -10 25t10 25t25 10q16 0 26 -10t10 -25t-10 -25t-26 -10q-15 0 -25 10z" />
    <glyph glyph-name="dotaccent.case" horiz-adv-x="111" 
d="M30 823q-10 10 -10 25q0 16 10 25.5t26 9.5q15 0 25 -9.5t10 -25.5q0 -15 -10 -25t-25 -10q-16 0 -26 10z" />
    <glyph glyph-name="grave.case" horiz-adv-x="163" 
d="M20 897l24 20l99 -121l-24 -20z" />
    <glyph glyph-name="hungarumlaut.case" horiz-adv-x="324" 
d="M20 796l98 121l25 -20l-99 -121zM181 796l98 121l25 -20l-99 -121z" />
    <glyph glyph-name="ring.case" horiz-adv-x="213" 
d="M45 812.5q-25 24.5 -25 62.5t25 62.5t63 24.5q37 0 61 -24.5t24 -62.5t-24 -62.5t-61 -24.5q-38 0 -63 24.5zM147.5 834q15.5 16 15.5 41q0 26 -15.5 42t-40.5 16t-41.5 -16.5t-16.5 -41.5t16.5 -41t41.5 -16t40.5 16z" />
    <glyph glyph-name="tilde.case" horiz-adv-x="373" 
d="M213.5 795.5q-18.5 15.5 -39.5 45.5q-18 26 -32 39.5t-33 13.5q-27 0 -43.5 -29.5t-16.5 -74.5h-29q0 58 25.5 95.5t66.5 37.5q28 0 45.5 -15.5t40.5 -46.5q18 -26 31 -39t32 -13q28 0 45.5 30t17.5 75h29q0 -59 -26 -96.5t-67 -37.5q-28 0 -46.5 15.5z" />
    <glyph glyph-name="arrowup.case" horiz-adv-x="528" 
d="M264 608l229 -220l-22 -23l-191 184v-452h-32v452l-191 -184l-22 23z" />
    <glyph glyph-name="uni2197.case" horiz-adv-x="474" 
d="M408 538l6 -318l-32 -1l-5 265l-320 -319l-22 22l320 320l-266 5l1 32z" />
    <glyph glyph-name="arrowright.case" horiz-adv-x="581" 
d="M303 154l184 191h-452v32h452l-184 191l23 22l220 -229l-220 -229z" />
    <glyph glyph-name="uni2198.case" horiz-adv-x="474" 
d="M408 172l-318 -6l-1 32l265 5l-319 320l22 22l320 -320l5 266l32 -1z" />
    <glyph glyph-name="arrowdown.case" horiz-adv-x="528" 
d="M57 332l191 -184v452h32v-452l191 184l22 -23l-229 -220l-229 220z" />
    <glyph glyph-name="uni2199.case" horiz-adv-x="474" 
d="M92 494l5 -265l320 319l22 -22l-320 -320l266 -5l-1 -32l-318 7l-6 317z" />
    <glyph glyph-name="arrowleft.case" horiz-adv-x="581" 
d="M35 361l220 229l23 -22l-184 -191h452v-32h-452l184 -191l-23 -22z" />
    <glyph glyph-name="uni2196.case" horiz-adv-x="474" 
d="M384 515l-265 -5l320 -319l-23 -23l-319 320l-5 -265h-32l6 318l318 6v-32z" />
    <glyph glyph-name="arrowboth.case" horiz-adv-x="909" 
d="M874 361l-220 -229l-23 22l184 191h-721l184 -191l-23 -22l-220 229l220 229l23 -22l-184 -191h721l-184 191l23 22z" />
    <glyph glyph-name="arrowupdn.case" horiz-adv-x="528" 
d="M471 203l22 -23l-229 -220l-229 220l22 23l191 -184v663l-191 -184l-22 23l229 220l229 -220l-22 -23l-191 184v-663z" />
    </font>
</defs>
</svg>
